<svg width="84" height="77" viewBox="0 0 84 77" fill="none" xmlns="http://www.w3.org/2000/svg">
<g clip-path="url(#clip0_48_53)">
<path d="M55.3135 76.8653H28.6865C25.988 76.8653 23.337 76.155 21 74.8057C18.663 73.4564 16.7223 71.5158 15.3731 69.1788L2.0596 46.1192C0.710336 43.7822 0 41.1312 0 38.4327C0 35.7341 0.710336 33.0831 2.0596 30.7461L15.3731 7.68653C16.7223 5.34953 18.663 3.40887 21 2.0596C23.337 0.710331 25.988 -4.89862e-07 28.6865 0L55.3135 1.04729e-06C58.012 6.68721e-07 60.663 0.710331 63 2.0596C65.337 3.40887 67.2777 5.34953 68.6269 7.68653L81.9404 30.7461C83.2896 33.0831 84 35.7341 84 38.4327C84 41.1312 83.2896 43.7822 81.9404 46.1192L68.6269 69.1788C67.2777 71.5158 65.337 73.4564 63 74.8057C60.663 76.155 58.012 76.8653 55.3135 76.8653Z" fill="#FFFFFE"/>
<path d="M49.5594 0.00012207C52.2497 0.00772249 54.8908 0.721175 57.219 2.06919C59.5472 3.41721 61.4809 5.35259 62.8268 7.68196L76.1404 30.7414C77.4897 33.0784 78.2 35.7293 78.2 38.4279C78.2 41.1264 77.4897 43.7774 76.1404 46.1144L62.8268 69.1741C61.4776 71.5111 59.5369 73.4518 57.1999 74.8011C54.863 76.1503 52.212 76.8607 49.5135 76.8607H28.6434C28.6578 76.8622 28.6722 76.8637 28.6866 76.8651H55.3135C58.012 76.8651 60.663 76.1548 63 74.8056C65.3369 73.4563 67.2776 71.5157 68.6269 69.1788L81.9405 46.1191C83.2897 43.7821 84.0001 41.1311 84.0001 38.4326C84.0001 35.734 83.2897 33.083 81.9405 30.746L68.6268 7.6865C67.2775 5.34955 65.3369 3.40893 62.9999 2.05969C60.6629 0.71045 58.012 0.000130669 55.3135 0.00012207H49.5594Z" fill="#C4C4C4"/>
<path d="M59.1737 52.1664L31.9873 25.4032L28.536 28.9091L55.7224 55.6723L59.1737 52.1664Z" fill="#C4C4C4"/>
<path d="M55.3208 57.8032C56.9975 59.4537 59.6948 59.4326 61.3454 57.7559C62.9959 56.0792 62.9748 53.3819 61.2981 51.7314C59.6214 50.0808 56.9242 50.102 55.2736 51.7786C53.623 53.4553 53.6442 56.1526 55.3208 57.8032Z" fill="#C4C4C4"/>
<path d="M29.0471 17.838C30.3487 18.3262 31.9591 19.2165 34.1341 21.0468C35.3543 22.5315 34.3027 27.5798 34.3027 27.5798L30.745 31.1938C30.745 31.1938 27.7904 30.9113 26.2807 30.3499C25.1862 29.8122 21.4305 25.5751 21.4305 25.5751C21.4305 25.5751 26.9974 27.0734 28.2902 26.8782C29.4928 26.8656 31.298 24.5576 30.8634 23.2931C30.7138 22.1699 26.7865 20.1344 26.7865 20.1344L29.0471 17.838Z" fill="#C4C4C4"/>
<path d="M59.9072 53.1442C60.8036 54.0266 60.8149 55.4686 59.9325 56.365C59.0501 57.2614 57.6081 57.2727 56.7117 56.3903C55.8153 55.5078 55.804 54.0658 56.6864 53.1694C57.5688 52.2731 59.0108 52.2617 59.9072 53.1442Z" fill="white"/>
</g>
<defs>
<clipPath id="clip0_48_53">
<rect width="84" height="76.8653" fill="white"/>
</clipPath>
</defs>
</svg>
