<svg width="84" height="77" viewBox="0 0 84 77" fill="none" xmlns="http://www.w3.org/2000/svg">
<g clip-path="url(#clip0_53_71)">
<path d="M54.3457 77.6696H27.7187C25.0202 77.6696 22.3692 76.9593 20.0322 75.61C17.6952 74.2608 15.7546 72.3201 14.4053 69.9831L1.09183 46.9235C-0.257437 44.5865 -0.967773 41.9355 -0.967773 39.237C-0.967773 36.5384 -0.257437 33.8874 1.09183 31.5504L14.4053 8.49085C15.7546 6.15385 17.6952 4.21319 20.0322 2.86392C22.3692 1.51465 25.0202 0.804321 27.7188 0.804321L54.3457 0.804322C57.0442 0.804322 59.6952 1.51465 62.0322 2.86392C64.3692 4.21319 66.3099 6.15385 67.6592 8.49085L80.9726 31.5504C82.3219 33.8874 83.0322 36.5384 83.0322 39.237C83.0322 41.9355 82.3219 44.5865 80.9726 46.9235L67.6592 69.9831C66.3099 72.3201 64.3692 74.2608 62.0322 75.61C59.6952 76.9593 57.0442 77.6696 54.3457 77.6696Z" fill="#FFFFFE"/>
<path d="M48.5915 0.804413C51.2818 0.812013 53.9229 1.52547 56.2511 2.87348C58.5793 4.2215 60.513 6.15688 61.8589 8.48625L75.1725 31.5456C76.5218 33.8826 77.2321 36.5336 77.2321 39.2322C77.2321 41.9307 76.5218 44.5817 75.1725 46.9187L61.8589 69.9784C60.5097 72.3154 58.569 74.256 56.232 75.6053C53.8951 76.9546 51.2441 77.665 48.5456 77.665H27.6755C27.6899 77.6665 27.7043 77.668 27.7187 77.6694H54.3456C57.0441 77.6694 59.6951 76.9591 62.0321 75.6099C64.369 74.2606 66.3097 72.32 67.659 69.983L80.9726 46.9234C82.3218 44.5864 83.0322 41.9354 83.0322 39.2368C83.0322 36.5383 82.3218 33.8873 80.9726 31.5503L67.6589 8.49079C66.3097 6.15384 64.369 4.21322 62.032 2.86398C59.6951 1.51474 57.0441 0.804421 54.3456 0.804413H48.5915Z" fill="#C4C4C4"/>
<path d="M20.7962 20.4483C26.0721 16.8131 33.0703 17.3963 38.4723 19.1748C38.4723 19.1748 43.3185 19.7668 45.3996 23.0032C44.8711 24.6701 44.8256 28.7988 45.3735 29.575C45.3735 29.575 50.0555 35.0959 48.909 36.0141C48.909 36.0141 47.4705 36.206 46.9468 36.6687C46.7484 36.9764 45.7977 38.7999 48.8103 39.5388C48.8103 39.5388 43.87 43.4499 43.5026 44.8889C43.5026 44.8889 46.2031 46.9182 48.56 46.4658C48.56 46.4658 48.7111 48.4764 48.5617 49.9585C48.4405 51.9418 47.6318 52.2213 46.8823 52.4815C45.8494 52.8712 44.8277 53.0072 42.5589 52.7024C42.3709 54.1979 44.3406 58.2071 44.8867 60.1208C43.0341 61.4666 25.446 60.0493 25.446 60.0493L25.0336 51.9781C24.6905 48.9909 21.2428 47.5637 19.1303 43.4226C18.0311 39.8291 17.1462 36.2744 17.1606 30.5149C17.3667 25.9282 16.342 23.0356 20.7961 20.4483H20.7962Z" fill="#C4C4C4"/>
<path d="M61.136 29.9248L52.2957 35.0288C51.6447 35.4046 51.4216 36.237 51.7975 36.888C52.1733 37.539 53.0057 37.762 53.6567 37.3862L62.4971 32.2822C63.148 31.9064 63.3711 31.074 62.9952 30.423C62.6194 29.772 61.787 29.5489 61.136 29.9248Z" fill="#C4C4C4"/>
<path d="M63.5431 39.3971H53.3352C52.5835 39.3971 51.9741 40.0065 51.9741 40.7582C51.9741 41.5099 52.5835 42.1193 53.3352 42.1193H63.5431C64.2948 42.1193 64.9042 41.5099 64.9042 40.7582C64.9042 40.0065 64.2948 39.3971 63.5431 39.3971Z" fill="#C4C4C4"/>
<path d="M62.436 49.2342L53.5957 44.1302C52.9447 43.7544 52.1123 43.9774 51.7365 44.6284C51.3606 45.2794 51.5836 46.1118 52.2346 46.4877L61.075 51.5917C61.726 51.9675 62.5584 51.7445 62.9342 51.0935C63.3101 50.4425 63.087 49.6101 62.436 49.2342Z" fill="#C4C4C4"/>
</g>
<defs>
<clipPath id="clip0_53_71">
<rect width="84" height="76.8653" fill="white"/>
</clipPath>
</defs>
</svg>
