<svg width="84" height="77" viewBox="0 0 84 77" fill="none" xmlns="http://www.w3.org/2000/svg">
<path d="M55.3135 77H28.6865C25.988 77 23.337 76.2884 21 74.9368C18.663 73.5852 16.7223 71.6411 15.3731 69.3L2.0596 46.2C0.710332 43.8589 0 41.2033 0 38.5C0 35.7967 0.710332 33.1411 2.0596 30.8L15.3731 7.7C16.7223 5.3589 18.663 3.41484 21 2.06321C23.337 0.711576 25.988 -4.02458e-07 28.6865 0L55.3135 1.11032e-06C58.012 3.40998e-06 60.663 0.711582 63 2.06321C65.337 3.41485 67.2777 5.35891 68.6269 7.7L81.9404 30.8C83.2896 33.1411 84 35.7967 84 38.5C84 41.2033 83.2896 43.8589 81.9404 46.2L68.6269 69.3C67.2776 71.6411 65.337 73.5852 63 74.9368C60.663 76.2884 58.012 77 55.3135 77Z" fill="#FFFFFE"/>
<path d="M49.5594 0.00012207C52.2497 0.0077358 54.8908 0.722437 57.219 2.07282C59.5472 3.42319 61.4808 5.36196 62.8268 7.69541L76.1404 30.7952C77.4897 33.1363 78.2 35.792 78.2 38.4952C78.2 41.1985 77.4897 43.8541 76.1404 46.1952L62.8268 69.2953C61.4775 71.6364 59.5369 73.5805 57.1999 74.9321C54.863 76.2838 52.212 76.9954 49.5135 76.9954H28.6434C28.6578 76.9969 28.6722 76.9984 28.6866 76.9998H55.3135C58.012 76.9998 60.663 76.2882 62.9999 74.9366C65.3369 73.585 67.2776 71.641 68.6269 69.3L81.9405 46.1999C83.2897 43.8588 84 41.2032 84 38.4999C84 35.7966 83.2897 33.141 81.9405 30.7999L68.6268 7.69996C67.2775 5.35892 65.3369 3.4149 62.9999 2.0633C60.6629 0.711695 58.012 0.000130684 55.3135 0.00012207H49.5594Z" fill="#C4C4C4"/>
<path d="M41.6904 41.5764C44.986 41.5764 47.6576 38.9001 47.6576 35.5988C47.6576 32.2974 44.986 29.6212 41.6904 29.6212C38.3949 29.6212 35.7233 32.2974 35.7233 35.5988C35.7233 38.9001 38.3949 41.5764 41.6904 41.5764Z" fill="#C4C4C4"/>
<path d="M41.6904 40.1211C40.1079 40.1211 38.5901 40.8832 37.471 42.2398C36.352 43.5964 35.7233 45.4363 35.7233 47.3548H47.6576C47.6576 45.4363 47.0289 43.5964 45.9099 42.2398C44.7908 40.8832 43.273 40.1211 41.6904 40.1211Z" fill="#C4C4C4"/>
<path d="M54.1162 38.5164L48.5373 46.6892C48.1241 47.2944 47.2542 47.5279 46.5943 47.2107C45.9344 46.8935 45.7344 46.1457 46.1476 45.5404L51.7265 37.3677C52.1397 36.7624 53.0096 36.5289 53.6695 36.8461C54.3294 37.1634 54.5294 37.9112 54.1162 38.5164Z" fill="#C4C4C4"/>
<path d="M29.4683 38.542L35.0473 46.7148C35.4605 47.3201 36.3304 47.5536 36.9903 47.2364C37.6502 46.9191 37.8502 46.1713 37.437 45.5661L31.8581 37.3933C31.4449 36.788 30.575 36.5546 29.9151 36.8718C29.2552 37.189 29.0552 37.9368 29.4683 38.542Z" fill="#C4C4C4"/>
<path d="M19.3003 41.5764C22.5959 41.5764 25.2675 38.9001 25.2675 35.5988C25.2675 32.2974 22.5959 29.6212 19.3003 29.6212C16.0047 29.6212 13.3331 32.2974 13.3331 35.5988C13.3331 38.9001 16.0047 41.5764 19.3003 41.5764Z" fill="#C4C4C4"/>
<path d="M19.3003 40.1211C17.7177 40.1211 16.1999 40.8832 15.0809 42.2398C13.9618 43.5964 13.3331 45.4363 13.3331 47.3548H25.2675C25.2675 45.4363 24.6388 43.5964 23.5197 42.2398C22.4007 40.8832 20.8829 40.1211 19.3003 40.1211Z" fill="#C4C4C4"/>
<path d="M31.726 38.5164L26.147 46.6892C25.7339 47.2944 24.864 47.5279 24.2041 47.2107C23.5442 46.8935 23.3441 46.1457 23.7573 45.5404L29.3363 37.3677C29.7494 36.7624 30.6193 36.5289 31.2792 36.8461C31.9391 37.1634 32.1391 37.9112 31.726 38.5164Z" fill="#C4C4C4"/>
<path d="M64.4961 41.5764C67.7917 41.5764 70.4633 38.9001 70.4633 35.5988C70.4633 32.2974 67.7917 29.6212 64.4961 29.6212C61.2005 29.6212 58.5289 32.2974 58.5289 35.5988C58.5289 38.9001 61.2005 41.5764 64.4961 41.5764Z" fill="#C4C4C4"/>
<path d="M64.4961 40.1211C62.9135 40.1211 61.3957 40.8832 60.2767 42.2398C59.1576 43.5964 58.5289 45.4363 58.5289 47.3548H70.4633C70.4633 45.4363 69.8346 43.5964 68.7155 42.2398C67.5965 40.8832 66.0787 40.1211 64.4961 40.1211Z" fill="#C4C4C4"/>
<path d="M52.274 38.542L57.853 46.7148C58.2661 47.3201 59.136 47.5536 59.7959 47.2364C60.4558 46.9191 60.6559 46.1713 60.2427 45.5661L54.6637 37.3933C54.2506 36.788 53.3807 36.5546 52.7208 36.8718C52.0609 37.189 51.8609 37.9368 52.274 38.542Z" fill="#C4C4C4"/>
</svg>
