<svg width="92" height="85" viewBox="0 0 92 85" fill="none" xmlns="http://www.w3.org/2000/svg">
<g clip-path="url(#clip0_44_10)" filter="url(#filter0_d_44_10)">
<path d="M59.3135 76.8653H32.6865C29.988 76.8653 27.337 76.155 25 74.8057C22.663 73.4565 20.7223 71.5158 19.3731 69.1788L6.0596 46.1192C4.71034 43.7822 4 41.1312 4 38.4327C4 35.7341 4.71034 33.0831 6.0596 30.7461L19.3731 7.68653C20.7223 5.34953 22.663 3.40887 25 2.0596C27.337 0.710331 29.988 -4.89862e-07 32.6865 0L59.3135 1.04729e-06C62.012 6.68721e-07 64.663 0.710331 67 2.0596C69.337 3.40887 71.2777 5.34953 72.6269 7.68653L85.9404 30.7461C87.2896 33.0831 88 35.7341 88 38.4327C88 41.1312 87.2896 43.7822 85.9404 46.1192L72.6269 69.1788C71.2777 71.5158 69.337 73.4565 67 74.8057C64.663 76.155 62.012 76.8653 59.3135 76.8653Z" fill="#FFFFFE"/>
<path d="M53.5594 0.00012207C56.2497 0.00772249 58.8908 0.721174 61.219 2.06919C63.5472 3.41721 65.4809 5.35259 66.8268 7.68196L80.1404 30.7414C81.4897 33.0784 82.2 35.7293 82.2 38.4279C82.2 41.1264 81.4897 43.7774 80.1404 46.1144L66.8268 69.1741C65.4776 71.5111 63.5369 73.4518 61.1999 74.801C58.863 76.1503 56.212 76.8607 53.5135 76.8607H32.6434C32.6578 76.8622 32.6722 76.8637 32.6866 76.8651H59.3135C62.012 76.8651 64.663 76.1548 67 74.8056C69.3369 73.4563 71.2776 71.5157 72.6269 69.1788L85.9405 46.1191C87.2897 43.7821 88.0001 41.1311 88.0001 38.4326C88.0001 35.734 87.2897 33.083 85.9405 30.746L72.6268 7.6865C71.2775 5.34954 69.3369 3.40893 66.9999 2.05969C64.6629 0.71045 62.012 0.000130669 59.3135 0.00012207H53.5594Z" fill="#C4C4C4"/>
<path d="M43.8837 53.8992C45.2066 54.5003 46.5537 54.7223 47.9676 53.8992V25.1454H43.8837V53.8992Z" fill="#C4C4C4"/>
<path d="M46.2579 54.4516C52.5957 52.4612 58.2444 50.6423 65.2321 52.2277V22.7018C56.3349 21.7312 51.8365 23.3808 46.0786 25.1617L46.2579 54.4516Z" fill="#C4C4C4"/>
<path d="M45.742 54.4516C39.4041 52.4612 33.7555 50.6423 26.7678 52.2277V22.7018C35.665 21.7312 40.1634 23.3808 45.9213 25.1617L45.742 54.4516Z" fill="#C4C4C4"/>
</g>
<defs>
<filter id="filter0_d_44_10" x="0" y="0" width="92" height="84.8653" filterUnits="userSpaceOnUse" color-interpolation-filters="sRGB">
<feFlood flood-opacity="0" result="BackgroundImageFix"/>
<feColorMatrix in="SourceAlpha" type="matrix" values="0 0 0 0 0 0 0 0 0 0 0 0 0 0 0 0 0 0 127 0" result="hardAlpha"/>
<feOffset dy="4"/>
<feGaussianBlur stdDeviation="2"/>
<feComposite in2="hardAlpha" operator="out"/>
<feColorMatrix type="matrix" values="0 0 0 0 0 0 0 0 0 0 0 0 0 0 0 0 0 0 0.25 0"/>
<feBlend mode="normal" in2="BackgroundImageFix" result="effect1_dropShadow_44_10"/>
<feBlend mode="normal" in="SourceGraphic" in2="effect1_dropShadow_44_10" result="shape"/>
</filter>
<clipPath id="clip0_44_10">
<rect width="84" height="76.8653" fill="white" transform="translate(4)"/>
</clipPath>
</defs>
</svg>
