<svg width="84" height="77" viewBox="0 0 84 77" fill="none" xmlns="http://www.w3.org/2000/svg">
<g clip-path="url(#clip0_47_40)">
<path d="M55.3135 76.8653H28.6865C25.988 76.8653 23.337 76.155 21 74.8057C18.663 73.4564 16.7223 71.5158 15.3731 69.1788L2.0596 46.1192C0.710336 43.7822 0 41.1312 0 38.4327C0 35.7341 0.710336 33.0831 2.0596 30.7461L15.3731 7.68653C16.7223 5.34953 18.663 3.40887 21 2.0596C23.337 0.710331 25.988 -4.89862e-07 28.6865 0L55.3135 1.04729e-06C58.012 6.68721e-07 60.663 0.710331 63 2.0596C65.337 3.40887 67.2777 5.34953 68.6269 7.68653L81.9404 30.7461C83.2896 33.0831 84 35.7341 84 38.4327C84 41.1312 83.2896 43.7822 81.9404 46.1192L68.6269 69.1788C67.2777 71.5158 65.337 73.4564 63 74.8057C60.663 76.155 58.012 76.8653 55.3135 76.8653Z" fill="#FFFFFE"/>
<path d="M49.5593 0.00012207C52.2496 0.00772249 54.8907 0.721175 57.2189 2.06919C59.5471 3.41721 61.4807 5.35259 62.8267 7.68196L76.1403 30.7414C77.4895 33.0784 78.1999 35.7293 78.1999 38.4279C78.1999 41.1264 77.4895 43.7774 76.1403 46.1144L62.8267 69.1741C61.4774 71.5111 59.5368 73.4518 57.1998 74.8011C54.8628 76.1503 52.2119 76.8607 49.5133 76.8607H28.6433C28.6577 76.8622 28.6721 76.8637 28.6865 76.8651H55.3134C58.0119 76.8651 60.6629 76.1548 62.9998 74.8056C65.3368 73.4563 67.2775 71.5157 68.6267 69.1788L81.9403 46.1191C83.2896 43.7821 83.9999 41.1311 83.9999 38.4326C83.9999 35.734 83.2896 33.083 81.9403 30.746L68.6267 7.6865C67.2774 5.34955 65.3368 3.40893 62.9998 2.05969C60.6628 0.71045 58.0119 0.000130669 55.3134 0.00012207H49.5593Z" fill="#C4C4C4"/>
<path d="M60.7292 21.557C54.3721 27.2249 46.8882 20.274 41.9285 17.5939V59.2714C41.9285 59.2714 56.1471 52.0147 57.6893 47.0349C58.7949 45.6148 60.7292 21.557 60.7292 21.557H60.7292Z" fill="#C4C4C4"/>
<path d="M23.2705 21.557C29.6277 27.2249 37.1116 20.274 42.0713 17.5939V59.2714C42.0713 59.2714 27.8526 52.0147 26.3105 47.0349C25.2049 45.6148 23.2706 21.557 23.2706 21.557H23.2705Z" fill="#C4C4C4"/>
</g>
<defs>
<clipPath id="clip0_47_40">
<rect width="84" height="76.8653" fill="white"/>
</clipPath>
</defs>
</svg>
