<svg width="84" height="77" viewBox="0 0 84 77" fill="none" xmlns="http://www.w3.org/2000/svg">
<g clip-path="url(#clip0_48_63)">
<path d="M55.3135 76.8653H28.6865C25.988 76.8653 23.337 76.155 21 74.8057C18.663 73.4564 16.7223 71.5158 15.3731 69.1788L2.0596 46.1192C0.710336 43.7822 0 41.1312 0 38.4327C0 35.7341 0.710336 33.0831 2.0596 30.7461L15.3731 7.68653C16.7223 5.34953 18.663 3.40887 21 2.0596C23.337 0.710331 25.988 -4.89862e-07 28.6865 0L55.3135 1.04729e-06C58.012 6.68721e-07 60.663 0.710331 63 2.0596C65.337 3.40887 67.2777 5.34953 68.6269 7.68653L81.9404 30.7461C83.2896 33.0831 84 35.7341 84 38.4327C84 41.1312 83.2896 43.7822 81.9404 46.1192L68.6269 69.1788C67.2777 71.5158 65.337 73.4564 63 74.8057C60.663 76.155 58.012 76.8653 55.3135 76.8653Z" fill="#FFFFFE"/>
<path d="M49.5594 9.15527e-05C52.2497 0.00769197 54.8908 0.721144 57.219 2.06916C59.5472 3.41718 61.4809 5.35256 62.8268 7.68193L76.1404 30.7413C77.4897 33.0783 78.2 35.7293 78.2 38.4278C78.2 41.1264 77.4897 43.7774 76.1404 46.1144L62.8268 69.174C61.4776 71.511 59.5369 73.4517 57.1999 74.801C54.863 76.1503 52.212 76.8607 49.5135 76.8607H28.6434C28.6578 76.8622 28.6722 76.8636 28.6866 76.8651H55.3135C58.012 76.8651 60.663 76.1548 63 74.8055C65.3369 73.4563 67.2776 71.5157 68.6269 69.1787L81.9405 46.119C83.2897 43.782 84.0001 41.1311 84.0001 38.4325C84.0001 35.734 83.2897 33.083 81.9405 30.746L68.6268 7.68646C67.2775 5.34951 65.3369 3.4089 62.9999 2.05966C60.6629 0.710419 58.012 0.000100152 55.3135 9.15527e-05H49.5594Z" fill="#C4C4C4"/>
<path d="M28.0858 16.4746C28.0858 16.4746 35.3463 14.8244 38.0933 14.6231C40.0762 14.7427 47.4614 17.6774 53.3374 21.3194C59.6224 27.6581 54.1125 42.0792 52.8797 43.184C51.5778 45.1559 47.6557 49.5807 46.0921 52.1286C45.2795 54.106 42.2911 60.4838 39.8152 61.9933C37.1191 62.6898 32.9629 61.9757 29.5608 59.2047C28.1105 57.9643 28.5696 54.7373 31.3759 55.0769C34.5696 56.5385 36.3489 59.0326 38.6568 58.56C40.5809 57.8691 43.7557 49.5595 44.4292 47.7799C45.5115 46.3561 51.139 40.6558 51.9683 37.1997C52.604 34.127 53.2157 26.5664 51.5153 25.2604C50.5892 24.2698 47.9927 21.8479 44.9553 20.5223C40.7918 18.7051 33.9119 18.0585 32.4223 18.576C29.5606 19.1896 30.7042 22.232 28.6983 22.1776C27.3586 21.7294 27.6211 18.7964 28.0858 16.4746Z" fill="#C4C4C4"/>
<path d="M30.2997 26.864C30.5807 20.8166 39.8481 23.4147 39.8481 23.4147C44.3241 24.9696 46.1048 30.8713 46.1048 30.8713C46.1048 30.8713 43.4113 26.5447 39.9677 25.7871C39.9677 25.7871 33.5245 24.0618 37.1397 30.5475C38.2196 32.1799 41.9465 35.8668 42.5743 39.6694C42.9292 44.623 43.0893 46.5872 40.7225 48.7024C38.0784 50.2496 33.8502 51.0304 32.2196 47.9303C30.624 44.3159 32.2288 42.6201 32.5026 40.9623C32.7577 35.5004 30.9643 34.7831 30.2997 26.864Z" fill="#C4C4C4"/>
</g>
<defs>
<clipPath id="clip0_48_63">
<rect width="84" height="76.8653" fill="white"/>
</clipPath>
</defs>
</svg>
