<?xml version="1.0" encoding="UTF-8" standalone="no"?>
<!-- Created with Inkscape (http://www.inkscape.org/) -->

<svg
   width="164.53117mm"
   height="164.53117mm"
   viewBox="0 0 164.53117 164.53117"
   version="1.1"
   id="svg5"
   inkscape:version="1.1.2 (0a00cf5339, 2022-02-04)"
   sodipodi:docname="nuxt.svg"
   xmlns:inkscape="http://www.inkscape.org/namespaces/inkscape"
   xmlns:sodipodi="http://sodipodi.sourceforge.net/DTD/sodipodi-0.dtd"
   xmlns="http://www.w3.org/2000/svg"
   xmlns:svg="http://www.w3.org/2000/svg">
  <sodipodi:namedview
     id="namedview7"
     pagecolor="#505050"
     bordercolor="#eeeeee"
     borderopacity="1"
     inkscape:pageshadow="0"
     inkscape:pageopacity="0"
     inkscape:pagecheckerboard="0"
     inkscape:document-units="mm"
     showgrid="false"
     inkscape:showpageshadow="false"
     showborder="false"
     fit-margin-top="0"
     fit-margin-left="0"
     fit-margin-right="0"
     fit-margin-bottom="0"
     inkscape:zoom="0.93859299"
     inkscape:cx="246.64578"
     inkscape:cy="344.13213"
     inkscape:window-width="1880"
     inkscape:window-height="1021"
     inkscape:window-x="1940"
     inkscape:window-y="20"
     inkscape:window-maximized="1"
     inkscape:current-layer="layer1" />
  <defs
     id="defs2" />
  <g
     inkscape:label="Layer 1"
     inkscape:groupmode="layer"
     id="layer1"
     transform="translate(-40.301964,-16.028473)">
    <circle
       style="fill:#c4c4c4;fill-opacity:1;stroke:none;stroke-width:2.565;paint-order:stroke fill markers"
       id="path846"
       cx="122.56755"
       cy="98.29406"
       r="82.265587" />
    <g
       fill="none"
       fill-rule="nonzero"
       id="g1173"
       transform="matrix(0.28315044,0,0,0.28315044,66.046527,56.066283)"
       style="fill:#ffffff;fill-opacity:1;stroke:none;stroke-width:0.934427;stroke-opacity:1">
      <path
         fill="#00c58e"
         d="m 227.92099,82.07407 -13.6889,23.7037 L 167.41729,24.69136 23.7037,273.58025 h 97.3037 c 0,13.0912 10.61252,23.7037 23.70371,23.7037 H 23.70371 c -8.46771,0 -16.29145,-4.52017 -20.5246,-11.85382 -4.23315,-7.33366 -4.23272,-16.36849 0.00114,-23.70174 L 146.89383,12.83951 c 4.23415,-7.33433 12.0596,-11.85252 20.5284,-11.85252 8.46878,0 16.29423,4.51819 20.52839,11.85252 z"
         id="path1167"
         style="fill:#ffffff;fill-opacity:1;stroke:none;stroke-width:0.934427;stroke-opacity:1" />
      <path
         fill="#2f495e"
         d="m 331.6642,261.7284 -90.05432,-155.95062 -13.6889,-23.7037 -13.68888,23.7037 -90.04445,155.95061 c -4.23385,7.33325 -4.23428,16.36808 -0.001,23.70174 4.23314,7.33365 12.05689,11.85382 20.5246,11.85382 h 166.4 c 8.46946,0 16.29644,-4.51525 20.532,-11.84955 4.23555,-7.3343 4.23606,-16.37123 10e-4,-23.706 z m -186.9531,11.85184 83.2099,-144.09876 83.19012,144.09877 h -166.4 z"
         id="path1169"
         style="fill:#ffffff;fill-opacity:1;stroke:none;stroke-width:0.934427;stroke-opacity:1" />
      <path
         fill="#108775"
         d="m 396.04938,285.4321 c -4.23344,7.33254 -12.05656,11.85185 -20.52345,11.85185 H 311.1111 c 13.0912,0 23.7037,-10.6125 23.7037,-23.7037 h 40.66173 L 260.09877,73.74815 241.60987,105.77778 227.92099,82.07408 239.5753,61.8963 c 4.23416,-7.33433 12.0596,-11.85252 20.5284,-11.85252 8.46879,0 16.29423,4.51819 20.52839,11.85252 l 115.41728,199.8321 c 4.23426,7.33395 4.23426,16.36975 0,23.7037 z"
         id="path1171"
         style="fill:#ffffff;fill-opacity:1;stroke:none;stroke-width:0.934427;stroke-opacity:1" />
    </g>
  </g>
</svg>
