<?xml version="1.0" encoding="UTF-8" standalone="no"?>
<!-- Created with Inkscape (http://www.inkscape.org/) -->

<svg
   width="1295.1754mm"
   height="322.242mm"
   viewBox="0 0 1295.1754 322.24201"
   version="1.1"
   id="svg5"
   inkscape:version="1.1.2 (0a00cf5339, 2022-02-04)"
   sodipodi:docname="405.svg"
   xmlns:inkscape="http://www.inkscape.org/namespaces/inkscape"
   xmlns:sodipodi="http://sodipodi.sourceforge.net/DTD/sodipodi-0.dtd"
   xmlns="http://www.w3.org/2000/svg"
   xmlns:svg="http://www.w3.org/2000/svg">
  <sodipodi:namedview
     id="namedview7"
     pagecolor="#ffffff"
     bordercolor="#eeeeee"
     borderopacity="1"
     inkscape:pageshadow="0"
     inkscape:pageopacity="0"
     inkscape:pagecheckerboard="0"
     inkscape:document-units="mm"
     showgrid="false"
     showborder="false"
     inkscape:object-nodes="false"
     inkscape:snap-nodes="true"
     inkscape:snap-midpoints="true"
     inkscape:object-paths="false"
     inkscape:zoom="0.1767767"
     inkscape:cx="2293.8543"
     inkscape:cy="1120.0571"
     inkscape:window-width="1880"
     inkscape:window-height="1021"
     inkscape:window-x="1940"
     inkscape:window-y="20"
     inkscape:window-maximized="1"
     inkscape:current-layer="layer1"
     fit-margin-top="0"
     fit-margin-left="0"
     fit-margin-right="0"
     fit-margin-bottom="0" />
  <defs
     id="defs2">
    <inkscape:path-effect
       effect="fillet_chamfer"
       id="path-effect38267"
       is_visible="true"
       lpeversion="1"
       satellites_param="F,0,0,1,0,2.130623,0,1 @ F,0,0,1,0,2.0865114,0,1 @ F,0,0,1,0,2.9674919,0,1 @ F,0,0,1,0,0,0,1 @ F,0,0,1,0,3.2405027,0,1"
       unit="px"
       method="auto"
       mode="F"
       radius="0"
       chamfer_steps="1"
       flexible="false"
       use_knot_distance="true"
       apply_no_radius="true"
       apply_with_radius="true"
       only_selected="false"
       hide_knots="false" />
    <inkscape:path-effect
       effect="fillet_chamfer"
       id="path-effect37919"
       is_visible="true"
       lpeversion="1"
       satellites_param="F,0,0,1,0,0,0,1 @ F,0,0,1,0,6.5257484,0,1 @ F,0,0,1,0,0,0,1"
       unit="px"
       method="auto"
       mode="F"
       radius="0"
       chamfer_steps="1"
       flexible="false"
       use_knot_distance="true"
       apply_no_radius="true"
       apply_with_radius="true"
       only_selected="false"
       hide_knots="false" />
    <inkscape:path-effect
       effect="fillet_chamfer"
       id="path-effect37461"
       is_visible="true"
       lpeversion="1"
       satellites_param="F,0,0,1,0,2.7451248,0,1 @ F,0,0,1,0,3.0036442,0,1 @ F,0,0,1,0,3.0132205,0,1 @ F,0,0,1,0,7.6349406,0,1"
       unit="px"
       method="auto"
       mode="F"
       radius="0"
       chamfer_steps="1"
       flexible="false"
       use_knot_distance="true"
       apply_no_radius="true"
       apply_with_radius="true"
       only_selected="false"
       hide_knots="false" />
  </defs>
  <g
     inkscape:label="Layer 1"
     inkscape:groupmode="layer"
     id="layer1"
     transform="translate(946.2693,73.826275)">
    <path
       id="rect846"
       style="fill:#314c92;stroke-width:10.7;paint-order:stroke fill markers"
       transform="scale(1,-1)"
       d="m 216.0538,-236.38167 h 47.93168 c 2.34034,0 4.22444,1.8841 4.22444,4.22444 v 15.00183 c 0,2.34033 -1.8841,4.22443 -4.22444,4.22443 H 216.0538 c -2.34034,0 -4.22444,-1.8841 -4.22444,-4.22443 v -15.00183 c 0,-2.34034 1.8841,-4.22444 4.22444,-4.22444 z" />
    <path
       id="rect846-3"
       style="fill:#314c92;stroke-width:10.7;paint-order:stroke fill markers"
       transform="scale(1,-1)"
       d="m 229.03575,-213.46016 h 21.96778 V 30.083649 h -21.96778 z" />
    <path
       id="rect846-3-7"
       style="fill:#314c92;stroke-width:10.7;paint-order:stroke fill markers"
       d="m 229.03575,-30.083649 h 21.96778 v -42.821648 h -4.72419 z"
       sodipodi:nodetypes="ccccc" />
    <path
       id="rect846-3-6"
       style="fill:#314c92;stroke-width:10.7;paint-order:stroke fill markers"
       d="m 348.90613,-29.541036 v -7.220398 a 3.0036442,3.0036442 45 0 0 -3.00364,-3.003644 H 73.088873 a 18.331288,18.331288 170.66543 0 0 -5.867893,0.96454 l -28.295948,9.560662 a 1.2549996,1.2549996 80.665434 0 0 0.401729,2.443965 H 346.16101 a 2.7451248,2.7451248 135 0 0 2.74512,-2.745125 z"
       sodipodi:nodetypes="ccccc" />
    <path
       id="rect1789"
       style="fill:#314c92;stroke-width:10.7;paint-order:stroke fill markers"
       d="m 327.50268,-28.922523 h 6.40466 c 1.17185,0 2.11526,0.943404 2.11526,2.115257 v 11.123659 c 0,1.171852 -0.94341,2.115257 -2.11526,2.115257 h -6.40466 c -1.17185,0 -2.11526,-0.943405 -2.11526,-2.115257 v -11.123659 c 0,-1.171853 0.94341,-2.115257 2.11526,-2.115257 z" />
    <path
       style="fill:none;stroke:#314c92;stroke-width:2.565;stroke-linecap:butt;stroke-linejoin:miter;stroke-miterlimit:4;stroke-dasharray:none;stroke-opacity:1"
       d="m 347.36992,-37.884098 -94.86505,-33.48706 a 20.563358,20.563358 1.8361181 0 0 -12.43371,-0.398591 l -119.98405,33.885651"
       id="path2413" />
    <path
       style="fill:none;stroke:#314c92;stroke-width:2.565;stroke-linecap:butt;stroke-linejoin:miter;stroke-miterlimit:4;stroke-dasharray:none;stroke-opacity:1"
       d="M 97.933038,-26.79591 V 105.46"
       id="path2692" />
    <path
       id="rect2814"
       style="fill:#314c92;stroke:#314c92;stroke-width:2.565;paint-order:stroke fill markers"
       d="m 94.614639,102.53176 h 6.680921 a 2.0865114,2.0865114 45 0 1 2.08651,2.08651 v 3.90255 a 5.8081343,5.8081343 117.0634 0 1 -2.40461,4.70642 l -3.213582,2.32396 -2.711705,-2.08668 a 6.5824573,6.5824573 63.789264 0 1 -2.568157,-5.21671 v -3.58543 a 2.130623,2.130623 135 0 1 2.130623,-2.13062 z"
       sodipodi:nodetypes="cccccc" />
    <g
       aria-label="n"
       transform="rotate(20.802728)"
       id="text6129"
       style="font-size:58.8943px;line-height:1.05;font-family:Roboto;-inkscape-font-specification:Roboto;letter-spacing:0px;fill:#314c92;fill-opacity:1;stroke-width:0.264583">
      <path
         d="m 124.88159,78.040234 0.25881,3.594623 q 3.33581,-4.169762 8.94342,-4.169762 4.9462,0 7.36179,2.904455 2.41559,2.904455 2.4731,8.684608 v 20.101132 h -8.31077 V 89.255457 q 0,-2.645642 -1.15028,-3.824678 -1.15028,-1.207793 -3.82467,-1.207793 -3.50836,0 -5.26253,2.990726 v 21.941578 h -8.31077 V 78.040234 Z"
         style="font-weight:bold;-inkscape-font-specification:'Roboto Bold';fill:#314c92;fill-opacity:1"
         id="path36847" />
    </g>
    <g
       id="text8061"
       style="font-size:10.5833px;line-height:1.25;letter-spacing:0px;stroke-width:0.264583" />
    <path
       style="fill:none;stroke:#314c92;stroke-width:2.565;stroke-linecap:butt;stroke-linejoin:miter;stroke-miterlimit:4;stroke-dasharray:none;stroke-opacity:1"
       d="m 96.712596,112.09023 c 3.007087,8.95742 0.856903,12.06289 -4.567605,10.66167"
       id="path36959"
       sodipodi:nodetypes="cc" />
    <g
       aria-label="This page is currently under constructio"
       id="text44708"
       style="font-size:56.4444px;line-height:1.25;letter-spacing:0px;fill:#314c92;stroke:#314c92;stroke-width:0.264583">
      <path
         d="m -913.44997,202.80821 h -12.29209 v 33.43119 h -8.26822 v -33.43119 h -12.12673 v -6.69726 h 32.68704 z"
         style="font-weight:bold;font-family:Roboto;-inkscape-font-specification:'Roboto Bold'"
         id="path848" />
      <path
         d="m -901.48861,209.67084 q 3.16949,-3.80338 7.96506,-3.80338 9.70138,0 9.83918,11.27234 v 19.0996 h -7.96505 v -18.87911 q 0,-2.56315 -1.10243,-3.77583 -1.10243,-1.24023 -3.66558,-1.24023 -3.50022,0 -5.07118,2.70095 v 21.19422 h -7.96505 v -42.33331 h 7.96505 z"
         style="font-weight:bold;font-family:Roboto;-inkscape-font-specification:'Roboto Bold'"
         id="path850" />
      <path
         d="m -869.2701,236.2394 h -7.99261 v -29.82073 h 7.99261 z m -8.46115,-37.53774 q 0,-1.79144 1.18512,-2.949 1.21267,-1.15755 3.27972,-1.15755 2.0395,0 3.25217,1.15755 1.21267,1.15756 1.21267,2.949 0,1.81901 -1.24023,2.97656 -1.21267,1.15756 -3.22461,1.15756 -2.01193,0 -3.25216,-1.15756 -1.21268,-1.15755 -1.21268,-2.97656 z"
         style="font-weight:bold;font-family:Roboto;-inkscape-font-specification:'Roboto Bold'"
         id="path852" />
      <path
         d="m -846.56004,227.99873 q 0,-1.46072 -1.46072,-2.28754 -1.43316,-0.85438 -4.63021,-1.51584 -10.63845,-2.23242 -10.63845,-9.03992 0,-3.96875 3.27973,-6.61458 3.30729,-2.67339 8.62652,-2.67339 5.67751,0 9.06748,2.67339 3.41753,2.67339 3.41753,6.94531 h -7.96505 q 0,-1.70877 -1.10243,-2.8112 -1.10243,-1.12999 -3.4451,-1.12999 -2.01193,0 -3.11436,0.9095 -1.10243,0.90951 -1.10243,2.31511 0,1.32291 1.24023,2.14973 1.2678,0.79927 4.24436,1.4056 2.97656,0.57878 5.01605,1.32292 6.31141,2.3151 6.31141,8.02017 0,4.07899 -3.50021,6.61458 -3.50021,2.50803 -9.03992,2.50803 -3.74826,0 -6.6697,-1.32292 -2.89388,-1.35047 -4.54753,-3.66557 -1.65364,-2.34267 -1.65364,-5.04362 h 7.55164 q 0.11025,2.12218 1.57097,3.25217 1.46071,1.12999 3.91362,1.12999 2.28754,0 3.44509,-0.85439 1.18512,-0.88194 1.18512,-2.28754 z"
         style="font-weight:bold;font-family:Roboto;-inkscape-font-specification:'Roboto Bold'"
         id="path854" />
      <path
         d="m -792.78904,221.60464 q 0,6.89019 -3.14192,11.05186 -3.11437,4.13411 -8.43359,4.13411 -4.51996,0 -7.3036,-3.14192 v 14.05597 h -7.96505 v -41.28599 h 7.38628 l 0.27561,2.92144 q 2.89387,-3.47265 7.55164,-3.47265 5.51215,0 8.57139,4.07899 3.05924,4.07899 3.05924,11.24478 z m -7.96505,-0.57877 q 0,-4.16168 -1.48828,-6.42166 -1.46072,-2.25998 -4.27192,-2.25998 -3.74826,0 -5.15386,2.86632 v 12.20941 q 1.46072,2.949 5.20898,2.949 5.70508,0 5.70508,-9.34309 z"
         style="font-weight:bold;font-family:Roboto;-inkscape-font-specification:'Roboto Bold'"
         id="path856" />
      <path
         d="m -770.57507,236.2394 q -0.55122,-1.07487 -0.79927,-2.6734 -2.89387,3.22461 -7.52408,3.22461 -4.38216,0 -7.27603,-2.53559 -2.86632,-2.53559 -2.86632,-6.39409 0,-4.74045 3.50021,-7.27604 3.52778,-2.53558 10.16992,-2.56315 h 3.66558 v -1.70876 q 0,-2.06706 -1.07487,-3.30729 -1.04731,-1.24023 -3.33485,-1.24023 -2.01194,0 -3.16949,0.96462 -1.12999,0.96463 -1.12999,2.64583 h -7.96505 q 0,-2.59071 1.59852,-4.79557 1.59852,-2.20486 4.51996,-3.44509 2.92144,-1.26779 6.55946,-1.26779 5.51215,0 8.73675,2.78363 3.25217,2.75608 3.25217,7.77213 v 12.92599 q 0.0276,4.24435 1.18511,6.42165 v 0.46854 z m -6.58702,-5.53971 q 1.76389,0 3.25217,-0.7717 1.48828,-0.79927 2.20486,-2.12218 v -5.1263 h -2.97656 q -5.98069,0 -6.36654,4.13411 l -0.0276,0.46853 q 0,1.48828 1.04731,2.45291 1.04731,0.96463 2.86632,0.96463 z"
         style="font-weight:bold;font-family:Roboto;-inkscape-font-specification:'Roboto Bold'"
         id="path858" />
      <path
         d="m -758.75152,221.10855 q 0,-6.86263 3.25217,-11.05186 3.27972,-4.18923 8.81943,-4.18923 4.90582,0 7.63433,3.36241 l 0.33073,-2.8112 h 7.22091 v 28.82854 q 0,3.91362 -1.79145,6.8075 -1.76388,2.89388 -4.98849,4.40972 -3.22461,1.51584 -7.55164,1.51584 -3.27973,0 -6.3941,-1.32291 -3.11436,-1.29536 -4.71288,-3.36241 l 3.52777,-4.8507 q 2.97656,3.33485 7.22092,3.33485 3.16948,0 4.93337,-1.70876 1.76389,-1.68121 1.76389,-4.79557 v -1.59852 q -2.75608,3.11436 -7.24848,3.11436 -5.37434,0 -8.70919,-4.18923 -3.30729,-4.2168 -3.30729,-11.1621 z m 7.96505,0.57877 q 0,4.05143 1.62609,6.36653 1.62608,2.28755 4.46484,2.28755 3.63801,0 5.20898,-2.72852 v -12.54014 q -1.59853,-2.72851 -5.15386,-2.72851 -2.86632,0 -4.51996,2.34266 -1.62609,2.34267 -1.62609,7.00043 z"
         style="font-weight:bold;font-family:Roboto;-inkscape-font-specification:'Roboto Bold'"
         id="path860" />
      <path
         d="m -711.65022,236.79061 q -6.55945,0 -10.69356,-4.02387 -4.10655,-4.02387 -4.10655,-10.72113 v -0.7717 q 0,-4.4924 1.73632,-8.02017 1.73633,-3.55534 4.90581,-5.45703 3.19705,-1.92925 7.27604,-1.92925 6.11849,0 9.6187,3.8585 3.52778,3.8585 3.52778,10.94162 v 3.25216 h -18.98936 q 0.38585,2.92144 2.31511,4.68533 1.95681,1.76389 4.93337,1.76389 4.60264,0 7.19335,-3.33485 l 3.91363,4.38216 q -1.79145,2.53558 -4.85069,3.96874 -3.05925,1.4056 -6.77995,1.4056 z m -0.9095,-24.47394 q -2.37022,0 -3.8585,1.59852 -1.46072,1.59853 -1.87413,4.57509 h 11.07941 v -0.6339 q -0.0551,-2.64583 -1.43315,-4.07899 -1.37804,-1.46072 -3.91363,-1.46072 z"
         style="font-weight:bold;font-family:Roboto;-inkscape-font-specification:'Roboto Bold'"
         id="path862" />
      <path
         d="m -672.40372,236.2394 h -7.99261 v -29.82073 h 7.99261 z m -8.46115,-37.53774 q 0,-1.79144 1.18511,-2.949 1.21268,-1.15755 3.27973,-1.15755 2.0395,0 3.25217,1.15755 1.21267,1.15756 1.21267,2.949 0,1.81901 -1.24023,2.97656 -1.21267,1.15756 -3.22461,1.15756 -2.01193,0 -3.25216,-1.15756 -1.21268,-1.15755 -1.21268,-2.97656 z"
         style="font-weight:bold;font-family:Roboto;-inkscape-font-specification:'Roboto Bold'"
         id="path864" />
      <path
         d="m -649.69367,227.99873 q 0,-1.46072 -1.46072,-2.28754 -1.43315,-0.85438 -4.6302,-1.51584 -10.63845,-2.23242 -10.63845,-9.03992 0,-3.96875 3.27973,-6.61458 3.30729,-2.67339 8.62651,-2.67339 5.67752,0 9.06749,2.67339 3.41753,2.67339 3.41753,6.94531 h -7.96505 q 0,-1.70877 -1.10243,-2.8112 -1.10243,-1.12999 -3.4451,-1.12999 -2.01193,0 -3.11436,0.9095 -1.10243,0.90951 -1.10243,2.31511 0,1.32291 1.24023,2.14973 1.2678,0.79927 4.24436,1.4056 2.97656,0.57878 5.01605,1.32292 6.31141,2.3151 6.31141,8.02017 0,4.07899 -3.50021,6.61458 -3.50022,2.50803 -9.03993,2.50803 -3.74826,0 -6.66969,-1.32292 -2.89388,-1.35047 -4.54753,-3.66557 -1.65364,-2.34267 -1.65364,-5.04362 h 7.55164 q 0.11024,2.12218 1.57096,3.25217 1.46072,1.12999 3.91363,1.12999 2.28754,0 3.44509,-0.85439 1.18511,-0.88194 1.18511,-2.28754 z"
         style="font-weight:bold;font-family:Roboto;-inkscape-font-specification:'Roboto Bold'"
         id="path866" />
      <path
         d="m -610.36447,230.36896 q 2.20486,0 3.58289,-1.21268 1.37804,-1.21267 1.43316,-3.2246 h 7.46896 q -0.0276,3.03168 -1.65364,5.56727 -1.62609,2.50802 -4.46484,3.91362 -2.8112,1.37804 -6.22873,1.37804 -6.39409,0 -10.08723,-4.05143 -3.69314,-4.07899 -3.69314,-11.24478 v -0.52366 q 0,-6.89018 3.66558,-10.99673 3.66558,-4.10655 10.05967,-4.10655 5.59483,0 8.95724,3.19704 3.38997,3.16949 3.44509,8.46115 h -7.46896 q -0.0551,-2.3151 -1.43316,-3.74826 -1.37803,-1.46072 -3.63801,-1.46072 -2.78364,0 -4.2168,2.0395 -1.4056,2.01193 -1.4056,6.55945 v 0.82682 q 0,4.60265 1.4056,6.61458 1.4056,2.01194 4.27192,2.01194 z"
         style="font-weight:bold;font-family:Roboto;-inkscape-font-specification:'Roboto Bold'"
         id="path868" />
      <path
         d="m -575.47257,233.20771 q -2.949,3.5829 -8.15798,3.5829 -4.79557,0 -7.33116,-2.75607 -2.50803,-2.75608 -2.56315,-8.0753 v -19.54057 h 7.96506 v 19.26496 q 0,4.65777 4.24435,4.65777 4.05143,0 5.56727,-2.8112 v -21.11153 h 7.99262 v 29.82073 h -7.49652 z"
         style="font-weight:bold;font-family:Roboto;-inkscape-font-specification:'Roboto Bold'"
         id="path870" />
      <path
         d="m -544.99041,213.88763 q -1.62608,-0.22048 -2.86631,-0.22048 -4.51996,0 -5.92556,3.05924 v 19.51301 h -7.96506 v -29.82073 h 7.52409 l 0.22048,3.55534 q 2.39779,-4.10655 6.64214,-4.10655 1.32292,0 2.48047,0.35829 z"
         style="font-weight:bold;font-family:Roboto;-inkscape-font-specification:'Roboto Bold'"
         id="path872" />
      <path
         d="m -524.40252,213.88763 q -1.62608,-0.22048 -2.86631,-0.22048 -4.51996,0 -5.92556,3.05924 v 19.51301 h -7.96506 v -29.82073 h 7.52409 l 0.22048,3.55534 q 2.39779,-4.10655 6.64214,-4.10655 1.32292,0 2.48047,0.35829 z"
         style="font-weight:bold;font-family:Roboto;-inkscape-font-specification:'Roboto Bold'"
         id="path874" />
      <path
         d="m -507.36999,236.79061 q -6.55945,0 -10.69357,-4.02387 -4.10655,-4.02387 -4.10655,-10.72113 v -0.7717 q 0,-4.4924 1.73633,-8.02017 1.73633,-3.55534 4.90581,-5.45703 3.19705,-1.92925 7.27604,-1.92925 6.11848,0 9.6187,3.8585 3.52777,3.8585 3.52777,10.94162 v 3.25216 h -18.98935 q 0.38585,2.92144 2.3151,4.68533 1.95682,1.76389 4.93338,1.76389 4.60264,0 7.19335,-3.33485 l 3.91363,4.38216 q -1.79145,2.53558 -4.8507,3.96874 -3.05924,1.4056 -6.77994,1.4056 z m -0.9095,-24.47394 q -2.37023,0 -3.85851,1.59852 -1.46072,1.59853 -1.87413,4.57509 h 11.07942 v -0.6339 q -0.0551,-2.64583 -1.43316,-4.07899 -1.37803,-1.46072 -3.91362,-1.46072 z"
         style="font-weight:bold;font-family:Roboto;-inkscape-font-specification:'Roboto Bold'"
         id="path876" />
      <path
         d="m -483.25434,206.41867 0.24804,3.44509 q 3.19705,-3.9963 8.57139,-3.9963 4.74045,0 7.05555,2.78363 2.31511,2.78364 2.37023,8.32335 v 19.26496 h -7.96506 v -19.07204 q 0,-2.53559 -1.10243,-3.66558 -1.10243,-1.15755 -3.66558,-1.15755 -3.36241,0 -5.04361,2.86632 v 21.02885 h -7.96506 v -29.82073 z"
         style="font-weight:bold;font-family:Roboto;-inkscape-font-specification:'Roboto Bold'"
         id="path878" />
      <path
         d="m -449.4373,199.08751 v 7.33116 h 5.09873 v 5.84288 h -5.09873 v 14.8828 q 0,1.65364 0.63389,2.37022 0.6339,0.71658 2.42535,0.71658 1.32292,0 2.34266,-0.19292 v 6.0358 q -2.34266,0.71658 -4.82313,0.71658 -8.37846,0 -8.54383,-8.46115 v -16.06791 h -4.35459 v -5.84288 h 4.35459 v -7.33116 z"
         style="font-weight:bold;font-family:Roboto;-inkscape-font-specification:'Roboto Bold'"
         id="path880" />
      <path
         d="m -431.49527,236.2394 h -7.99262 v -42.33331 h 7.99262 z"
         style="font-weight:bold;font-family:Roboto;-inkscape-font-specification:'Roboto Bold'"
         id="path882" />
      <path
         d="m -413.80127,224.96705 5.51214,-18.54838 h 8.54383 l -11.98892,34.45093 -0.66146,1.57096 q -2.67339,5.84288 -8.81943,5.84288 -1.73633,0 -3.52778,-0.52365 v -6.03581 l 1.21267,0.0276 q 2.25999,0 3.36241,-0.68901 1.13,-0.68902 1.76389,-2.28755 l 0.93707,-2.4529 -10.44552,-29.90341 h 8.57139 z"
         style="font-weight:bold;font-family:Roboto;-inkscape-font-specification:'Roboto Bold'"
         id="path884" />
      <path
         d="m -364.68802,233.20771 q -2.949,3.5829 -8.15798,3.5829 -4.79557,0 -7.33116,-2.75607 -2.50803,-2.75608 -2.56315,-8.0753 v -19.54057 h 7.96505 v 19.26496 q 0,4.65777 4.24436,4.65777 4.05143,0 5.56727,-2.8112 v -21.11153 h 7.99261 v 29.82073 h -7.49652 z"
         style="font-weight:bold;font-family:Roboto;-inkscape-font-specification:'Roboto Bold'"
         id="path886" />
      <path
         d="m -343.63163,206.41867 0.24804,3.44509 q 3.19705,-3.9963 8.57139,-3.9963 4.74045,0 7.05555,2.78363 2.31511,2.78364 2.37023,8.32335 v 19.26496 h -7.96506 v -19.07204 q 0,-2.53559 -1.10243,-3.66558 -1.10243,-1.15755 -3.66558,-1.15755 -3.36241,0 -5.04361,2.86632 v 21.02885 h -7.96506 v -29.82073 z"
         style="font-weight:bold;font-family:Roboto;-inkscape-font-specification:'Roboto Bold'"
         id="path888" />
      <path
         d="m -320.59084,221.10855 q 0,-6.97287 3.11436,-11.10698 3.14193,-4.13411 8.57139,-4.13411 4.3546,0 7.19336,3.25216 v -15.21353 h 7.99261 v 42.33331 h -7.19335 l -0.38585,-3.16949 q -2.97656,3.7207 -7.66189,3.7207 -5.2641,0 -8.46115,-4.13411 -3.16948,-4.16167 -3.16948,-11.54795 z m 7.96505,0.57877 q 0,4.18924 1.46072,6.42166 1.46072,2.23242 4.24436,2.23242 3.69314,0 5.20898,-3.11437 V 215.4586 q -1.48828,-3.11437 -5.15386,-3.11437 -5.7602,0 -5.7602,9.34309 z"
         style="font-weight:bold;font-family:Roboto;-inkscape-font-specification:'Roboto Bold'"
         id="path890" />
      <path
         d="m -273.82024,236.79061 q -6.55946,0 -10.69357,-4.02387 -4.10655,-4.02387 -4.10655,-10.72113 v -0.7717 q 0,-4.4924 1.73632,-8.02017 1.73633,-3.55534 4.90582,-5.45703 3.19704,-1.92925 7.27603,-1.92925 6.11849,0 9.6187,3.8585 3.52778,3.8585 3.52778,10.94162 v 3.25216 h -18.98936 q 0.38586,2.92144 2.31511,4.68533 1.95681,1.76389 4.93337,1.76389 4.60264,0 7.19335,-3.33485 l 3.91363,4.38216 q -1.79145,2.53558 -4.85069,3.96874 -3.05924,1.4056 -6.77994,1.4056 z m -0.90951,-24.47394 q -2.37022,0 -3.8585,1.59852 -1.46072,1.59853 -1.87413,4.57509 h 11.07942 v -0.6339 q -0.0551,-2.64583 -1.43316,-4.07899 -1.37804,-1.46072 -3.91363,-1.46072 z"
         style="font-weight:bold;font-family:Roboto;-inkscape-font-specification:'Roboto Bold'"
         id="path892" />
      <path
         d="m -240.2788,213.88763 q -1.62608,-0.22048 -2.86631,-0.22048 -4.51997,0 -5.92556,3.05924 v 19.51301 h -7.96506 v -29.82073 h 7.52408 l 0.22049,3.55534 q 2.39778,-4.10655 6.64214,-4.10655 1.32291,0 2.48047,0.35829 z"
         style="font-weight:bold;font-family:Roboto;-inkscape-font-specification:'Roboto Bold'"
         id="path894" />
      <path
         d="m -209.9896,230.36896 q 2.20486,0 3.5829,-1.21268 1.37804,-1.21267 1.43316,-3.2246 h 7.46896 q -0.0276,3.03168 -1.65364,5.56727 -1.62609,2.50802 -4.46484,3.91362 -2.8112,1.37804 -6.22873,1.37804 -6.39409,0 -10.08723,-4.05143 -3.69314,-4.07899 -3.69314,-11.24478 v -0.52366 q 0,-6.89018 3.66558,-10.99673 3.66557,-4.10655 10.05967,-4.10655 5.59483,0 8.95724,3.19704 3.38997,3.16949 3.44509,8.46115 h -7.46896 q -0.0551,-2.3151 -1.43316,-3.74826 -1.37804,-1.46072 -3.63802,-1.46072 -2.78363,0 -4.21679,2.0395 -1.4056,2.01193 -1.4056,6.55945 v 0.82682 q 0,4.60265 1.4056,6.61458 1.4056,2.01194 4.27191,2.01194 z"
         style="font-weight:bold;font-family:Roboto;-inkscape-font-specification:'Roboto Bold'"
         id="path896" />
      <path
         d="m -194.19729,221.05343 q 0,-4.43728 1.70877,-7.90994 1.70876,-3.47265 4.90581,-5.37434 3.22461,-1.90169 7.46896,-1.90169 6.0358,0 9.83919,3.69314 3.83094,3.69314 4.27191,10.03211 l 0.0551,2.03949 q 0,6.86263 -3.83094,11.0243 -3.83094,4.13411 -10.28016,4.13411 -6.44921,0 -10.30771,-4.13411 -3.83095,-4.13411 -3.83095,-11.24478 z m 7.96506,0.57877 q 0,4.24436 1.59852,6.50434 1.59852,2.23242 4.57508,2.23242 2.89388,0 4.51997,-2.20486 1.62608,-2.23242 1.62608,-7.11067 0,-4.16168 -1.62608,-6.44922 -1.62609,-2.28754 -4.57509,-2.28754 -2.92144,0 -4.51996,2.28754 -1.59852,2.25998 -1.59852,7.02799 z"
         style="font-weight:bold;font-family:Roboto;-inkscape-font-specification:'Roboto Bold'"
         id="path898" />
      <path
         d="m -153.71055,206.41867 0.24804,3.44509 q 3.19705,-3.9963 8.5714,-3.9963 4.74044,0 7.05555,2.78363 2.3151,2.78364 2.37022,8.32335 v 19.26496 h -7.96506 v -19.07204 q 0,-2.53559 -1.10242,-3.66558 -1.10243,-1.15755 -3.66558,-1.15755 -3.36241,0 -5.04362,2.86632 v 21.02885 h -7.96505 v -29.82073 z"
         style="font-weight:bold;font-family:Roboto;-inkscape-font-specification:'Roboto Bold'"
         id="path900" />
      <path
         d="m -113.27893,227.99873 q 0,-1.46072 -1.46072,-2.28754 -1.43316,-0.85438 -4.63021,-1.51584 -10.63844,-2.23242 -10.63844,-9.03992 0,-3.96875 3.27973,-6.61458 3.30728,-2.67339 8.62651,-2.67339 5.67751,0 9.06748,2.67339 3.41753,2.67339 3.41753,6.94531 h -7.96505 q 0,-1.70877 -1.10243,-2.8112 -1.10243,-1.12999 -3.44509,-1.12999 -2.01194,0 -3.11437,0.9095 -1.10243,0.90951 -1.10243,2.31511 0,1.32291 1.24024,2.14973 1.26779,0.79927 4.24435,1.4056 2.97656,0.57878 5.01606,1.32292 6.31141,2.3151 6.31141,8.02017 0,4.07899 -3.50022,6.61458 -3.50021,2.50803 -9.03992,2.50803 -3.74826,0 -6.6697,-1.32292 -2.89388,-1.35047 -4.54752,-3.66557 -1.65365,-2.34267 -1.65365,-5.04362 h 7.55165 q 0.11024,2.12218 1.57096,3.25217 1.46072,1.12999 3.91362,1.12999 2.28754,0 3.4451,-0.85439 1.18511,-0.88194 1.18511,-2.28754 z"
         style="font-weight:bold;font-family:Roboto;-inkscape-font-specification:'Roboto Bold'"
         id="path902" />
      <path
         d="m -90.872026,199.08751 v 7.33116 h 5.098738 v 5.84288 h -5.098738 v 14.8828 q 0,1.65364 0.633897,2.37022 0.633897,0.71658 2.425346,0.71658 1.322915,0 2.342663,-0.19292 v 6.0358 q -2.342663,0.71658 -4.82313,0.71658 -8.378466,0 -8.54383,-8.46115 v -16.06791 h -4.3546 v -5.84288 h 4.3546 v -7.33116 z"
         style="font-weight:bold;font-family:Roboto;-inkscape-font-specification:'Roboto Bold'"
         id="path904" />
      <path
         d="m -64.57909,213.88763 q -1.626084,-0.22048 -2.866317,-0.22048 -4.519962,0 -5.92556,3.05924 v 19.51301 h -7.965054 v -29.82073 h 7.524082 l 0.220486,3.55534 q 2.397785,-4.10655 6.642139,-4.10655 1.322916,0 2.480467,0.35829 z"
         style="font-weight:bold;font-family:Roboto;-inkscape-font-specification:'Roboto Bold'"
         id="path906" />
      <path
         d="m -42.888769,233.20771 q -2.949,3.5829 -8.15798,3.5829 -4.795569,0 -7.331158,-2.75607 -2.508027,-2.75608 -2.563149,-8.0753 v -19.54057 h 7.965055 v 19.26496 q 0,4.65777 4.244354,4.65777 4.051429,0 5.56727,-2.8112 v -21.11153 h 7.992615 v 29.82073 h -7.496521 z"
         style="font-weight:bold;font-family:Roboto;-inkscape-font-specification:'Roboto Bold'"
         id="path908" />
      <path
         d="m -16.761202,230.36896 q 2.20486,0 3.582897,-1.21268 1.378037,-1.21267 1.433158,-3.2246 h 7.4689616 q -0.027561,3.03168 -1.6536445,5.56727 -1.6260838,2.50802 -4.4648401,3.91362 -2.811196,1.37804 -6.228728,1.37804 -6.394092,0 -10.087232,-4.05143 -3.693139,-4.07899 -3.693139,-11.24478 v -0.52366 q 0,-6.89018 3.665578,-10.99673 3.665579,-4.10655 10.059671,-4.10655 5.594831,0 8.9572418,3.19704 3.3899714,3.16949 3.4450928,8.46115 h -7.4689616 q -0.05512,-2.3151 -1.433158,-3.74826 -1.378037,-1.46072 -3.638018,-1.46072 -2.783635,0 -4.216794,2.0395 -1.405598,2.01193 -1.405598,6.55945 v 0.82682 q 0,4.60265 1.405598,6.61458 1.405598,2.01194 4.271915,2.01194 z"
         style="font-weight:bold;font-family:Roboto;-inkscape-font-specification:'Roboto Bold'"
         id="path910" />
      <path
         d="m 9.8073565,199.08751 v 7.33116 h 5.0987375 v 5.84288 H 9.8073565 v 14.8828 q 0,1.65364 0.6338975,2.37022 0.633897,0.71658 2.425345,0.71658 1.322916,0 2.342663,-0.19292 v 6.0358 q -2.342663,0.71658 -4.82313,0.71658 -8.3784656,0 -8.5438301,-8.46115 v -16.06791 h -4.3545973 v -5.84288 h 4.3545973 v -7.33116 z"
         style="font-weight:bold;font-family:Roboto;-inkscape-font-specification:'Roboto Bold'"
         id="path912" />
      <path
         d="m 27.749388,236.2394 h -7.992616 v -29.82073 h 7.992616 z M 19.28824,198.70166 q 0,-1.79144 1.185112,-2.949 1.212672,-1.15755 3.279728,-1.15755 2.039495,0 3.252168,1.15755 1.212672,1.15756 1.212672,2.949 0,1.81901 -1.240233,2.97656 -1.212673,1.15756 -3.224607,1.15756 -2.011934,0 -3.252168,-1.15756 -1.212672,-1.15755 -1.212672,-2.97656 z"
         style="font-weight:bold;font-family:Roboto;-inkscape-font-specification:'Roboto Bold'"
         id="path914" />
      <path
         d="m 33.068643,221.05343 q 0,-4.43728 1.708766,-7.90994 1.708766,-3.47265 4.905812,-5.37434 3.224607,-1.90169 7.468961,-1.90169 6.035803,0 9.839185,3.69314 3.830944,3.69314 4.271915,10.03211 l 0.05512,2.03949 q 0,6.86263 -3.830943,11.0243 -3.830943,4.13411 -10.280157,4.13411 -6.449214,0 -10.307718,-4.13411 -3.830943,-4.13411 -3.830943,-11.24478 z m 7.965054,0.57877 q 0,4.24436 1.598523,6.50434 1.598524,2.23242 4.575084,2.23242 2.893878,0 4.519962,-2.20486 1.626083,-2.23242 1.626083,-7.11067 0,-4.16168 -1.626083,-6.44922 -1.626084,-2.28754 -4.575084,-2.28754 -2.921438,0 -4.519962,2.28754 -1.598523,2.25998 -1.598523,7.02799 z"
         style="font-weight:bold;font-family:Roboto;-inkscape-font-specification:'Roboto Bold'"
         id="path916" />
    </g>
    <g
       aria-label="405"
       id="text44708-3"
       style="font-size:211.667px;line-height:1.25;letter-spacing:0px;fill:#314c92;stroke:#314c92;stroke-width:0.264583">
      <path
         d="m -847.85201,110.67734 h 17.05325 v 24.08126 h -17.05325 v 32.5562 h -29.86903 v -32.5562 h -61.70176 l -1.34359,-18.81025 62.73529,-99.115559 h 30.17909 z m -63.14871,0 h 33.27968 V 57.553885 l -1.96371,3.41065 z"
         style="font-weight:bold;font-family:Roboto;-inkscape-font-specification:'Roboto Bold'"
         id="path841" />
      <path
         d="m -713.49307,105.09628 q 0,31.21261 -12.91913,47.7491 -12.91913,16.53648 -37.82721,16.53648 -24.59802,0 -37.62051,-16.22642 -13.02248,-16.22643 -13.33254,-46.50887 V 78.947963 q 0,-31.522675 13.02249,-47.852454 13.12583,-16.329779 37.72385,-16.329779 24.59802,0 37.62051,16.226426 13.02248,16.123073 13.33254,46.405511 z M -743.3621,74.710488 q 0,-18.706898 -5.16765,-27.181847 -5.0643,-8.578301 -15.91637,-8.578301 -10.54201,0 -15.60631,8.164889 -4.96094,8.061536 -5.271,25.321493 v 36.586968 q 0,18.39684 4.96095,27.38856 5.06429,8.88836 16.12307,8.88836 10.95542,0 15.81301,-8.5783 4.85759,-8.5783 5.0643,-26.25167 z"
         style="font-weight:bold;font-family:Roboto;-inkscape-font-specification:'Roboto Bold'"
         id="path843" />
      <path
         d="m -688.89505,93.314034 8.68165,-76.481243 h 84.33608 v 24.90808 h -59.84141 l -3.72071,32.349499 q 10.64536,-5.684417 22.63432,-5.684417 21.49743,0 33.69308,13.332541 12.19566,13.332541 12.19566,37.310446 0,14.57278 -6.20118,26.14832 -6.09783,11.47218 -17.57002,17.88007 -11.47218,6.30453 -27.07849,6.30453 -13.6426,0 -25.32149,-5.47771 -11.67889,-5.58106 -18.50019,-15.6063 -6.71795,-10.02525 -7.13136,-22.84102 h 29.55896 q 0.93018,9.40512 6.51124,14.67613 5.68442,5.16765 14.77949,5.16765 10.12859,0 15.6063,-7.23471 5.47772,-7.33807 5.47772,-20.67061 0,-12.81578 -6.30454,-19.637076 -6.30453,-6.8213 -17.88007,-6.8213 -10.64537,0 -17.25996,5.581064 l -2.89388,2.687179 z"
         style="font-weight:bold;font-family:Roboto;-inkscape-font-specification:'Roboto Bold'"
         id="path845" />
    </g>
  </g>
</svg>
