<?xml version="1.0" encoding="UTF-8" standalone="no"?>
<!-- Created with Inkscape (http://www.inkscape.org/) -->

<svg
   width="170.33041mm"
   height="170.33041mm"
   viewBox="0 0 170.33041 170.33041"
   version="1.1"
   id="svg5"
   inkscape:version="1.1 (c68e22c387, 2021-05-23)"
   sodipodi:docname="ReactNative.svg"
   xmlns:inkscape="http://www.inkscape.org/namespaces/inkscape"
   xmlns:sodipodi="http://sodipodi.sourceforge.net/DTD/sodipodi-0.dtd"
   xmlns:xlink="http://www.w3.org/1999/xlink"
   xmlns="http://www.w3.org/2000/svg"
   xmlns:svg="http://www.w3.org/2000/svg">
  <sodipodi:namedview
     id="namedview7"
     pagecolor="#505050"
     bordercolor="#eeeeee"
     borderopacity="1"
     inkscape:pageshadow="0"
     inkscape:pageopacity="0"
     inkscape:pagecheckerboard="0"
     inkscape:document-units="mm"
     showgrid="false"
     inkscape:zoom="0.94867184"
     inkscape:cx="191.84716"
     inkscape:cy="322.55622"
     inkscape:window-width="935"
     inkscape:window-height="1021"
     inkscape:window-x="2885"
     inkscape:window-y="20"
     inkscape:window-maximized="1"
     inkscape:current-layer="layer1"
     showguides="false"
     showborder="false"
     fit-margin-top="0"
     fit-margin-left="0"
     fit-margin-right="0"
     fit-margin-bottom="0" />
  <defs
     id="defs2">
    <linearGradient
       inkscape:collect="always"
       id="linearGradient31051">
      <stop
         style="stop-color:#000000;stop-opacity:1;"
         offset="0"
         id="stop31047" />
      <stop
         style="stop-color:#000000;stop-opacity:0;"
         offset="1"
         id="stop31049" />
    </linearGradient>
    <linearGradient
       inkscape:collect="always"
       xlink:href="#linearGradient31051"
       id="linearGradient31053"
       x1="68.449951"
       y1="191.30054"
       x2="156.27914"
       y2="191.30054"
       gradientUnits="userSpaceOnUse" />
  </defs>
  <g
     inkscape:label="Layer 1"
     inkscape:groupmode="layer"
     id="layer1"
     transform="translate(-24.724785,-64.573807)">
    <circle
       style="fill:#005866;fill-opacity:1;stroke:#00d7ff;stroke-width:16;stroke-linecap:round;stroke-linejoin:round;stroke-miterlimit:4;stroke-dasharray:none;stroke-opacity:1;paint-order:markers fill stroke"
       id="path846"
       cx="109.88999"
       cy="149.73901"
       r="77.165207" />
    <g
       id="g7465"
       transform="matrix(1.4888926,0,0,1.4936245,-46.657979,-68.668253)"
       style="fill:#00d7ff;fill-opacity:1;stroke-width:0.670576">
      <path
         style="fill:#00d7ff;fill-opacity:1;stroke-width:0.670576"
         d="m 87.488719,181.427 c -2.215909,-0.35577 -4.4354,-2.20066 -5.516705,-4.58561 -1.051758,-2.31978 -1.4864,-5.27626 -1.302955,-8.86285 0.106738,-2.08686 0.303115,-3.55621 0.806317,-6.03312 0.224442,-1.10477 0.415097,-2.07283 0.423678,-2.15125 0.0109,-0.0996 -0.619283,-0.35905 -2.093504,-0.86173 -2.507617,-0.85504 -3.289835,-1.1663 -5.021678,-1.99822 -4.869384,-2.33907 -7.989054,-5.30383 -8.978661,-8.5328 -0.305161,-0.99571 -0.305097,-3.35238 1.19e-4,-4.3477 0.976368,-3.18399 3.823422,-5.95721 8.526591,-8.30547 1.953237,-0.97524 3.201841,-1.48411 5.724713,-2.33309 1.235182,-0.41566 1.853376,-0.67077 1.844164,-0.76102 -0.0076,-0.0747 -0.198579,-1.03966 -0.424348,-2.14443 -1.089465,-5.33113 -1.139386,-9.66598 -0.151513,-13.1568 0.899864,-3.17982 2.938118,-5.42192 5.697302,-6.26707 0.586044,-0.17951 0.946572,-0.21089 2.422635,-0.21089 1.903899,0 2.667468,0.13595 4.48268,0.79815 2.970619,1.08368 6.943936,3.74221 10.357686,6.93028 0.41696,0.38939 0.81286,0.70799 0.87979,0.70799 0.0669,0 0.46283,-0.3186 0.87979,-0.70799 3.41374,-3.18807 7.38706,-5.8466 10.35768,-6.93028 1.82066,-0.66419 2.57657,-0.79815 4.50355,-0.79815 1.67164,0 1.7965,0.0139 2.62843,0.29262 1.17616,0.39405 2.02298,0.90644 2.90609,1.75841 2.42623,2.34066 3.47532,6.0711 3.22204,11.45728 -0.0978,2.0807 -0.30512,3.64817 -0.81016,6.12645 -0.22513,1.10477 -0.41557,2.06976 -0.42319,2.14443 -0.009,0.0902 0.60898,0.34536 1.84416,0.76102 2.46586,0.8298 3.75242,1.35141 5.62428,2.28024 4.55335,2.25942 7.35672,4.87428 8.49197,7.92089 0.26771,0.71844 0.28098,0.83682 0.28727,2.56106 0.007,2.04446 -0.0417,2.27453 -0.80503,3.76716 -1.31384,2.56919 -4.24359,5.0288 -8.32573,6.98971 -1.73184,0.83192 -2.51406,1.14318 -5.02168,1.99822 -1.47422,0.50268 -2.1044,0.76208 -2.0935,0.86173 0.009,0.0784 0.19924,1.04648 0.42368,2.15125 0.5032,2.47691 0.69958,3.94626 0.80632,6.03312 0.33573,6.56397 -1.4073,11.0137 -5.02811,12.83615 -1.17817,0.59301 -2.43971,0.81509 -4.15174,0.73089 -2.36709,-0.11642 -3.36065,-0.37645 -5.6745,-1.48513 -2.69996,-1.29367 -5.47194,-3.24393 -8.46153,-5.9532 l -1.18009,-1.06944 -1.1801,1.06944 c -1.35414,1.22717 -3.10675,2.64669 -4.343749,3.51819 -2.802441,1.97441 -6.046748,3.51523 -7.934252,3.76823 -1.245961,0.167 -3.28526,0.18312 -4.21821,0.0333 z m 3.334473,-3.56997 c 3.083949,-0.62319 6.96965,-3.01697 11.017048,-6.78702 l 0.74278,-0.69188 -0.98361,-1.10291 c -1.35067,-1.51451 -2.972051,-3.51712 -4.348808,-5.37134 -0.635724,-0.8562 -1.185267,-1.59091 -1.221206,-1.63268 -0.03594,-0.0418 -0.842133,-0.16475 -1.79154,-0.27327 -2.31872,-0.26503 -4.725071,-0.64053 -6.838864,-1.06716 -0.960784,-0.19391 -1.785085,-0.31437 -1.831778,-0.26768 -0.112743,0.11275 -0.652056,2.6711 -0.894892,4.24512 -0.106526,0.69048 -0.247766,2.05305 -0.313868,3.02794 -0.368737,5.43821 0.965706,9.04033 3.661161,9.88272 0.519667,0.16241 2.08338,0.18369 2.803577,0.0382 z m 31.945958,-0.22008 c 3.23967,-1.48825 4.12765,-7.23132 2.38674,-15.43656 -0.16948,-0.79882 -0.34636,-1.4906 -0.39305,-1.5373 -0.0467,-0.0467 -0.87099,0.0738 -1.83178,0.26768 -2.11379,0.42663 -4.52014,0.80213 -6.83886,1.06716 -0.94941,0.10852 -1.7556,0.23149 -1.79154,0.27327 -0.0359,0.0418 -0.58548,0.77648 -1.22121,1.63268 -1.37675,1.85422 -2.99813,3.85683 -4.3488,5.37134 l -0.98361,1.10291 0.74277,0.69188 c 3.96782,3.69592 7.71299,6.03132 10.83635,6.75728 0.325,0.0755 1.02784,0.11769 1.70737,0.10239 1.00458,-0.0226 1.2306,-0.0607 1.73562,-0.29273 z m -16.83458,-10.79539 c 1.49432,-1.68472 3.44867,-4.08205 3.44867,-4.23036 0,-0.0348 -1.8982,-0.0632 -4.21821,-0.0632 -2.32002,0 -4.21821,0.0284 -4.21821,0.0632 0,0.23053 4.02406,5.00872 4.21821,5.00872 0.0435,0 0.38983,-0.35026 0.76954,-0.77836 z m 5.49447,-8.1226 0.89081,-0.0641 1.03016,-1.5686 c 1.88216,-2.86593 3.8302,-6.2526 5.33618,-9.27698 l 0.78771,-1.58192 -0.83713,-1.68217 c -1.49358,-3.00128 -3.36119,-6.24255 -5.28893,-9.17903 l -1.03151,-1.57128 -1.19035,-0.0859 c -1.54384,-0.11138 -10.37807,-0.11138 -11.921903,0 l -1.190355,0.0859 -1.031511,1.57128 c -1.927735,2.93648 -3.795343,6.17775 -5.288924,9.17903 l -0.837129,1.68217 0.787711,1.58192 c 1.505114,3.02264 3.385602,6.28921 5.348152,9.2902 l 1.034466,1.58183 0.581371,0.0132 c 0.319754,0.007 1.101116,0.0476 1.736362,0.0897 1.28222,0.0849 9.68593,0.0354 11.08482,-0.0652 z m -8.00645,-5.46841 c -1.30575,-0.32083 -2.28517,-0.89266 -3.34422,-1.95252 -0.783854,-0.78445 -0.985269,-1.05815 -1.372493,-1.86504 -0.54121,-1.12777 -0.772318,-2.09408 -0.771363,-3.22525 0.0034,-3.9725 3.250836,-7.21139 7.230516,-7.21139 3.97968,0 7.22716,3.23889 7.23051,7.21139 0.001,1.13117 -0.23015,2.09748 -0.77136,3.22525 -0.38723,0.80689 -0.58864,1.08059 -1.37249,1.86504 -0.70832,0.70885 -1.10549,1.01515 -1.73458,1.33769 -1.56204,0.80086 -3.42319,1.02548 -5.09452,0.61483 z m -10.209158,4.86743 c 0,-0.0336 -0.309441,-0.5647 -0.687645,-1.1801 -1.180434,-1.92075 -1.674962,-2.77022 -2.665258,-4.57821 l -0.959592,-1.75192 -0.249221,0.56353 c -0.750132,1.69618 -2.128088,5.68516 -2.00278,5.79776 0.12077,0.10851 1.856433,0.45246 4.053657,0.80329 1.801785,0.28768 2.278167,0.36458 2.435514,0.39315 0.04143,0.008 0.07532,-0.0138 0.07532,-0.0475 z m 26.363808,-0.34008 c 2.22703,-0.35273 3.981,-0.69845 4.10392,-0.8089 0.0476,-0.0428 -0.0829,-0.59022 -0.28996,-1.21651 -0.41924,-1.26789 -1.59898,-4.39541 -1.82574,-4.84012 l -0.14618,-0.28666 -0.92734,1.69273 c -1.03404,1.88749 -1.66126,2.96731 -2.6832,4.61944 -0.38067,0.6154 -0.69212,1.14532 -0.69212,1.17759 0,0.0323 0.12429,0.0375 0.27619,0.0117 0.15191,-0.0258 1.1349,-0.183 2.18443,-0.34924 z m -36.302862,-2.68707 c 0.567373,-1.72684 1.883149,-5.17674 2.658259,-6.96981 0.413937,-0.95757 0.752613,-1.81702 0.752613,-1.90989 0,-0.0929 -0.253532,-0.7486 -0.563406,-1.45717 -0.883937,-2.02126 -1.825018,-4.43927 -2.507728,-6.44335 -0.344885,-1.01241 -0.648689,-1.86236 -0.675123,-1.88879 -0.02643,-0.0264 -0.697077,0.16269 -1.490318,0.42028 -5.881671,1.90998 -9.979493,4.40448 -11.556846,7.03509 -0.551116,0.91911 -0.70731,1.514 -0.666711,2.53929 0.03187,0.80472 0.0735,0.95961 0.477768,1.77749 0.377781,0.76429 0.599167,1.05194 1.506504,1.95741 2.10458,2.10025 5.396326,3.86032 10.152881,5.42865 0.800958,0.26409 1.486456,0.48239 1.52333,0.4851 0.03687,0.003 0.211824,-0.43573 0.388777,-0.9743 z m 45.643192,0.50496 c 1.76288,-0.56099 4.09778,-1.50794 5.62114,-2.27973 2.07645,-1.052 3.33815,-1.92344 4.58195,-3.16468 0.90734,-0.90547 1.12873,-1.19312 1.50651,-1.95741 0.40427,-0.81788 0.4459,-0.97277 0.47777,-1.77749 0.0406,-1.02529 -0.1156,-1.62018 -0.66671,-2.53929 -1.57736,-2.63061 -5.67518,-5.12511 -11.55685,-7.03509 -0.79324,-0.25759 -1.46388,-0.44672 -1.49032,-0.42028 -0.0264,0.0264 -0.33024,0.87638 -0.67512,1.88879 -0.68271,2.00408 -1.62379,4.42209 -2.50773,6.44335 -0.30987,0.70857 -0.56341,1.3643 -0.56341,1.45717 0,0.0929 0.34221,0.95937 0.76045,1.92556 0.77406,1.78813 2.06672,5.18045 2.65134,6.95788 0.29613,0.90031 0.34152,0.9775 0.53976,0.91788 0.11905,-0.0358 0.71359,-0.2233 1.32122,-0.41666 z M 91.001746,138.04223 c 0.349825,-0.60762 0.995035,-1.68407 1.433803,-2.3921 0.438767,-0.70803 0.779033,-1.30605 0.756147,-1.32894 -0.114272,-0.11427 -6.373694,0.99405 -6.54276,1.15849 -0.04811,0.0468 0.03554,0.45604 0.188365,0.92162 0.360517,1.0983 1.738004,4.77356 1.928237,5.14471 l 0.14859,0.2899 0.725788,-1.34445 c 0.399184,-0.73946 1.012007,-1.84161 1.36183,-2.44923 z m 30.920844,2.63638 c 1.19369,-3.05582 1.87897,-5.08179 1.75853,-5.19893 -0.1649,-0.16039 -6.42755,-1.2737 -6.53884,-1.16241 -0.0207,0.0207 0.31921,0.61875 0.75541,1.32894 0.89976,1.46493 2.14939,3.63597 2.9255,5.08262 0.28895,0.53857 0.56403,0.97923 0.61131,0.97923 0.0473,0 0.26692,-0.46325 0.48809,-1.02945 z m -34.88298,-9.10599 c 1.876505,-0.37999 4.557672,-0.80288 6.748177,-1.06438 1.199917,-0.14325 2.189319,-0.26931 2.198671,-0.28014 0.0094,-0.0108 0.635449,-0.8474 1.391326,-1.85905 1.365996,-1.82821 3.225896,-4.10979 4.511176,-5.53397 l 0.67208,-0.74471 -0.33005,-0.3433 c -0.18153,-0.18881 -0.76793,-0.72858 -1.30311,-1.19948 -4.530975,-3.98676 -8.423804,-6.05705 -11.416001,-6.07127 -0.976675,-0.005 -1.52857,0.11377 -2.261624,0.48524 -2.012477,1.0198 -3.137376,4.42093 -2.933464,8.86932 0.103428,2.25631 0.551907,5.35163 1.068253,7.37289 0.171723,0.67221 0.18163,0.68694 0.422348,0.62795 0.123772,-0.0303 0.67827,-0.14693 1.232218,-0.2591 z m 37.82871,-0.0586 c 0.24687,-0.89642 0.71476,-3.39032 0.88421,-4.71292 0.67568,-5.27365 0.0717,-9.24153 -1.68581,-11.07455 -0.84999,-0.88653 -1.8128,-1.25708 -3.24854,-1.25026 -2.9922,0.0142 -6.88503,2.08451 -11.416,6.07127 -0.53519,0.4709 -1.12159,1.01067 -1.30312,1.19948 l -0.33005,0.3433 0.67208,0.74471 c 1.28528,1.42418 3.14518,3.70576 4.51118,5.53397 0.75588,1.01165 1.38189,1.84813 1.39113,1.85886 0.009,0.0107 0.98727,0.13538 2.17338,0.27701 2.34887,0.28048 5.13901,0.72755 6.87694,1.10192 0.60762,0.13089 1.16931,0.23135 1.2482,0.22324 0.0789,-0.008 0.18076,-0.15032 0.2264,-0.31603 z m -15.48508,-1.68855 c 0,-0.10702 -2.1601,-2.76875 -3.23476,-3.98595 -0.46331,-0.52477 -0.90587,-0.95412 -0.98345,-0.95412 -0.0776,0 -0.52014,0.42935 -0.98346,0.95412 -1.07465,1.2172 -3.23475,3.87893 -3.23475,3.98595 0,0.0449 1.89819,0.0816 4.21821,0.0816 2.32001,0 4.21821,-0.0367 4.21821,-0.0816 z"
         id="path7483" />
      <path
         style="fill:#00d7ff;fill-opacity:1;stroke-width:0.670576"
         d="m 87.739803,181.42703 c -0.959814,-0.15544 -1.49229,-0.33938 -2.305158,-0.79627 -2.389802,-1.34325 -3.876939,-3.87761 -4.540631,-7.73808 -0.21518,-1.25163 -0.244254,-5.08772 -0.051,-6.72905 0.172011,-1.4609 0.557839,-3.73633 0.880636,-5.19356 0.143301,-0.64692 0.244189,-1.22529 0.224196,-1.28527 -0.01999,-0.06 -0.96214,-0.41892 -2.093659,-0.79764 -7.744369,-2.59206 -12.427591,-6.04291 -13.922516,-10.25886 -0.218028,-0.61488 -0.2721,-0.97515 -0.312408,-2.08147 -0.06016,-1.65121 0.08611,-2.35988 0.781052,-3.78422 0.619933,-1.2706 1.247838,-2.09633 2.498049,-3.28507 2.279243,-2.16718 5.503681,-3.98334 9.839432,-5.54202 0.973934,-0.35012 2.081309,-0.72182 2.460831,-0.826 0.379523,-0.10417 0.710433,-0.24175 0.735356,-0.30574 0.02492,-0.064 -0.112878,-0.87749 -0.306223,-1.8078 -0.732739,-3.52567 -1.035303,-6.42276 -0.937107,-8.97291 0.226054,-5.87058 2.313296,-9.52594 6.195465,-10.85004 0.520366,-0.17749 0.958478,-0.23258 2.159322,-0.27154 2.393106,-0.0776 3.919068,0.29687 6.628616,1.62683 1.763146,0.86543 3.114108,1.70651 4.921244,3.06388 1.25381,0.94174 3.49513,2.85349 4.11146,3.50688 0.3706,0.39289 0.54593,0.39289 0.91654,0 0.61632,-0.65339 2.85765,-2.56514 4.11145,-3.50688 1.80714,-1.35737 3.1581,-2.19845 4.92125,-3.06388 2.70955,-1.32996 4.23551,-1.70447 6.62862,-1.62683 1.20084,0.039 1.63895,0.0941 2.15932,0.27154 3.23354,1.10287 5.16118,3.73079 5.9391,8.0967 0.19943,1.11929 0.23077,1.62741 0.22864,3.70746 -0.003,2.78524 -0.18484,4.43625 -0.85133,7.72318 -0.22287,1.09915 -0.38582,2.04825 -0.36209,2.1091 0.0237,0.0609 0.35365,0.19588 0.73317,0.30005 0.37952,0.10418 1.4869,0.47588 2.46083,0.826 4.33575,1.55868 7.56019,3.37484 9.83943,5.54202 1.55371,1.47732 2.47477,2.84843 3.0164,4.49027 0.20209,0.61259 0.23192,0.90332 0.23185,2.25976 -8e-5,1.43253 -0.022,1.62124 -0.27506,2.36556 -1.43456,4.21976 -6.22986,7.74373 -14.07894,10.34631 -1.04826,0.34758 -1.92262,0.68202 -1.94301,0.74319 -0.0204,0.0612 0.0802,0.64052 0.22348,1.28744 0.32279,1.45723 0.70862,3.73266 0.88063,5.19356 0.19325,1.64133 0.16418,5.47742 -0.051,6.72905 -0.66369,3.86047 -2.15083,6.39483 -4.54063,7.73808 -0.83153,0.46738 -1.34736,0.63998 -2.40559,0.80493 -1.16925,0.18225 -1.97109,0.18011 -3.31733,-0.009 -3.51278,-0.4931 -8.19535,-3.17425 -12.63721,-7.23582 -1.3452,-1.23004 -1.33458,-1.22233 -1.5102,-1.09694 -0.077,0.055 -0.63061,0.54858 -1.23031,1.09694 -3.4782,3.18041 -7.447424,5.72899 -10.485512,6.73258 -1.820298,0.60131 -3.838669,0.78376 -5.569454,0.50345 z m 2.862356,-3.4685 c 2.096607,-0.3371 4.779979,-1.65946 7.519502,-3.7056 1.827516,-1.36496 4.432089,-3.64209 4.432089,-3.87488 0,-0.067 -0.29962,-0.45515 -0.66583,-0.8625 -1.31088,-1.45817 -3.092953,-3.64207 -4.479942,-5.49007 l -1.410394,-1.87919 -1.837892,-0.21674 c -2.466825,-0.29092 -4.897364,-0.6734 -6.886466,-1.08371 -1.399368,-0.28865 -1.659084,-0.31776 -1.754361,-0.19666 -0.226737,0.2882 -0.939932,4.12452 -1.135772,6.10939 -0.156278,1.58388 -0.134712,4.44418 0.04237,5.619 0.641863,4.25847 2.720531,6.13665 6.176701,5.58096 z m 31.355441,-0.005 c 2.10247,-0.43988 3.46242,-2.36114 3.947,-5.57609 0.17707,-1.17482 0.19864,-4.03512 0.0424,-5.619 -0.19584,-1.98487 -0.90903,-5.82119 -1.13577,-6.10939 -0.0953,-0.1211 -0.35499,-0.092 -1.75436,0.19667 -1.9891,0.4103 -4.41964,0.79278 -6.88647,1.0837 l -1.83789,0.21674 -1.41039,1.87919 c -1.38699,1.848 -3.16907,4.0319 -4.47995,5.49007 -0.36621,0.40735 -0.66583,0.79548 -0.66583,0.8625 0,0.067 0.38688,0.47404 0.85974,0.90448 3.61684,3.29245 6.67115,5.31229 9.42791,6.23476 1.58329,0.5298 2.79696,0.66582 3.89365,0.43637 z M 106.43546,166.3619 c 1.3115,-1.51213 3.04821,-3.67031 3.04821,-3.78795 0,-0.042 -1.94339,-0.0763 -4.31864,-0.0763 -2.37526,0 -4.31865,0.0343 -4.31865,0.0763 0,0.21987 4.13414,5.14627 4.31865,5.14627 0.0508,0 0.62248,-0.61124 1.27043,-1.35832 z m 2.59626,-7.47898 c 1.32572,-0.0541 2.62229,-0.1255 2.88126,-0.15863 l 0.47084,-0.0602 0.89903,-1.37239 c 1.89915,-2.89911 3.65204,-5.91713 5.30134,-9.12753 l 0.99151,-1.92999 -0.4864,-0.98259 c -1.47448,-2.97865 -3.70421,-6.86833 -5.61358,-9.79267 -0.97853,-1.49869 -1.13065,-1.68482 -1.41437,-1.73061 -0.59914,-0.0967 -4.88948,-0.25591 -6.89632,-0.25591 -2.00541,0 -6.296901,0.15918 -6.895563,0.25576 -0.282623,0.0456 -0.436833,0.23406 -1.416084,1.73062 -1.901409,2.90586 -3.706278,6.04508 -5.426109,9.43766 l -0.674464,1.33046 0.99228,1.93363 c 1.644519,3.20462 3.398856,6.2258 5.30363,9.13348 l 0.900545,1.3747 0.519549,0.0631 c 1.756426,0.21317 7.152346,0.29041 10.562906,0.15119 z m -4.73162,-5.52725 c -0.92376,-0.12441 -1.41457,-0.27437 -2.29873,-0.70234 -1.90183,-0.92056 -3.336551,-2.71702 -3.830133,-4.79586 -0.08833,-0.37201 -0.160484,-1.1049 -0.160484,-1.63003 0,-2.81365 1.557905,-5.28499 4.091047,-6.48975 1.04954,-0.49915 1.84985,-0.67569 3.06323,-0.67569 1.21338,0 2.01369,0.17654 3.06322,0.67569 1.49655,0.71176 2.64426,1.84574 3.36635,3.32609 0.51105,1.0477 0.7247,1.98038 0.7247,3.16366 0,1.64295 -0.47086,3.04725 -1.45771,4.34753 -1.51631,1.99789 -4.1347,3.10754 -6.56149,2.7807 z m -10.986234,4.78361 c 0,-0.0219 -0.264969,-0.46252 -0.58882,-0.97923 -0.858843,-1.3703 -2.18196,-3.65137 -3.03514,-5.23262 -0.409695,-0.75931 -0.771938,-1.38074 -0.804984,-1.38096 -0.184268,-0.001 -2.452705,6.31493 -2.316812,6.45083 0.235252,0.23525 6.745756,1.3374 6.745756,1.14198 z m 25.804474,-0.21922 c 2.07814,-0.3234 4.53426,-0.81342 4.64819,-0.92735 0.13438,-0.13438 -2.13906,-6.44743 -2.3214,-6.44624 -0.033,2e-4 -0.39529,0.62165 -0.80498,1.38096 -0.85318,1.58125 -2.1763,3.86232 -3.03514,5.23262 -0.32385,0.51671 -0.58882,0.95736 -0.58882,0.97923 0,0.0828 0.48909,0.0318 2.10215,-0.21922 z M 83.551643,154.4881 c 0.670135,-1.99194 1.517592,-4.18968 2.499007,-6.48077 l 0.764839,-1.78551 -0.76465,-1.77989 c -0.976339,-2.27264 -1.825749,-4.47337 -2.499196,-6.47516 -0.422571,-1.25606 -0.569246,-1.58182 -0.712227,-1.58182 -0.468627,0 -4.075103,1.29201 -5.896222,2.1123 -3.956023,1.78193 -6.854656,4.2019 -7.596385,6.34197 -0.248006,0.71555 -0.250195,2.05477 -0.0045,2.76284 0.848241,2.44472 4.114301,4.95472 9.057188,6.96055 1.482062,0.60142 4.117412,1.49813 4.419105,1.50364 0.170627,0.003 0.281069,-0.23464 0.733058,-1.57815 z m 45.208047,1.22121 c 2.64264,-0.81995 5.98062,-2.29981 7.85131,-3.48079 2.23556,-1.41134 3.85526,-3.12344 4.37676,-4.62646 0.24431,-0.70412 0.24345,-2.04752 -0.002,-2.75452 -0.747,-2.15386 -3.62841,-4.56173 -7.59915,-6.35029 -1.82112,-0.82029 -5.42759,-2.1123 -5.89622,-2.1123 -0.14298,0 -0.28966,0.32576 -0.71223,1.58182 -0.67332,2.00142 -1.52283,4.20245 -2.49858,6.47374 l -0.76404,1.77847 0.90969,2.13844 c 0.95267,2.23946 1.98072,4.9394 2.54469,6.68306 0.22181,0.68581 0.38208,1.02945 0.48013,1.02945 0.0809,0 0.67017,-0.16228 1.30939,-0.36062 z M 90.277749,139.4483 c 0.365468,-0.66286 1.114055,-1.95092 1.663527,-2.86236 0.549473,-0.91143 1.087554,-1.80404 1.195736,-1.98356 l 0.196695,-0.32641 h -0.279156 c -0.809694,0 -6.298088,0.99338 -6.477028,1.17232 -0.134305,0.13431 1.918206,5.93199 2.243859,6.33818 0.07753,0.0967 0.188589,-0.0279 0.447502,-0.50217 0.189408,-0.34694 0.643397,-1.17314 1.008865,-1.836 z m 31.915691,0.70303 c 0.96709,-2.51834 1.65841,-4.60372 1.55909,-4.70304 -0.19785,-0.19785 -5.96815,-1.22048 -6.50264,-1.15241 -0.22791,0.029 -0.20759,0.0793 0.47928,1.18529 0.81491,1.31219 2.4306,4.11856 3.16337,5.49459 0.37655,0.7071 0.51957,0.89628 0.60745,0.80347 0.0632,-0.0668 0.37527,-0.79932 0.69345,-1.6279 z m -32.193882,-9.05145 c 0.856196,-0.14142 2.563837,-0.38068 3.794758,-0.53168 2.104793,-0.25821 2.2481,-0.28906 2.407056,-0.51804 1.222653,-1.76131 3.985388,-5.22593 5.636458,-7.06843 0.39376,-0.43942 0.71592,-0.85478 0.71592,-0.92303 0,-0.0683 -0.55542,-0.62343 -1.23427,-1.23374 -4.887823,-4.39428 -9.181844,-6.63095 -12.301637,-6.40767 -1.097764,0.0786 -1.833841,0.39112 -2.592542,1.10085 -1.03905,0.97198 -1.679295,2.44106 -2.009518,4.61096 -0.199703,1.31225 -0.144223,4.97763 0.102397,6.765 0.192658,1.39628 0.832351,4.62903 0.965054,4.87699 0.0834,0.15583 0.201292,0.14636 1.524996,-0.1226 0.789035,-0.16031 2.135132,-0.40719 2.991328,-0.54861 z m 35.064992,-0.1463 c 1.12482,-4.83069 1.31258,-9.76188 0.47912,-12.58339 -0.52796,-1.78733 -1.64261,-3.21539 -2.87136,-3.67874 -3.07658,-1.16014 -8.0151,1.05704 -13.66174,6.13351 -0.67885,0.61031 -1.23427,1.16549 -1.23427,1.23374 0,0.0682 0.32217,0.48361 0.71593,0.92303 1.65107,1.8425 4.4138,5.30712 5.63645,7.06843 0.15905,0.22912 0.30176,0.25971 2.41933,0.51862 2.34358,0.28655 5.15436,0.73942 7.04658,1.13535 0.60762,0.12714 1.14342,0.19716 1.19066,0.1556 0.0472,-0.0416 0.17293,-0.44933 0.2793,-0.90615 z m -15.58088,-1.07615 c 0,-0.17916 -3.68747,-4.64342 -4.15805,-5.03396 -0.13345,-0.11076 -0.18774,-0.11076 -0.32119,0 -0.47057,0.39054 -4.15805,4.8548 -4.15805,5.03396 0,0.0439 1.94339,0.0799 4.31865,0.0799 2.37525,0 4.31864,-0.036 4.31864,-0.0799 z"
         id="path7481" />
      <path
         style="fill:#00d7ff;fill-opacity:1;stroke-width:0.670576"
         d="m 87.769582,181.42461 c -1.546436,-0.24082 -2.757634,-0.89082 -3.996905,-2.145 -2.602345,-2.63363 -3.565449,-7.18214 -2.85162,-13.4675 0.164721,-1.45039 0.620153,-4.07428 0.928154,-5.34739 0.135768,-0.56119 0.157084,-0.80152 0.07658,-0.86339 -0.06136,-0.0471 -0.812088,-0.312 -1.668284,-0.58854 -2.212302,-0.71456 -4.006329,-1.44202 -5.934317,-2.40631 -4.465291,-2.23332 -7.306051,-4.93206 -8.35404,-7.9364 -0.257857,-0.73921 -0.316512,-1.08157 -0.354451,-2.06885 -0.02745,-0.71422 0.003,-1.43063 0.07671,-1.8078 0.879693,-4.49852 5.964338,-8.51338 14.264799,-11.26355 1.021911,-0.33859 1.908164,-0.64694 1.96945,-0.68522 0.07897,-0.0493 0.04281,-0.37029 -0.124158,-1.10184 -0.890933,-3.90367 -1.284049,-7.88762 -1.047939,-10.62014 0.338011,-3.91182 1.338458,-6.41699 3.29131,-8.2416 0.862937,-0.80626 1.579748,-1.23743 2.714585,-1.63284 0.776605,-0.27059 1.045012,-0.31184 2.28599,-0.35129 1.047272,-0.0333 1.636726,-0.002 2.309972,0.12347 3.650294,0.6791 8.003113,3.22434 12.526042,7.32439 0.64737,0.58684 1.22498,1.06699 1.28358,1.06699 0.0586,0 0.6362,-0.48015 1.28358,-1.06699 4.52292,-4.10005 8.87574,-6.64529 12.52603,-7.32439 0.67325,-0.12526 1.2627,-0.15676 2.30998,-0.12347 1.24097,0.0395 1.50938,0.0807 2.28599,0.35129 1.13483,0.39541 1.85164,0.82658 2.71458,1.63284 1.63482,1.52747 2.57342,3.49474 3.0919,6.4805 0.18655,1.07432 0.22738,1.68821 0.23046,3.46496 0.002,1.18763 -0.0542,2.67907 -0.12495,3.31431 -0.15796,1.41764 -0.63322,4.21305 -0.95241,5.60197 -0.16805,0.73125 -0.20473,1.05253 -0.12579,1.10184 0.0613,0.0383 0.94754,0.34663 1.96945,0.68522 5.10317,1.69082 8.88537,3.7767 11.36591,6.2683 2.31705,2.32739 3.21243,4.60266 2.91716,7.41285 -0.17922,1.70566 -1.03961,3.42918 -2.52576,5.05957 -2.35243,2.58076 -6.69924,5.01114 -12.05861,6.74219 -0.85619,0.27654 -1.60692,0.54139 -1.66828,0.58854 -0.0805,0.0619 -0.0592,0.3022 0.0766,0.86339 0.10348,0.42772 0.32,1.50079 0.48116,2.3846 1.1796,6.46911 0.813,11.37057 -1.10508,14.775 -0.80988,1.43746 -2.31281,2.76658 -3.88451,3.43529 -0.59488,0.2531 -2.1864,0.52001 -3.08953,0.51814 -0.84606,-0.002 -2.5519,-0.25772 -3.39927,-0.51008 -3.1891,-0.94975 -7.14233,-3.44925 -11.08403,-7.00805 -0.61909,-0.55896 -1.17465,-1.01629 -1.23455,-1.01629 -0.0599,0 -0.61546,0.45733 -1.23456,1.01629 -3.26226,2.94537 -6.4112,5.09688 -9.229933,6.30636 -1.460066,0.62649 -2.317532,0.87889 -3.609985,1.06259 -1.255323,0.17843 -2.156629,0.17735 -3.320973,-0.004 z m 3.945251,-3.6963 c 2.923478,-0.86543 6.619152,-3.25867 10.124857,-6.55664 l 0.84265,-0.79272 -1.02953,-1.15354 c -1.27595,-1.42962 -3.467636,-4.15077 -4.710812,-5.84881 -0.515625,-0.70429 -0.989253,-1.28058 -1.052505,-1.28065 -0.888824,-9e-4 -5.976319,-0.74216 -8.34196,-1.21537 -1.450462,-0.29014 -2.019677,-0.36837 -2.071413,-0.28466 -0.03924,0.0635 -0.213508,0.79985 -0.387272,1.63637 -1.11791,5.38172 -1.153449,9.57785 -0.105443,12.44945 0.636233,1.74332 1.680514,2.82741 3.11035,3.22891 0.821116,0.23057 2.514258,0.14531 3.621078,-0.18234 z m 30.477687,0.18083 c 3.29621,-0.85833 4.6164,-5.60107 3.56301,-12.80006 -0.21455,-1.46629 -0.78579,-4.32579 -0.9016,-4.51316 -0.0517,-0.0837 -0.62095,-0.005 -2.07141,0.28466 -2.36564,0.47321 -7.45313,1.21443 -8.34196,1.21537 -0.0633,7e-5 -0.53688,0.57636 -1.0525,1.28065 -1.24028,1.69408 -3.43407,4.4183 -4.70217,5.83908 l -1.0209,1.14382 0.28163,0.29878 c 0.61026,0.64744 2.86209,2.56457 4.13806,3.52301 4.06763,3.05538 7.63614,4.37148 10.10784,3.72785 z m -16.19995,-11.01737 c 1.38051,-1.53334 3.49572,-4.15285 3.49259,-4.32526 -0.002,-0.087 -8.62113,-0.11778 -8.66388,-0.031 -0.0844,0.17134 4.11581,5.18481 4.34375,5.18481 0.0448,0 0.41725,-0.37286 0.82754,-0.82858 z m 3.64638,-8.01017 c 1.15746,-0.0556 2.25185,-0.1255 2.43198,-0.1554 0.29184,-0.0485 0.42977,-0.20966 1.26701,-1.4808 1.86741,-2.83522 4.05343,-6.63202 5.55006,-9.63964 l 0.68856,-1.38374 -0.92348,-1.83014 C 116.43695,140 112.6997,133.84667 112.17641,133.72813 c -1.38631,-0.31405 -12.636455,-0.31405 -14.022767,0 -0.523293,0.11854 -4.260536,6.27187 -6.476666,10.66375 l -0.923482,1.83014 0.688559,1.38374 c 2.149695,4.32003 6.185673,11.00204 6.71867,11.12349 0.926131,0.21105 8.234826,0.30806 11.478226,0.15235 z m -6.23151,-5.71566 c -1.45508,-0.39899 -2.4427,-0.99352 -3.46006,-2.0829 -0.840511,-0.90001 -1.510837,-2.15311 -1.766506,-3.3023 -0.250943,-1.12794 -0.167937,-2.74252 0.196021,-3.81293 0.77521,-2.2799 2.833665,-4.19037 5.080765,-4.7155 0.84173,-0.19671 2.57301,-0.19671 3.41474,0 2.24709,0.52513 4.30555,2.4356 5.08076,4.7155 0.36396,1.07041 0.44696,2.68499 0.19602,3.81293 -0.52718,2.36956 -2.39572,4.44058 -4.7244,5.23632 -1.09086,0.37277 -2.94964,0.44165 -4.01734,0.14888 z m -10.093574,4.9687 c 0,-0.0245 -0.354487,-0.62332 -0.787749,-1.33074 -1.041361,-1.70032 -2.211346,-3.73408 -2.949935,-5.12781 -0.32932,-0.62144 -0.636772,-1.12988 -0.683224,-1.12988 -0.22013,0 -2.480504,6.29556 -2.318528,6.45754 0.268193,0.26819 6.739436,1.35408 6.739436,1.13089 z m 26.169264,-0.25347 c 2.34316,-0.38759 4.15445,-0.75938 4.27194,-0.87687 0.16247,-0.16247 -2.09719,-6.45809 -2.31797,-6.45809 -0.0465,0 -0.35391,0.50844 -0.68323,1.12988 -0.73859,1.39373 -1.90857,3.42749 -2.94993,5.12781 -0.43326,0.70742 -0.78775,1.30626 -0.78775,1.33074 0,0.1055 0.78338,0.025 2.46694,-0.25347 z m -36.213678,-2.48415 c 0.595005,-1.92641 2.035025,-5.69934 3.004555,-7.8721 0.281422,-0.63068 0.511677,-1.22014 0.511677,-1.30992 0,-0.0898 -0.163295,-0.51913 -0.362878,-0.95412 -0.685801,-1.49472 -2.04395,-4.95668 -2.702811,-6.88956 -0.362834,-1.06443 -0.694799,-1.97043 -0.737701,-2.01333 -0.0429,-0.0429 -0.752621,0.1425 -1.577156,0.41201 -6.38734,2.08779 -10.484649,4.72503 -11.884914,7.64976 -0.343668,0.71782 -0.360632,0.80321 -0.360632,1.81538 0,1.05376 0.0035,1.06918 0.443835,1.95845 1.109802,2.24126 4.387739,4.63129 8.745837,6.37681 1.383797,0.55424 4.536965,1.60116 4.636742,1.53949 0.043,-0.0266 0.170553,-0.34737 0.283446,-0.71287 z m 45.798768,0.21527 c 4.68585,-1.524 8.03496,-3.32297 10.1519,-5.45309 0.89997,-0.90557 1.13063,-1.20651 1.50651,-1.96561 0.44094,-0.89048 0.44383,-0.90331 0.44383,-1.96602 0,-1.05455 -0.006,-1.08168 -0.4209,-1.91581 -0.95609,-1.92194 -2.98153,-3.64381 -6.19697,-5.26817 -2.21722,-1.12008 -6.99481,-2.89563 -7.21066,-2.67978 -0.042,0.042 -0.34388,0.86619 -0.67083,1.83152 -0.70176,2.07195 -1.6928,4.62792 -2.54057,6.5523 -0.39274,0.89148 -0.59011,1.46216 -0.55578,1.60694 0.0293,0.12348 0.39504,1.00774 0.81278,1.96501 0.81458,1.86661 1.79392,4.42603 2.4598,6.42846 0.46935,1.41144 0.47665,1.42709 0.64228,1.37578 0.0673,-0.0208 0.77765,-0.25103 1.57861,-0.51153 z M 89.762893,140.42753 c 0.433411,-0.81477 1.408493,-2.51583 2.166851,-3.78013 0.758356,-1.26431 1.359413,-2.33016 1.335681,-2.36856 -0.05274,-0.0853 -0.224319,-0.0644 -2.562832,0.31286 -1.909492,0.30804 -4.105691,0.74348 -4.193697,0.83148 -0.128969,0.12897 2.206441,6.48574 2.38279,6.48574 0.04575,0 0.437797,-0.66663 0.871207,-1.48139 z m 32.379027,-0.10044 c 0.7393,-1.88511 1.7491,-4.83404 1.67924,-4.90391 -0.0869,-0.0869 -2.27233,-0.52144 -4.1937,-0.8339 -2.21166,-0.35967 -2.56105,-0.39556 -2.56105,-0.26309 0,0.0552 0.58228,1.06975 1.29395,2.25447 0.71168,1.18472 1.67777,2.86823 2.14688,3.74115 0.46911,0.87291 0.88924,1.58711 0.93362,1.58711 0.0444,0 0.35986,-0.71182 0.70106,-1.58183 z M 86.5346,131.761 c 2.014278,-0.44714 6.503592,-1.14095 8.752167,-1.35264 l 0.717481,-0.0675 1.240974,-1.67197 c 1.419804,-1.91291 2.993108,-3.8565 4.432478,-5.4757 l 0.99549,-1.11986 -0.83808,-0.79713 c -2.647371,-2.51803 -5.932318,-4.85255 -8.264004,-5.873 -2.163,-0.94663 -4.170556,-1.24723 -5.543832,-0.83011 -0.831429,0.25253 -1.502246,0.67849 -1.970834,1.25142 -1.75155,2.1416 -2.258716,6.13045 -1.471311,11.5718 0.301947,2.0866 0.831979,4.57188 0.974114,4.56755 0.0393,-0.001 0.478211,-0.0925 0.975357,-0.20282 z m 38.40598,-0.17163 c 0.74459,-2.85253 1.29202,-7.41553 1.15973,-9.66673 -0.26004,-4.4253 -1.58204,-6.84976 -4.05248,-7.43198 -1.28061,-0.30181 -3.31706,0.0495 -5.28888,0.9125 -2.33169,1.02045 -5.61663,3.35497 -8.26401,5.873 l -0.83807,0.79713 0.99548,1.11986 c 1.43937,1.6192 3.01268,3.56279 4.43248,5.4757 l 1.24098,1.67197 0.71748,0.0675 c 2.25837,0.21261 6.80824,0.91681 8.70195,1.34685 1.13213,0.25709 1.08317,0.26388 1.19534,-0.16584 z m -15.39307,-1.6624 c 0.0843,-0.0843 -3.57264,-4.49855 -4.1687,-5.032 -0.21023,-0.18814 -0.21734,-0.18814 -0.42756,0 -0.64683,0.57888 -4.23745,4.92908 -4.16508,5.04618 0.0417,0.0674 8.69372,0.0534 8.76134,-0.0142 z"
         id="path7479" />
      <path
         style="fill:#00d7ff;fill-opacity:1;stroke-width:0.670576"
         d="m 88.211123,181.47878 c -1.727933,-0.24154 -3.211777,-0.97924 -4.412862,-2.19388 -3.17841,-3.21429 -3.891969,-9.65045 -2.021173,-18.23058 0.167081,-0.76629 0.266367,-1.43068 0.220634,-1.47641 -0.04573,-0.0457 -0.738461,-0.29302 -1.539395,-0.54952 -8.747814,-2.80154 -13.969182,-6.93762 -14.764763,-11.69584 -0.32181,-1.92467 0.263458,-4.12254 1.591346,-5.97601 0.492936,-0.68804 1.728088,-1.96115 2.586187,-2.66565 2.392131,-1.96396 6.543787,-4.01862 10.787291,-5.33865 0.690015,-0.21464 1.293879,-0.42956 1.34192,-0.4776 0.04951,-0.0495 -0.04583,-0.68944 -0.220077,-1.47722 -0.757951,-3.4267 -0.970965,-5.30235 -0.967675,-8.52066 0.0023,-2.2661 0.03196,-2.76537 0.224256,-3.77705 0.661283,-3.47904 2.092568,-5.84735 4.352637,-7.20218 0.984598,-0.59023 2.648101,-1.01308 4.007508,-1.01868 3.8889,-0.016 9.207591,2.72107 14.239293,7.32775 0.57318,0.52476 1.15164,1.04203 1.28546,1.14949 0.29089,0.23357 0.18982,0.29913 1.77209,-1.14949 5.03171,-4.60668 10.3504,-7.34375 14.2393,-7.32775 4.39334,0.0181 7.35445,2.92986 8.36014,8.22086 0.1923,1.01168 0.22194,1.51095 0.22426,3.77705 0.003,3.21831 -0.20973,5.09396 -0.96768,8.52066 -0.17425,0.78778 -0.26958,1.42771 -0.22007,1.47722 0.048,0.048 0.6519,0.26296 1.34192,0.4776 4.2435,1.32003 8.39516,3.37469 10.78729,5.33865 0.86202,0.70772 2.09666,1.98131 2.58412,2.66565 1.30428,1.83105 1.8409,3.77481 1.59666,5.78354 -0.58043,4.77371 -5.8841,9.04318 -14.76801,11.88831 -0.80094,0.2565 -1.49367,0.50379 -1.5394,0.54952 -0.0457,0.0457 0.0536,0.71012 0.22064,1.47641 2.65642,12.18329 0.0374,19.87826 -6.96705,20.47005 -4.12902,0.34885 -9.90768,-2.56966 -15.49482,-7.82564 -0.4419,-0.41571 -0.85863,-0.75583 -0.92607,-0.75583 -0.0674,0 -0.49049,0.34642 -0.9401,0.76984 -4.319758,4.06797 -8.935639,6.84623 -12.635764,7.60535 -0.954415,0.19581 -2.575234,0.27291 -3.378043,0.16069 z m 2.086116,-3.41926 c 3.037509,-0.38088 6.828507,-2.58084 11.161731,-6.47731 0.65737,-0.59111 1.19522,-1.1286 1.19522,-1.19442 0,-0.0658 -0.28247,-0.43449 -0.62771,-0.81926 -1.74969,-1.95006 -3.903469,-4.61716 -5.247166,-6.49774 -0.405929,-0.56812 -0.787558,-0.99966 -0.903902,-1.02211 -0.110746,-0.0214 -0.901881,-0.11435 -1.758078,-0.20662 -2.004585,-0.21603 -4.192201,-0.55373 -6.551043,-1.01129 -1.034486,-0.20067 -1.944887,-0.34029 -2.023114,-0.31027 -0.217655,0.0835 -0.751197,2.58014 -1.12012,5.2414 -0.221616,1.59865 -0.300724,4.50357 -0.159398,5.85331 0.437767,4.18091 2.108769,6.37253 4.985282,6.53849 0.111926,0.006 0.58366,-0.0359 1.048298,-0.0942 z m 31.439331,0.002 c 3.92361,-0.61573 5.33933,-5.99744 3.81875,-14.51661 -0.32716,-1.83298 -0.61491,-2.96546 -0.76844,-3.02437 -0.0782,-0.03 -0.98863,0.1096 -2.02312,0.31027 -2.35884,0.45756 -4.54645,0.79526 -6.55104,1.01129 -0.8562,0.0923 -1.64733,0.18525 -1.75808,0.20662 -0.11634,0.0225 -0.49797,0.45399 -0.9039,1.02211 -1.3437,1.88058 -3.49748,4.54768 -5.24716,6.49774 -0.34524,0.38477 -0.62771,0.75344 -0.62771,0.81926 0,0.0658 0.53784,0.60331 1.19521,1.19442 4.6909,4.21809 8.68914,6.41408 11.96158,6.56977 0.1381,0.007 0.54486,-0.0342 0.90391,-0.0905 z m -15.30691,-11.59233 c 1.45146,-1.67351 3.15037,-3.78665 3.1527,-3.9214 0.001,-0.0658 -1.52901,-0.10071 -4.41733,-0.10071 -2.88833,0 -4.41848,0.0349 -4.41734,0.10071 0.004,0.23575 4.22392,5.27304 4.41734,5.27304 0.0508,0 0.61987,-0.60824 1.26463,-1.35164 z m 4.10856,-7.58915 c 0.88382,-0.0561 1.67473,-0.12396 1.75759,-0.15089 0.16285,-0.0529 1.84619,-2.57407 3.01119,-4.50986 1.12852,-1.87519 2.64627,-4.6334 3.51962,-6.39624 l 0.79826,-1.61126 -0.94799,-1.87522 c -1.61218,-3.18906 -3.36159,-6.21074 -5.33645,-9.21741 l -0.93047,-1.41661 -0.63457,-0.0647 c -1.72082,-0.17536 -6.64109,-0.26165 -9.52277,-0.167 -1.67679,0.0551 -3.337908,0.12976 -3.691376,0.16597 l -0.642668,0.0659 -0.931028,1.41653 c -1.953219,2.97176 -3.72282,6.02946 -5.334393,9.21733 l -0.947988,1.87522 0.788029,1.58974 c 2.008884,4.05264 6.081508,10.80422 6.598432,10.93886 0.842825,0.21953 9.632322,0.31814 12.446582,0.13965 z m -6.32731,-5.5866 c -1.8263,-0.29386 -3.6022,-1.32016 -4.629273,-2.67529 -0.544011,-0.71777 -1.160535,-1.98061 -1.358978,-2.78361 -0.194388,-0.78659 -0.165734,-2.60709 0.05375,-3.41474 0.640832,-2.35814 2.345541,-4.15519 4.729301,-4.98545 0.72546,-0.25267 0.9351,-0.27984 2.15932,-0.27984 1.22421,0 1.43386,0.0272 2.15932,0.27984 2.38375,0.83026 4.08847,2.62731 4.7293,4.98545 0.21948,0.80765 0.24813,2.62815 0.0537,3.41474 -0.19845,0.803 -0.81497,2.06584 -1.35898,2.78361 -0.82639,1.09034 -2.37205,2.12003 -3.72537,2.48176 -0.61957,0.16561 -2.27685,0.27966 -2.81214,0.19353 z m -10.796611,4.93532 c 0,-0.028 -0.603446,-1.05617 -1.340991,-2.28486 -0.737545,-1.2287 -1.737142,-2.96841 -2.221327,-3.86604 -0.484185,-0.89762 -0.915707,-1.63204 -0.958937,-1.63204 -0.106837,0 -0.660187,1.34115 -1.439028,3.48776 -0.828389,2.28317 -1.01287,2.88332 -0.942598,3.06644 0.09977,0.26 6.902881,1.47098 6.902881,1.22874 z m 25.459911,-0.19908 c 2.91892,-0.45309 4.88155,-0.86582 4.94865,-1.04066 0.11146,-0.29047 -2.1116,-6.43447 -2.35787,-6.51656 -0.0564,-0.0188 -0.49958,0.70195 -0.98488,1.60164 -0.48531,0.89969 -1.48582,2.6411 -2.22336,3.8698 -0.73755,1.22869 -1.34099,2.25688 -1.34099,2.28486 0,0.0883 0.30926,0.0569 1.95845,-0.19908 z M 83.375143,155.1913 c 0.597815,-1.81762 1.890678,-5.20749 2.709018,-7.10301 l 0.813302,-1.88384 -0.603468,-1.36939 c -1.097951,-2.49145 -2.865414,-7.17014 -3.071386,-8.13032 -0.03931,-0.18326 -0.138717,-0.359 -0.220901,-0.39054 -0.08218,-0.0315 -0.812344,0.15713 -1.622575,0.41926 -6.148602,1.98919 -10.41897,4.68154 -11.770094,7.42073 -0.75572,1.5321 -0.752121,2.62214 0.01378,4.17465 1.072727,2.17445 4.429879,4.5858 8.826874,6.3401 1.24476,0.49663 4.195889,1.49336 4.435904,1.49821 0.123765,0.002 0.251535,-0.2522 0.489542,-0.97585 z m 45.454307,0.56654 c 4.68647,-1.49542 8.32406,-3.43276 10.44448,-5.56262 0.83693,-0.84066 1.08959,-1.16966 1.4333,-1.86638 0.76591,-1.55251 0.76951,-2.64255 0.0138,-4.17465 -1.35113,-2.73919 -5.6215,-5.43154 -11.7701,-7.42073 -0.81023,-0.26213 -1.54039,-0.45079 -1.62257,-0.41926 -0.0822,0.0315 -0.18159,0.20728 -0.2209,0.39054 -0.20586,0.95965 -1.97336,5.63869 -3.07023,8.12769 l -0.6023,1.36675 0.89709,2.09821 c 0.92702,2.16822 1.92188,4.77688 2.57165,6.74326 0.21897,0.66264 0.42693,1.12988 0.50291,1.12988 0.0713,0 0.71155,-0.18571 1.42288,-0.41269 z M 89.635705,140.76609 c 0.770821,-1.45695 2.10026,-3.7618 3.095324,-5.36637 0.387468,-0.62481 0.677373,-1.16312 0.644233,-1.19626 -0.08161,-0.0816 -2.120036,0.21195 -4.38004,0.63081 -2.290845,0.42458 -2.452536,0.46873 -2.493419,0.68092 -0.075,0.38925 2.175239,6.49417 2.393714,6.49417 0.04533,0 0.378414,-0.55948 0.740188,-1.24327 z m 32.184135,0.51512 c 0.87508,-2.10372 2.0591,-5.50296 2.00841,-5.76602 -0.0409,-0.21219 -0.20257,-0.25634 -2.49342,-0.68092 -2.25846,-0.41857 -4.29841,-0.71244 -4.37989,-0.63097 -0.033,0.0331 0.29867,0.63917 0.73716,1.34692 0.99218,1.6014 2.21793,3.73267 3.03614,5.27904 0.34342,0.64905 0.66137,1.1801 0.70656,1.1801 0.0452,0 0.21845,-0.32767 0.38504,-0.72815 z m -34.310778,-9.66169 c 2.130249,-0.42485 4.490854,-0.78918 6.792741,-1.04835 0.957653,-0.10783 1.752019,-0.21096 1.765256,-0.22919 1.98441,-2.73219 4.198161,-5.51212 5.864581,-7.36449 0.3974,-0.44175 0.72255,-0.85424 0.72255,-0.91664 0,-0.2098 -2.60416,-2.50564 -4.292017,-3.78387 -3.143117,-2.38031 -5.983813,-3.71082 -8.412832,-3.94035 -5.107889,-0.48268 -7.018744,5.55774 -4.955999,15.66644 0.35386,1.73413 0.427306,1.96293 0.630104,1.96293 0.0816,0 0.930131,-0.15592 1.885616,-0.34648 z m 37.433538,0.11603 c 0.13446,-0.35366 0.6821,-3.10659 0.85322,-4.28906 0.51671,-3.57049 0.48378,-6.41072 -0.1013,-8.73772 -0.76434,-3.03992 -2.64693,-4.60438 -5.26359,-4.37413 -3.28998,0.28949 -7.12062,2.48133 -11.82605,6.76667 -0.51096,0.46533 -0.92877,0.897 -0.92847,0.95924 3e-4,0.0622 0.3451,0.49733 0.76622,0.96686 1.61301,1.79838 4.52562,5.45818 5.82112,7.31443 0.0127,0.0181 0.78402,0.11863 1.71414,0.22331 2.30831,0.25979 4.89771,0.66129 6.76301,1.04866 1.97146,0.40941 2.08983,0.41596 2.2017,0.12174 z m -15.3585,-1.83161 c 0,-0.24228 -4.21589,-5.26959 -4.41907,-5.26959 -0.20318,0 -4.41908,5.02731 -4.41908,5.26959 0,0.0696 1.44994,0.1036 4.41908,0.1036 2.96913,0 4.41907,-0.034 4.41907,-0.1036 z"
         id="path7477" />
      <path
         style="fill:#00d7ff;fill-opacity:1;stroke-width:0.670576"
         d="m 88.543271,181.46593 c -1.636478,-0.11594 -3.235312,-0.8183 -4.474632,-1.96569 -3.266608,-3.02431 -4.139271,-9.28897 -2.43838,-17.5046 0.200132,-0.96668 0.384163,-1.92211 0.408958,-2.12319 l 0.04508,-0.3656 -1.490893,-0.47186 c -2.934691,-0.92883 -6.158829,-2.33147 -8.255095,-3.59131 -2.827281,-1.69918 -5.071809,-3.96677 -5.999191,-6.06083 -0.688186,-1.55394 -0.856893,-3.44343 -0.447623,-5.01331 1.152854,-4.42209 6.177649,-8.1883 14.552479,-10.90743 l 1.642763,-0.53337 -0.05446,-0.40605 c -0.02995,-0.22332 -0.19034,-1.03917 -0.356419,-1.81299 -1.328704,-6.1909 -1.168694,-11.57197 0.446009,-14.99903 1.329094,-2.82088 3.424881,-4.38242 6.360885,-4.7394 4.026972,-0.48963 9.666263,2.25553 15.444818,7.51841 0.61751,0.56241 1.17436,1.02255 1.23745,1.02255 0.0631,0 0.61994,-0.46014 1.23744,-1.02255 5.77856,-5.26288 11.41785,-8.00804 15.44483,-7.51841 2.936,0.35698 5.03179,1.91852 6.36088,4.7394 1.6147,3.42706 1.77471,8.80813 0.44601,14.99903 -0.16608,0.77382 -0.32647,1.58967 -0.35642,1.81299 l -0.0545,0.40605 1.64277,0.53337 c 5.39936,1.75306 9.24832,3.83887 11.78655,6.3873 2.05702,2.06529 2.96279,4.01519 2.96279,6.37816 0,2.30921 -0.93255,4.33961 -2.90835,6.33223 -1.54613,1.55929 -3.4503,2.84858 -6.141,4.158 -1.93311,0.94074 -3.05179,1.38762 -5.44723,2.176 l -1.89216,0.62275 0.0446,0.36075 c 0.0245,0.19841 0.20836,1.15166 0.4085,2.11834 2.22706,10.75714 0.0228,17.9615 -5.91706,19.33904 -0.96439,0.22366 -2.80781,0.19922 -4.04882,-0.0537 -3.58826,-0.73124 -7.94281,-3.31966 -12.31347,-7.31933 -0.60763,-0.55605 -1.17257,-1.011 -1.25542,-1.011 -0.0829,0 -0.6478,0.45495 -1.25542,1.011 -2.87227,2.62846 -6.152419,4.92922 -8.670276,6.08149 -2.5156,1.15124 -4.51932,1.57698 -6.69606,1.42277 z m 2.259756,-3.44249 c 1.999181,-0.3583 4.592876,-1.63296 7.130783,-3.50438 1.367872,-1.00865 2.81891,-2.21444 3.90446,-3.24454 l 0.94167,-0.89357 -1.23173,-1.40562 c -1.47975,-1.68867 -3.121708,-3.7287 -4.496246,-5.58629 l -1.012646,-1.36853 -0.6848,-0.0684 c -2.656755,-0.26515 -5.770842,-0.73749 -8.353166,-1.267 -0.792818,-0.16256 -1.478346,-0.27279 -1.523397,-0.24495 -0.04505,0.0278 -0.19567,0.53609 -0.334711,1.12943 -1.237049,5.27903 -1.320885,10.43274 -0.215242,13.23175 1.064504,2.69485 2.973855,3.742 5.875025,3.22205 z m 31.773183,-0.14292 c 1.62569,-0.57956 2.78928,-2.24423 3.29332,-4.71153 0.3722,-1.82194 0.4083,-4.85392 0.0866,-7.26978 -0.29887,-2.24411 -0.92689,-5.34954 -1.104,-5.459 -0.045,-0.0278 -0.73058,0.0824 -1.5234,0.24495 -2.58232,0.52951 -5.69641,1.00185 -8.35316,1.267 l -0.6848,0.0684 -1.01265,1.36853 c -1.37454,1.85759 -3.0165,3.89762 -4.49625,5.58629 l -1.23173,1.40562 0.94167,0.89357 c 3.78626,3.59285 7.98644,6.17381 10.98503,6.75017 0.96178,0.18486 2.35873,0.11988 3.0994,-0.14417 z m -16.74428,-10.68991 c 1.29063,-1.37969 3.92994,-4.64895 3.83211,-4.74678 -0.0279,-0.0279 -2.05248,-0.0508 -4.49901,-0.0508 -2.44653,0 -4.47109,0.0229 -4.49902,0.0508 -0.14503,0.14503 4.23264,5.37696 4.49902,5.37696 0.0426,0 0.34267,-0.28358 0.6669,-0.63018 z m 3.47288,-8.21431 c 1.39648,-0.0587 2.67464,-0.13954 2.84035,-0.17962 0.24744,-0.0598 0.46829,-0.3235 1.23553,-1.47507 1.78606,-2.68073 4.19559,-6.86607 5.70769,-9.91425 l 0.58555,-1.18039 -0.68703,-1.38066 c -1.9496,-3.91795 -6.08839,-10.85273 -6.65644,-11.15326 -0.24111,-0.12756 -4.55899,-0.32098 -7.16543,-0.32098 -2.60644,0 -6.924329,0.19342 -7.165434,0.32098 -0.568048,0.30053 -4.706842,7.23531 -6.656445,11.15326 l -0.68703,1.38066 0.585554,1.18039 c 1.512102,3.04818 3.921625,7.23352 5.707685,9.91425 0.765014,1.14823 0.989031,1.41596 1.236761,1.47808 0.918418,0.23033 7.394629,0.3332 11.118689,0.17661 z m -5.01174,-5.72917 c -2.57464,-0.29593 -4.811676,-2.08688 -5.785681,-4.63194 -0.307964,-0.80471 -0.317942,-0.87998 -0.316517,-2.38762 0.0013,-1.42797 0.02342,-1.61765 0.26685,-2.2934 0.398084,-1.10506 0.841716,-1.78357 1.786058,-2.73171 1.39254,-1.39812 2.93604,-2.03701 4.92125,-2.03701 1.26547,0 2.02247,0.17956 3.21387,0.76233 0.68398,0.33456 1.02339,0.58796 1.70737,1.27468 0.94435,0.94814 1.38798,1.62665 1.78606,2.73171 0.24343,0.67575 0.2655,0.86543 0.26685,2.2934 0.001,1.50145 -0.01,1.58562 -0.31045,2.37099 -1.22041,3.1859 -4.21098,5.03072 -7.53566,4.64857 z m -10.878771,4.94737 c 0,-0.0468 -0.580958,-1.0524 -1.291017,-2.23465 -0.71006,-1.18225 -1.64363,-2.80488 -2.074601,-3.60584 -1.214763,-2.25763 -1.140993,-2.18964 -1.498441,-1.38096 -0.760177,1.71982 -2.226925,5.98045 -2.10186,6.10551 0.181993,0.182 5.602238,1.1693 6.539077,1.1911 0.234763,0.005 0.426842,-0.0284 0.426842,-0.0752 z m 25.761211,-0.16939 c 2.07154,-0.32541 4.59379,-0.83417 4.70959,-0.94997 0.15887,-0.15887 -2.09569,-6.42234 -2.37357,-6.59408 -0.15104,-0.0934 -0.26114,0.0736 -1.20213,1.82274 -0.44574,0.82857 -1.39167,2.4738 -2.10205,3.65605 -0.71037,1.18225 -1.29159,2.18784 -1.29159,2.23465 0,0.1394 0.56232,0.0973 2.25975,-0.16939 z m -36.056452,-1.98016 c 1.3384,-3.89737 2.163378,-6.06234 3.238213,-8.49796 0.330365,-0.74863 0.528244,-1.32687 0.498348,-1.45629 -0.02727,-0.11806 -0.387974,-0.98726 -0.80156,-1.93155 -0.825199,-1.88409 -1.83605,-4.51836 -2.482138,-6.46844 -0.228766,-0.69048 -0.47043,-1.31147 -0.537031,-1.37997 -0.09599,-0.0987 -0.547449,0.019 -2.177384,0.56782 -6.642527,2.23661 -10.706794,5.07229 -11.651345,8.12927 -1.1624,3.76204 3.187553,7.70677 11.653942,10.56831 1.800744,0.60863 2.18365,0.68809 2.258955,0.46881 z m 45.827892,-0.28679 c 7.69729,-2.48685 12.37416,-6.09187 12.37416,-9.53824 0,-3.39883 -4.3238,-6.80769 -11.84856,-9.34136 -1.62994,-0.54882 -2.0814,-0.66655 -2.17738,-0.56782 -0.0666,0.0685 -0.30827,0.68949 -0.53704,1.37997 -0.64608,1.95008 -1.65694,4.58435 -2.48213,6.46844 -0.41359,0.94429 -0.77429,1.81349 -0.80156,1.93155 -0.0299,0.12942 0.16798,0.70766 0.49834,1.45629 1.07484,2.43562 1.89982,4.60059 3.23822,8.49796 0.0694,0.20213 0.38298,0.15033 1.73595,-0.28679 z m -39.567216,-14.4584 c 0.720858,-1.34981 2.591412,-4.61105 3.302987,-5.75864 0.407696,-0.65751 0.720675,-1.24913 0.695509,-1.31472 -0.05246,-0.13672 -0.106019,-0.1317 -2.32412,0.21755 -2.076613,0.32697 -4.486603,0.81349 -4.602184,0.92907 -0.104816,0.10482 0.375143,1.59941 1.292572,4.02506 0.838112,2.21595 1.027738,2.63539 1.169998,2.58797 0.06606,-0.022 0.275417,-0.33085 0.465238,-0.68629 z m 32.371076,0.23254 c 0.84689,-1.94262 2.25809,-6.0285 2.12732,-6.15928 -0.11558,-0.11558 -2.52557,-0.6021 -4.60219,-0.92907 -2.2181,-0.34925 -2.27165,-0.35427 -2.32412,-0.21755 -0.0252,0.0656 0.28797,0.65721 0.69585,1.31472 0.83363,1.34383 2.10836,3.55403 2.83271,4.91152 0.67327,1.26174 0.85643,1.55672 0.96665,1.55672 0.0527,0 0.1894,-0.21468 0.30378,-0.47706 z m -34.061224,-9.913 c 1.954703,-0.38736 5.223188,-0.87732 7.109439,-1.06574 l 1.234076,-0.12326 1.167818,-1.56723 c 1.459464,-1.95863 3.216421,-4.13194 4.554371,-5.63364 l 1.02802,-1.15384 -1.04379,-0.99308 c -2.246611,-2.13748 -5.15918,-4.26455 -7.368249,-5.38111 -4.272972,-2.15974 -7.417653,-1.83073 -8.983079,0.93984 -1.522368,2.69437 -1.650081,7.75802 -0.347207,13.76635 0.346407,1.59749 0.387089,1.69636 0.666828,1.62067 0.123302,-0.0334 1.0151,-0.21739 1.981773,-0.40896 z m 37.251954,0.21947 c 0.11631,-0.30594 0.56824,-2.41807 0.75714,-3.5386 0.51675,-3.06525 0.6227,-6.43852 0.26671,-8.49137 -0.73436,-4.23485 -2.78657,-5.98719 -6.33793,-5.41183 -2.92029,0.47312 -7.28828,3.119 -11.03693,6.68554 l -1.04378,0.99308 1.02801,1.15384 c 1.33784,1.50158 3.09489,3.67498 4.55398,5.6331 l 1.16742,1.5667 1.18425,0.11841 c 2.01704,0.20167 5.33749,0.70742 7.27081,1.10745 2.27574,0.47087 2.08714,0.45505 2.19032,0.18368 z m -15.257,-1.87291 c 0,-0.28333 -4.27933,-5.33151 -4.51951,-5.33151 -0.24018,0 -4.51951,5.04818 -4.51951,5.33151 0,0.0542 1.85319,0.0919 4.51951,0.0919 2.66631,0 4.51951,-0.0377 4.51951,-0.0919 z"
         id="path7475" />
      <path
         style="fill:#00d7ff;fill-opacity:1;stroke-width:0.670576"
         d="m 87.444206,181.26929 c -5.962047,-1.46421 -8.051499,-8.89397 -5.631699,-20.02543 0.274071,-1.26077 0.322502,-1.62965 0.225575,-1.71811 -0.06789,-0.0619 -0.914341,-0.36933 -1.881014,-0.68307 -3.943223,-1.27981 -7.133059,-2.81847 -9.604706,-4.63297 -1.079128,-0.79222 -2.806408,-2.54716 -3.418173,-3.47291 -1.057494,-1.60026 -1.48949,-3.09078 -1.408787,-4.86075 0.09963,-2.18507 0.921436,-3.88918 2.826902,-5.86191 2.520176,-2.60913 6.635915,-4.85401 12.006498,-6.54879 0.74572,-0.23533 1.411395,-0.47754 1.47928,-0.53824 0.09678,-0.0865 0.04808,-0.45697 -0.225575,-1.71583 -2.179908,-10.02793 -0.717004,-17.10257 4.019058,-19.43626 1.107429,-0.54568 1.809259,-0.71415 3.213874,-0.77146 2.114078,-0.0862 4.115218,0.4201 6.673583,1.68863 2.685736,1.33168 5.401828,3.27802 8.383988,6.00793 0.54828,0.5019 1.02619,0.91255 1.06202,0.91255 0.0358,0 0.51374,-0.41065 1.06202,-0.91255 2.98215,-2.72991 5.69825,-4.67625 8.38398,-6.00793 4.1961,-2.08057 7.68813,-2.2791 10.50851,-0.59744 0.65637,0.39136 1.75628,1.43744 2.2171,2.10859 2.40194,3.49824 2.81729,9.48032 1.18091,17.00794 -0.27366,1.25886 -0.32236,1.62929 -0.22558,1.71583 0.0679,0.0607 0.73356,0.30291 1.47928,0.53824 5.37948,1.69759 9.48215,3.93534 12.0065,6.54879 1.90547,1.97273 2.72727,3.67684 2.8269,5.86191 0.0807,1.76997 -0.35129,3.26049 -1.40878,4.86075 -0.61177,0.92575 -2.33905,2.68069 -3.41818,3.47291 -2.47164,1.8145 -5.66148,3.35316 -9.6047,4.63297 -0.96668,0.31374 -1.81313,0.62112 -1.88102,0.68307 -0.0969,0.0885 -0.0485,0.45734 0.22558,1.71811 1.22895,5.65336 1.30927,10.60714 0.22714,14.00901 -1.71631,5.39552 -6.09509,7.4461 -11.76999,5.5119 -3.0786,-1.0493 -6.83499,-3.46329 -10.24372,-6.58299 -1.62472,-1.48695 -1.51792,-1.4171 -1.80927,-1.18317 -0.13382,0.10746 -0.72901,0.63988 -1.32263,1.18317 -3.40873,3.1197 -7.165129,5.53369 -10.243728,6.58299 -2.130882,0.72628 -4.266096,0.90852 -5.911146,0.50452 z m 3.639247,-3.26326 c 2.004692,-0.41283 4.514147,-1.70019 7.168198,-3.67731 1.673313,-1.24652 4.502969,-3.72138 4.502969,-3.93836 0,-0.0602 -0.32514,-0.47097 -0.72255,-0.91272 -1.31814,-1.46523 -3.161966,-3.72957 -4.553853,-5.59243 -0.755877,-1.01165 -1.381974,-1.84822 -1.391325,-1.85904 -0.0094,-0.0108 -0.996458,-0.13662 -2.193569,-0.27953 -2.614006,-0.31206 -4.030596,-0.53459 -6.536926,-1.02687 -1.504492,-0.2955 -1.906299,-0.34468 -1.970278,-0.24116 -0.0442,0.0715 -0.224773,0.81497 -0.401267,1.65211 -1.248262,5.9207 -1.187454,10.43265 0.178878,13.2728 0.637215,1.32456 1.522659,2.148 2.775628,2.58127 0.649859,0.22471 2.10818,0.23456 3.144095,0.0212 z m 31.879497,-0.26835 c 0.96719,-0.47807 1.67225,-1.2246 2.20449,-2.33416 1.36529,-2.8462 1.42566,-7.35381 0.17776,-13.2728 -0.17649,-0.83714 -0.35706,-1.58059 -0.40126,-1.65211 -0.064,-0.10352 -0.46579,-0.0543 -1.97028,0.24116 -2.50633,0.49228 -3.92292,0.71481 -6.53693,1.02687 -1.19711,0.14291 -2.18422,0.2687 -2.19357,0.27953 -0.009,0.0108 -0.63545,0.84739 -1.39132,1.85904 -1.39189,1.86286 -3.23572,4.1272 -4.55386,5.59243 -0.3974,0.44175 -0.72255,0.85247 -0.72255,0.91272 0,0.0603 0.37286,0.44877 0.82858,0.86337 3.61593,3.28972 6.38249,5.17042 9.21501,6.26434 1.29425,0.49984 2.09166,0.64419 3.41982,0.61909 1.11861,-0.0211 1.18775,-0.0355 1.92411,-0.39948 z M 106.542,166.43982 c 1.62905,-1.88108 3.14254,-3.78524 3.14254,-3.95371 0,-0.11626 -0.73821,-0.13895 -4.51951,-0.13895 -3.7813,0 -4.51951,0.0227 -4.51951,0.13895 0,0.33899 4.23231,5.33468 4.51951,5.33468 0.10766,0 0.66575,-0.55972 1.37697,-1.38097 z m 3.59449,-7.45905 c 1.04953,-0.056 2.00506,-0.12335 2.1234,-0.14963 0.32519,-0.0722 2.8357,-3.9918 4.72758,-7.38103 1.26796,-2.27152 2.63999,-4.98635 2.63999,-5.22375 0,-0.2603 -1.65557,-3.51323 -2.88741,-5.67329 -2.02702,-3.55444 -4.16251,-6.8577 -4.48076,-6.93106 -1.3764,-0.31722 -12.812126,-0.31722 -14.188522,0 -0.318258,0.0734 -2.45374,3.37662 -4.480765,6.93106 -1.231837,2.16006 -2.88741,5.41299 -2.88741,5.67329 0,0.2374 1.372029,2.95223 2.639996,5.22375 1.88472,3.37642 4.401519,7.30725 4.727576,7.38371 0.926492,0.21728 8.923895,0.31467 12.066325,0.14695 z m -6.67676,-5.92465 c -2.48784,-0.67088 -4.285095,-2.38941 -5.040668,-4.81988 -0.196973,-0.63361 -0.233058,-0.96064 -0.227182,-2.05889 0.006,-1.13066 0.04259,-1.41332 0.272632,-2.10911 0.629648,-1.90442 1.947888,-3.39049 3.754638,-4.23265 0.97775,-0.45575 1.80998,-0.63513 2.95492,-0.63689 3.07474,-0.005 5.71159,1.91387 6.69247,4.86954 0.23565,0.71009 0.26667,0.96106 0.26687,2.15933 2e-4,1.19227 -0.0312,1.4501 -0.26043,2.13703 -0.73029,2.18863 -2.39255,3.85436 -4.54863,4.55811 -1.12142,0.36603 -2.78855,0.42358 -3.86462,0.13341 z m -9.995303,5.22362 c 0.03409,-0.0552 -0.228278,-0.5636 -0.583038,-1.12988 -0.888292,-1.4179 -2.318368,-3.88438 -3.159164,-5.44866 -0.385977,-0.7181 -0.763945,-1.30564 -0.83993,-1.30564 -0.16622,0 -1.124409,2.36983 -1.961922,4.8523 -0.543092,1.60978 -0.573844,1.74834 -0.414255,1.86662 0.193454,0.14339 2.826778,0.67114 5.074425,1.01698 1.775621,0.27321 1.805231,0.27554 1.883884,0.14828 z m 25.251233,-0.15111 c 2.30207,-0.34673 4.90569,-0.86397 5.10954,-1.01507 0.15789,-0.11704 0.12578,-0.26126 -0.41552,-1.8657 -0.83751,-2.48247 -1.7957,-4.8523 -1.96192,-4.8523 -0.076,0 -0.45395,0.58754 -0.83993,1.30564 -0.8408,1.56428 -2.27087,4.03076 -3.15916,5.44866 -0.56962,0.90923 -0.68893,1.2338 -0.45166,1.22867 0.0382,-8.1e-4 0.81156,-0.11328 1.71865,-0.2499 z m -35.55312,-2.08368 c 0.04872,-0.12429 0.392543,-1.10728 0.764039,-2.18443 0.740322,-2.14656 1.525835,-4.16399 2.404973,-6.17667 0.313666,-0.7181 0.573883,-1.37343 0.57826,-1.45628 0.0044,-0.0829 -0.354754,-0.98676 -0.798068,-2.00868 -0.91274,-2.10401 -1.791546,-4.39855 -2.494177,-6.51223 -0.26334,-0.79218 -0.53943,-1.4636 -0.613533,-1.49204 -0.162018,-0.0622 -2.759938,0.77906 -4.41729,1.43036 -1.757865,0.6908 -4.047957,1.85888 -5.359592,2.7337 -1.326401,0.88468 -2.975722,2.46485 -3.491238,3.34486 -1.015079,1.7328 -0.983727,3.46275 0.09295,5.12857 1.330271,2.05819 4.322911,4.12862 8.356686,5.78151 1.153064,0.47248 4.534346,1.63471 4.760706,1.63637 0.07023,5e-4 0.167561,-0.10076 0.216287,-0.22504 z m 45.73616,-0.23671 c 5.79705,-1.88236 9.9213,-4.35499 11.60249,-6.95613 1.07668,-1.66582 1.10803,-3.39577 0.093,-5.12857 -0.51551,-0.88001 -2.16484,-2.46018 -3.49124,-3.34486 -1.30662,-0.87148 -3.60056,-2.04247 -5.34035,-2.72609 -1.5493,-0.60878 -3.8442,-1.36433 -4.23491,-1.39427 l -0.31191,-0.0239 -0.52849,1.55672 c -0.81611,2.40391 -1.38313,3.8832 -2.36752,6.17666 -0.4979,1.16001 -0.90218,2.1769 -0.8984,2.25976 0.004,0.0829 0.26352,0.73818 0.57718,1.45628 0.87914,2.01268 1.66465,4.03011 2.40498,6.17667 0.84089,2.43816 0.82982,2.4104 0.96145,2.4104 0.0599,0 0.75005,-0.20821 1.53377,-0.46268 z M 89.45744,141.231 c 0.829593,-1.54218 2.51591,-4.47327 3.306405,-5.74708 0.483597,-0.77927 0.730349,-1.26866 0.670058,-1.32895 -0.133239,-0.13324 -2.20127,0.1678 -5.3928,0.78503 -1.657224,0.3205 -1.657154,0.32048 -1.657154,0.52702 0,0.23001 0.742562,2.42081 1.434544,4.23236 0.739926,1.93707 0.949547,2.41041 1.067467,2.41041 0.05431,0 0.311474,-0.39546 0.57148,-0.87879 z m 32.29162,0.40173 c 0.68569,-1.58621 2.19705,-5.82763 2.19705,-6.16571 0,-0.20654 7e-5,-0.20652 -1.65716,-0.52702 -3.18718,-0.61639 -5.2596,-0.91823 -5.39244,-0.78539 -0.0598,0.0598 0.23592,0.63077 0.79734,1.5394 0.86743,1.40389 2.21387,3.75009 3.17756,5.53699 0.26067,0.48333 0.51838,0.87879 0.57268,0.87879 0.0543,0 0.19155,-0.21468 0.30497,-0.47706 z m -34.652637,-9.85921 c 2.150447,-0.43534 4.307396,-0.77879 6.66428,-1.06113 2.281771,-0.27335 2.422815,-0.30062 2.496316,-0.48269 0.197182,-0.48845 4.037881,-5.33015 5.633571,-7.10186 0.47264,-0.52476 0.86039,-1.00627 0.86168,-1.07002 0.003,-0.15391 -1.94337,-1.91955 -3.456706,-3.13554 -2.525331,-2.02916 -5.35898,-3.66592 -7.437985,-4.2963 -0.793243,-0.24053 -1.076038,-0.27475 -2.309972,-0.27955 -1.756857,-0.007 -2.243042,0.15481 -3.223118,1.07163 -1.742661,1.63017 -2.528787,5.13895 -2.143628,9.5678 0.136709,1.57199 0.424517,3.52274 0.749361,5.07914 0.365109,1.74932 0.439208,2.00143 0.588244,2.00143 0.07211,0 0.782191,-0.13181 1.577957,-0.29291 z m 37.944587,-0.0837 c 0.43678,-1.67332 0.93036,-4.65922 1.10818,-6.70395 0.38516,-4.42885 -0.40096,-7.93763 -2.14362,-9.5678 -0.98008,-0.91682 -1.46627,-1.07846 -3.22312,-1.07163 -1.23394,0.005 -1.51673,0.039 -2.30997,0.27955 -2.07901,0.63038 -4.91266,2.26714 -7.43799,4.2963 -1.51334,1.21599 -3.45983,2.98163 -3.45671,3.13554 10e-4,0.0637 0.38905,0.54526 0.86168,1.07002 1.59569,1.77171 5.43639,6.61341 5.63358,7.10186 0.0735,0.18212 0.21484,0.20942 2.49631,0.48219 2.24491,0.26839 5.02024,0.71542 6.82437,1.09921 1.54026,0.32765 1.5299,0.32841 1.64729,-0.12129 z m -15.35822,-1.73248 c -0.003,-0.28421 -4.28431,-5.42342 -4.51776,-5.42342 -0.23346,0 -4.51448,5.13921 -4.51777,5.42342 -0.002,0.1317 0.56661,0.15065 4.51777,0.15065 3.95116,0 4.51929,-0.0189 4.51776,-0.15065 z"
         id="path7473" />
      <path
         style="fill:#00d7ff;fill-opacity:1;stroke-width:0.670576"
         d="m 87.50944,181.22652 c -3.534924,-0.89895 -5.597959,-3.5792 -6.414701,-8.33384 -0.21503,-1.25179 -0.244028,-5.08844 -0.05086,-6.72905 0.179976,-1.52855 0.567065,-3.80044 0.876666,-5.1453 0.142817,-0.62037 0.245112,-1.23051 0.227322,-1.35585 -0.02839,-0.20005 -0.241863,-0.29637 -1.747044,-0.78824 -8.988486,-2.93732 -14.005774,-7.01081 -14.614484,-11.86537 -0.169044,-1.34814 0.149094,-2.99645 0.838947,-4.3467 1.808814,-3.54037 6.686905,-6.79245 13.481564,-8.98777 2.273979,-0.73471 2.09446,-0.63427 2.027803,-1.13452 -0.03102,-0.23278 -0.191597,-1.05596 -0.356846,-1.8293 -1.838525,-8.60398 -0.820572,-15.2347 2.776058,-18.08264 2.223966,-1.76101 5.344308,-2.07676 8.784206,-0.88888 3.279217,1.13239 6.807989,3.42665 10.621749,6.90582 0.58001,0.52912 1.12235,0.96204 1.20521,0.96204 0.0828,0 0.6252,-0.43292 1.2052,-0.96204 4.55324,-4.15377 8.87376,-6.71702 12.52999,-7.43371 1.25283,-0.24558 3.05079,-0.22206 4.09177,0.0535 3.40327,0.90097 5.43018,3.5944 6.24438,8.29776 0.13238,0.76472 0.17363,1.57941 0.17292,3.41474 -0.001,2.75219 -0.18822,4.48141 -0.80977,7.4823 -0.20022,0.96668 -0.38468,1.92593 -0.40993,2.13168 -0.0544,0.44315 -0.20834,0.36101 2.03361,1.08485 4.98716,1.61016 8.99669,3.80707 11.43187,6.26379 4.47988,4.5195 3.79777,9.89725 -1.79077,14.11859 -2.4423,1.8448 -5.75041,3.44835 -9.93507,4.81584 -1.50518,0.49187 -1.71865,0.58819 -1.74704,0.78824 -0.0178,0.12534 0.0845,0.73548 0.22732,1.35585 0.3096,1.34486 0.69669,3.61675 0.87666,5.1453 0.19317,1.64061 0.16418,5.47726 -0.0508,6.72905 -0.67762,3.94475 -2.21876,6.46221 -4.72439,7.71732 -1.02328,0.51258 -2.49084,0.86706 -3.59589,0.86856 -0.97711,10e-4 -2.92665,-0.39563 -4.20015,-0.85523 -3.07225,-1.10876 -6.7799,-3.55836 -10.39488,-6.86779 -0.60762,-0.55627 -1.12736,-1.01139 -1.15498,-1.01139 -0.0276,0 -0.54737,0.45512 -1.15499,1.01139 -2.94432,2.69546 -5.901661,4.79627 -8.536853,6.06433 -1.467519,0.70617 -2.352221,1.0165 -3.898849,1.36759 -1.629901,0.37 -2.722282,0.3805 -4.064899,0.0391 z m 3.946405,-3.24846 c 2.277788,-0.58645 5.071529,-2.15869 7.934252,-4.4652 1.318133,-1.06203 3.248163,-2.79111 3.392573,-3.03936 0.053,-0.0911 -0.25789,-0.51696 -0.96226,-1.3183 -1.54381,-1.75634 -2.866172,-3.38854 -4.302802,-5.31094 -0.705627,-0.94423 -1.3413,-1.76289 -1.412606,-1.81925 -0.07131,-0.0564 -0.830171,-0.17843 -1.686367,-0.27129 -2.160163,-0.23427 -5.156017,-0.69824 -7.174568,-1.11113 -1.197433,-0.24493 -1.737991,-0.31717 -1.826106,-0.24404 -0.239365,0.19866 -0.913858,3.56115 -1.186655,5.91573 -0.2015,1.73921 -0.204692,4.74618 -0.0064,6.07623 0.474732,3.1851 1.798606,5.13895 3.861349,5.6988 0.835042,0.22665 2.237024,0.18036 3.36964,-0.11125 z m 30.501755,0.17587 c 2.23508,-0.4701 3.64376,-2.43184 4.14786,-5.77636 0.19811,-1.31435 0.19478,-4.32418 -0.007,-6.06329 -0.2728,-2.35458 -0.94729,-5.71707 -1.18666,-5.91573 -0.0881,-0.0731 -0.62867,-9e-4 -1.8261,0.24404 -2.01856,0.41289 -5.01441,0.87686 -7.17457,1.11113 -0.8562,0.0929 -1.61506,0.21494 -1.68637,0.27129 -0.0713,0.0564 -0.70698,0.87502 -1.41261,1.81925 -1.43663,1.9224 -2.75899,3.5546 -4.3028,5.31094 -0.70437,0.80134 -1.01523,1.22723 -0.96226,1.3183 0.14442,0.24825 2.07444,1.97733 3.39257,3.03936 4.3521,3.5065 8.36835,5.1983 11.01765,4.64107 z m -15.48078,-11.55117 c 1.56208,-1.79272 3.30815,-3.99035 3.30815,-4.16369 0,-0.1205 -0.70327,-0.14213 -4.61994,-0.14213 -3.91667,0 -4.61995,0.0216 -4.61995,0.14213 0,0.33511 4.33754,5.48215 4.61995,5.48215 0.0896,0 0.67993,-0.59331 1.31179,-1.31846 z m 4.54262,-7.61461 c 0.80329,-0.0552 1.3464,-0.13861 1.4494,-0.22264 0.0906,-0.0739 0.58011,-0.76713 1.0878,-1.54047 1.86398,-2.83929 4.04839,-6.63736 5.53096,-9.61673 l 0.68729,-1.38119 -0.78885,-1.5816 c -1.47658,-2.96051 -3.48313,-6.44359 -5.40589,-9.38387 l -1.09588,-1.67581 -0.52107,-0.0591 c -0.96886,-0.10983 -4.82778,-0.25402 -6.79817,-0.25402 -1.96999,0 -5.829208,0.14418 -6.797778,0.25397 l -0.520676,0.059 -1.014653,1.54928 c -1.947182,2.97315 -4.012475,6.55229 -5.487911,9.5105 l -0.788843,1.5816 0.68729,1.38119 c 1.444852,2.90358 3.608229,6.6747 5.459224,9.5163 1.101091,1.69037 1.142453,1.73257 1.771547,1.80762 1.96087,0.23394 9.46763,0.26739 12.54621,0.0559 z m -6.84804,-5.84685 c -3.72568,-0.53277 -6.346032,-3.94977 -5.923702,-7.72464 0.229815,-2.05413 1.323707,-3.84631 3.054092,-5.00366 1.38229,-0.92453 3.03217,-1.33609 4.56627,-1.13906 1.75962,0.22601 2.97376,0.80261 4.17377,1.98216 1.97363,1.93998 2.60952,4.77284 1.65714,7.38242 -0.90027,2.46679 -3.00511,4.14356 -5.66242,4.51082 -0.87916,0.1215 -0.96175,0.12115 -1.86515,-0.008 z m -10.617023,5.1554 c 0.02832,-0.0458 -0.323625,-0.68986 -0.78211,-1.43118 -1.087327,-1.75808 -2.238414,-3.7571 -3.04563,-5.28915 -0.356321,-0.67628 -0.696112,-1.25943 -0.755089,-1.29588 -0.05898,-0.0364 -0.168177,0.0171 -0.242667,0.11895 -0.189093,0.2586 -1.221053,2.92459 -1.903761,4.91822 -0.488926,1.42775 -0.551303,1.68927 -0.431081,1.80729 0.153506,0.15069 2.386298,0.61824 4.760505,0.99686 1.612492,0.25715 2.317254,0.30851 2.399833,0.17489 z m 25.563963,-0.17457 c 2.4074,-0.37309 4.65533,-0.83853 4.81768,-0.99752 0.12019,-0.1177 0.0577,-0.37956 -0.43109,-1.80695 -0.6827,-1.99363 -1.71466,-4.65962 -1.90376,-4.91822 -0.0745,-0.10187 -0.18369,-0.1554 -0.24266,-0.11895 -0.059,0.0365 -0.39877,0.6196 -0.75509,1.29588 -0.80722,1.53205 -1.95831,3.53107 -3.04563,5.28915 -0.45849,0.74132 -0.81044,1.38535 -0.78211,1.43118 0.0837,0.13541 0.58215,0.0983 2.34266,-0.17457 z m -35.350074,-3.68412 c 0.691066,-2.0321 1.822396,-4.93526 2.666604,-6.84291 0.303424,-0.68564 0.551681,-1.30025 0.551681,-1.36579 0,-0.0655 -0.355379,-0.94015 -0.789732,-1.94358 -0.968053,-2.23638 -1.560045,-3.77604 -2.377381,-6.18316 -0.345098,-1.01634 -0.693368,-1.88479 -0.773931,-1.92987 -0.211528,-0.11838 -3.995196,1.17841 -5.86099,2.00875 -5.458544,2.42924 -8.465698,5.44963 -8.248215,8.28452 0.223654,2.91533 3.310851,5.71547 8.920053,8.09063 1.488196,0.63017 4.653763,1.70865 5.02496,1.71197 0.25253,0.002 0.289855,-0.0748 0.886951,-1.83056 z m 45.161614,1.42147 c 1.84293,-0.58629 3.89094,-1.4079 5.46132,-2.19093 4.47861,-2.23316 6.80488,-4.62587 7.00255,-7.20258 0.23419,-3.05269 -3.32994,-6.35947 -9.51339,-8.82648 -1.58838,-0.63371 -4.45766,-1.5441 -4.60561,-1.46131 -0.0752,0.0421 -0.41904,0.90805 -0.76413,1.92439 -0.81734,2.40712 -1.40933,3.94678 -2.37738,6.18316 -0.43436,1.00343 -0.78974,1.87804 -0.78974,1.94358 0,0.0655 0.24826,0.68015 0.55168,1.36579 0.84421,1.90765 1.97554,4.81081 2.66661,6.84291 0.56055,1.64833 0.64606,1.83291 0.84905,1.83291 0.12414,0 0.80771,-0.18515 1.51904,-0.41144 z m -38.949602,-15.4635 c 0.520533,-0.96313 1.547032,-2.74544 2.281109,-3.96069 1.010864,-1.67346 1.306543,-2.23786 1.21869,-2.32628 -0.0881,-0.0887 -0.514461,-0.0572 -1.773148,0.1308 -2.42043,0.36156 -5.139799,0.91471 -5.303976,1.07888 -0.167021,0.16702 0.05562,0.9023 1.189603,3.92874 0.874318,2.33343 1.169252,2.99038 1.319958,2.94015 0.06674,-0.0222 0.547231,-0.82847 1.067764,-1.7916 z m 31.823162,1.23675 c 0.33945,-0.7637 1.52639,-3.9362 1.93885,-5.18226 0.28285,-0.85449 0.30801,-1.00857 0.18481,-1.13178 -0.16418,-0.16417 -2.88354,-0.71732 -5.30397,-1.07888 -1.25976,-0.18818 -1.68543,-0.21955 -1.77507,-0.1308 -0.09,0.0891 0.14951,0.55605 1.01313,1.97476 0.9843,1.61697 1.7261,2.91606 3.13986,5.49874 0.18899,0.34524 0.38908,0.62771 0.44466,0.62771 0.0556,0 0.21655,-0.25987 0.35773,-0.57749 z m -34.364938,-9.8662 c 1.934511,-0.38996 4.27964,-0.75658 6.427749,-1.00488 0.994292,-0.11493 1.908678,-0.23058 2.031969,-0.25702 0.147153,-0.0315 0.668005,-0.64275 1.51608,-1.77907 1.512523,-2.02661 2.74052,-3.54446 4.31055,-5.328 0.79583,-0.90405 1.10926,-1.32931 1.05337,-1.42918 -0.19046,-0.34035 -2.74647,-2.57913 -4.2097,-3.68725 -4.801039,-3.63587 -8.819606,-4.89648 -11.404735,-3.57765 -0.560722,0.28606 -1.470134,1.21472 -1.858933,1.89828 -0.466519,0.8202 -0.89534,2.20728 -1.086075,3.51308 -0.231572,1.58537 -0.158361,5.0629 0.150123,7.13078 0.276476,1.85331 0.861641,4.59097 1.022815,4.78518 0.08193,0.0987 0.210875,0.12708 0.382181,0.0841 0.142195,-0.0357 0.891267,-0.19246 1.664606,-0.34834 z m 37.579338,0.0978 c 0.16499,-0.34601 0.67923,-2.86726 0.94204,-4.61872 0.30984,-2.06485 0.38364,-5.54084 0.1514,-7.13078 -0.19074,-1.3058 -0.61956,-2.69288 -1.08608,-3.51308 -0.3888,-0.68356 -1.29821,-1.61222 -1.85893,-1.89828 -2.74172,-1.39872 -7.16045,0.13573 -12.27653,4.26315 -1.2702,1.02474 -3.20338,2.76136 -3.33427,2.99525 -0.0607,0.10843 0.22346,0.49704 1.04973,1.43568 1.57004,1.78354 2.79803,3.30139 4.31055,5.328 0.84808,1.13632 1.36893,1.74753 1.51609,1.77907 0.12329,0.0264 1.03767,0.14213 2.03196,0.2571 2.08304,0.24085 5.54615,0.80098 7.08057,1.14522 0.58,0.13012 1.122,0.22998 1.20444,0.22191 0.0824,-0.008 0.2035,-0.1271 0.26903,-0.26452 z m -15.23287,-1.86961 c 0,-0.33332 -4.33795,-5.46082 -4.61994,-5.46082 -0.282,0 -4.61995,5.1275 -4.61995,5.46082 0,0.11098 0.81975,0.13492 4.61995,0.13492 3.80019,0 4.61994,-0.0239 4.61994,-0.13492 z"
         id="path7471" />
      <path
         style="fill:#00d7ff;fill-opacity:1;stroke-width:0.670576"
         d="m 88.593488,181.3833 c -0.08286,-0.0557 -0.265442,-0.10203 -0.405742,-0.10288 -0.503461,-0.003 -1.468813,-0.31213 -2.396713,-0.76741 -0.753252,-0.36958 -1.099965,-0.61851 -1.712743,-1.22972 -1.659277,-1.65501 -2.532514,-3.65608 -2.974228,-6.81562 -0.131816,-0.94287 -0.154491,-1.6796 -0.112106,-3.64255 0.06389,-2.95881 0.248898,-4.41564 0.992348,-7.81404 0.269392,-1.23141 0.294022,-1.45515 0.172521,-1.56712 -0.07796,-0.0718 -0.887455,-0.36822 -1.79889,-0.65862 -5.020859,-1.59979 -9.01961,-3.74601 -11.487489,-6.1656 -4.343348,-4.25837 -4.054675,-9.40921 0.756213,-13.49322 2.49085,-2.11451 6.334703,-4.07911 10.681059,-5.45911 0.883816,-0.28062 1.67473,-0.54656 1.757588,-0.59097 0.215172,-0.11533 0.184031,-0.4127 -0.279301,-2.66716 -0.227051,-1.10477 -0.488446,-2.57361 -0.580879,-3.26409 -0.225044,-1.68111 -0.304292,-5.31932 -0.14691,-6.74452 0.555575,-5.03106 2.607492,-8.00219 6.279852,-9.09307 0.461428,-0.13707 0.955535,-0.17893 2.109105,-0.17867 1.325171,2.9e-4 1.637527,0.0343 2.59503,0.28245 3.609531,0.93549 7.432307,3.26424 11.737237,7.15004 0.70174,0.63343 1.32526,1.15168 1.38559,1.15168 0.0603,0 0.68384,-0.51825 1.38559,-1.15168 4.30595,-3.88673 8.13388,-6.21831 11.73723,-7.14911 0.94449,-0.24397 1.28123,-0.28152 2.54481,-0.28373 0.91136,-0.002 1.66299,0.0492 2.00868,0.13584 3.1076,0.77856 5.24055,3.24887 6.08081,7.04261 0.39155,1.76782 0.47521,2.81856 0.42149,5.29388 -0.0568,2.61569 -0.21523,3.96501 -0.79959,6.80837 -0.46333,2.25446 -0.49447,2.55183 -0.2793,2.66716 0.0829,0.0444 0.87377,0.31035 1.75759,0.59097 4.34635,1.38 8.19021,3.3446 10.68106,5.45911 4.81088,4.08401 5.09956,9.23485 0.75621,13.49322 -2.46788,2.41959 -6.46663,4.56581 -11.48749,6.1656 -0.91144,0.2904 -1.72094,0.58679 -1.79889,0.65862 -0.1215,0.11197 -0.0969,0.33571 0.17252,1.56712 0.74345,3.3984 0.92846,4.85523 0.99235,7.81404 0.0583,2.69991 -0.0534,3.94167 -0.52003,5.78118 -0.94311,3.71782 -3.20433,6.03284 -6.52912,6.68445 -2.89092,0.56657 -7.11499,-0.89002 -11.48342,-3.95986 -1.18189,-0.83054 -3.09713,-2.3904 -4.38508,-3.57141 -0.60763,-0.55716 -1.17257,-1.01303 -1.25542,-1.01303 -0.0829,0 -0.6478,0.45587 -1.25542,1.01303 -4.539449,4.1625 -8.963399,6.7549 -12.755066,7.47437 -1.117216,0.212 -2.360234,0.28453 -2.561056,0.14945 z m 2.513299,-3.26725 c 1.861812,-0.37284 4.303993,-1.59017 6.827023,-3.40301 1.842918,-1.32417 4.92125,-4.04632 4.92125,-4.35184 0,-0.079 -0.41315,-0.6038 -0.9181,-1.16625 -1.36113,-1.51613 -2.897745,-3.40678 -4.439415,-5.46226 -1.206319,-1.60836 -1.410597,-1.83441 -1.697834,-1.87874 -0.179588,-0.0277 -0.981852,-0.12249 -1.78281,-0.21059 -1.9905,-0.21894 -4.309121,-0.58031 -6.539589,-1.01923 -1.028184,-0.20233 -1.940571,-0.34057 -2.027525,-0.3072 -0.189017,0.0725 -0.278855,0.37455 -0.676365,2.27385 -1.144069,5.46635 -1.028517,10.22146 0.314255,12.93208 1.155644,2.33286 3.111438,3.17547 6.01911,2.59319 z m 31.090223,0.0383 c 1.20396,-0.22787 2.40596,-1.29082 3.10637,-2.74703 1.28195,-2.66529 1.37649,-7.44968 0.25325,-12.81651 -0.39751,-1.8993 -0.48735,-2.20132 -0.67636,-2.27385 -0.087,-0.0334 -0.99934,0.10487 -2.02753,0.3072 -2.23047,0.43892 -4.54909,0.80029 -6.53959,1.01923 -0.80095,0.0881 -1.60322,0.18287 -1.78281,0.21059 -0.28723,0.0443 -0.49151,0.27038 -1.69783,1.87874 -1.54167,2.05548 -3.07829,3.94613 -4.43942,5.46226 -0.50495,0.56245 -0.91809,1.08726 -0.91809,1.16625 0,0.32091 3.14752,3.08641 5.07964,4.46312 3.89309,2.77396 6.96851,3.83607 9.64237,3.33 z m -16.61518,-10.45908 c 1.51591,-1.62205 4.31652,-5.0875 4.27877,-5.2945 -0.0405,-0.22223 -9.35061,-0.22223 -9.39114,0 -0.0544,0.29837 4.39189,5.62091 4.69557,5.62091 0.0615,0 0.24903,-0.14688 0.4168,-0.32641 z m 4.91357,-8.62076 c 1.0967,-0.0646 1.90932,-0.15667 1.9947,-0.22598 0.19933,-0.16182 1.99543,-2.91691 3.09302,-4.74449 1.75026,-2.91433 4.14478,-7.46465 4.14478,-7.87637 0,-0.46095 -2.75292,-5.62842 -4.60147,-8.63736 -1.13727,-1.85117 -2.44402,-3.82152 -2.64517,-3.98846 -0.53227,-0.44175 -14.094047,-0.44071 -14.63659,10e-4 -0.211521,0.17225 -2.036244,2.96644 -3.095808,4.7406 -1.833244,3.06961 -4.146703,7.46819 -4.146703,7.88411 0,0.41172 2.394512,4.96204 4.144772,7.87637 1.112326,1.85211 2.894542,4.5833 3.09953,4.74994 0.09049,0.0736 0.7491,0.15785 1.650574,0.21125 2.192835,0.1299 8.855365,0.13552 10.998365,0.009 z m -6.38493,-5.98019 c -1.39626,-0.21699 -2.74933,-0.92318 -3.83042,-1.99916 -0.677188,-0.67399 -0.895835,-0.97608 -1.274482,-1.7609 -1.016471,-2.10683 -1.018796,-4.12859 -0.0071,-6.2008 0.802411,-1.64359 2.213972,-2.87612 4.007262,-3.49902 0.72462,-0.25169 0.93653,-0.27908 2.15933,-0.27908 1.22279,0 1.4347,0.0274 2.15932,0.27908 1.7933,0.6229 3.20485,1.85543 4.00727,3.49902 1.0141,2.0772 1.01131,4.11714 -0.008,6.20539 -0.81454,1.66794 -2.42014,3.01407 -4.24985,3.56309 -0.54622,0.16389 -2.37992,0.28296 -2.9628,0.19238 z m -10.495303,5.20509 c 0,-0.0996 -0.239587,-0.56284 -0.532414,-1.02944 -0.842592,-1.34261 -2.289854,-3.83649 -3.115124,-5.36788 -0.966034,-1.79259 -1.010788,-1.85407 -1.206325,-1.65715 -0.281019,0.28301 -2.347306,5.80403 -2.451258,6.54964 -0.0449,0.32206 -0.01941,0.38697 0.18671,0.47548 0.301924,0.12965 2.945645,0.64264 4.657788,0.9038 0.7181,0.10953 1.418624,0.21718 1.55672,0.23922 0.6449,0.10289 0.903903,0.0703 0.903903,-0.11367 z m 25.610563,-0.1281 c 1.70467,-0.26767 4.31793,-0.77695 4.59483,-0.89544 0.14671,-0.0628 0.22598,-0.18319 0.22598,-0.34323 0,-0.48479 -2.17199,-6.38727 -2.45607,-6.67448 -0.0748,-0.0756 -0.18161,-0.10919 -0.23743,-0.0747 -0.0558,0.0345 -0.37411,0.5773 -0.70729,1.20622 -0.78395,1.47981 -2.34678,4.1935 -3.23318,5.61406 -0.38372,0.61498 -0.69768,1.20466 -0.69768,1.31041 0,0.17626 0.0523,0.18653 0.62771,0.12328 0.34524,-0.0379 1.19265,-0.15771 1.88313,-0.26613 z m -35.304164,-3.95924 c 0.871559,-2.5257 1.420256,-3.94224 2.421758,-6.25213 l 0.751213,-1.73262 -0.313848,-0.728 c -1.017994,-2.36136 -1.268175,-2.96184 -1.726019,-4.14275 -0.278411,-0.7181 -0.809194,-2.18694 -1.17952,-3.26409 -0.577339,-1.67929 -0.704417,-1.96306 -0.89148,-1.99074 -0.285917,-0.0423 -3.750417,1.12892 -5.287225,1.78743 -2.369612,1.01535 -4.356217,2.16249 -5.895812,3.40445 -0.920343,0.74243 -1.466405,1.33838 -2.036238,2.22227 -1.07084,1.66102 -1.178623,3.09887 -0.357609,4.77059 1.395575,2.84164 5.444602,5.45066 11.704401,7.54183 0.883815,0.29525 1.713956,0.52693 1.844757,0.51484 0.215547,-0.0199 0.305984,-0.21951 0.965622,-2.13108 z m 44.737684,1.7989 c 5.03339,-1.56091 9.41925,-3.98381 11.30635,-6.24602 0.70646,-0.84689 1.32158,-2.08229 1.44874,-2.90964 0.28358,-1.84508 -0.75162,-3.84078 -2.88492,-5.56169 -1.53837,-1.24097 -3.52134,-2.38627 -5.89581,-3.40522 -1.49428,-0.64124 -5.01311,-1.82757 -5.29606,-1.7855 -0.17562,0.0261 -0.31775,0.3465 -0.88265,1.98958 -0.37032,1.07715 -0.9011,2.54599 -1.17952,3.26409 -0.45784,1.18091 -0.70802,1.78139 -1.72601,4.14275 l -0.31385,0.728 0.75075,1.73262 c 0.96978,2.23807 1.72939,4.19963 2.4771,6.39669 0.33012,0.97002 0.62049,1.82017 0.64526,1.88922 0.0683,0.19026 0.28611,0.15726 1.55062,-0.23488 z M 89.284226,141.80111 c 1.078382,-2.00773 2.128391,-3.85889 3.138907,-5.53384 0.655619,-1.08671 1.192034,-2.05335 1.192034,-2.14809 0,-0.15241 -0.07809,-0.16442 -0.677927,-0.10431 -1.475941,0.14792 -6.132257,0.99547 -6.477965,1.17913 -0.09667,0.0514 -0.175759,0.20339 -0.175759,0.33786 0,0.42386 2.153287,6.30611 2.436747,6.6566 0.15958,0.19731 0.302748,0.099 0.563963,-0.38735 z m 32.984644,-1.14761 c 0.83094,-2.11822 1.77767,-4.84583 1.77767,-5.12164 0,-0.13447 -0.0791,-0.2865 -0.17576,-0.33786 -0.34571,-0.18366 -5.00202,-1.03121 -6.47797,-1.17913 -0.59983,-0.0601 -0.67792,-0.0481 -0.67792,0.10431 0,0.0947 0.53601,1.06138 1.19114,2.14809 1.2121,2.01059 2.44882,4.19027 3.01043,5.30576 0.32508,0.64568 0.49041,0.79052 0.68493,0.60004 0.0637,-0.0624 0.36411,-0.74623 0.66748,-1.51957 z m -34.795795,-8.83499 c 1.936441,-0.3909 4.35261,-0.7656 6.834695,-1.05993 0.917172,-0.10876 1.698204,-0.19795 1.735627,-0.1982 0.03742,-2e-4 0.721509,-0.87046 1.520191,-1.9338 1.535758,-2.04466 3.193292,-4.07526 4.501302,-5.51445 0.43459,-0.47817 0.79017,-0.93616 0.79017,-1.01776 0,-0.28167 -2.33033,-2.39912 -4.229647,-3.84327 -3.932773,-2.9903 -7.424883,-4.41635 -9.943526,-4.06055 -4.1045,0.57981 -5.603882,5.78573 -4.15056,14.41092 0.202678,1.20286 0.644757,3.17012 0.761713,3.38964 0.124982,0.23458 0.187346,0.22964 2.180035,-0.1726 z m 37.647365,-0.0688 c 0.36242,-1.11027 0.92636,-4.41367 1.12899,-6.61316 0.3061,-3.32286 -0.0567,-6.29329 -1.00346,-8.21534 -2.03267,-4.12669 -7.00751,-3.6381 -13.54133,1.32992 -1.8863,1.43426 -4.22964,3.56132 -4.22964,3.83928 0,0.0794 0.43552,0.62669 0.96782,1.21619 1.29159,1.43039 2.89883,3.41244 4.47104,5.5137 l 1.29092,1.7253 0.57713,0.0666 c 3.46475,0.39991 6.22866,0.81834 8.26029,1.25053 1.75339,0.373 1.9226,0.3638 2.07824,-0.11303 z m -15.25688,-1.70356 c 0.0572,-0.29543 -4.39405,-5.61264 -4.69853,-5.61264 -0.15934,0 -1.72205,1.73479 -3.20335,3.55609 -1.19403,1.4681 -1.54256,1.95723 -1.49079,2.09214 0.0382,0.0996 1.0443,0.12503 4.70646,0.11887 3.9993,-0.007 4.66185,-0.0286 4.68621,-0.15446 z"
         id="path7469" />
      <path
         style="fill:#00d7ff;fill-opacity:1;stroke-width:0.670576"
         d="m 89.17278,181.40696 c 0.180514,-0.0223 0.451685,-0.0219 0.602601,0.001 0.150917,0.0229 0.0032,0.0412 -0.328208,0.0406 -0.33143,-6e-4 -0.454907,-0.0193 -0.274393,-0.0417 z m 31.43571,0 c 0.18051,-0.0223 0.45168,-0.0219 0.6026,0.001 0.15092,0.0229 0.003,0.0412 -0.32821,0.0406 -0.33143,-6e-4 -0.45491,-0.0193 -0.27439,-0.0417 z m -32.969121,-0.27693 c -2.398851,-0.52897 -4.140832,-1.99883 -5.32068,-4.48952 -0.927154,-1.95724 -1.302201,-4.04834 -1.293644,-7.21279 0.0078,-2.87629 0.343755,-5.53941 1.106812,-8.77313 0.21689,-0.91915 0.235764,-1.11115 0.120431,-1.22523 -0.07522,-0.0744 -0.859887,-0.36802 -1.743703,-0.65248 -5.270627,-1.6964 -9.191547,-3.81565 -11.699429,-6.32351 -1.955506,-1.95549 -2.913655,-3.99334 -2.913655,-6.19694 0,-2.26404 0.915862,-4.25321 2.861098,-6.21404 2.573377,-2.59401 6.947811,-4.93403 12.203938,-6.52826 0.635242,-0.19268 1.21653,-0.41181 1.291751,-0.48698 0.115393,-0.1153 0.09657,-0.30698 -0.120431,-1.22661 -0.764959,-3.24178 -1.100766,-5.92788 -1.103064,-8.82335 -0.0031,-3.8465 0.576847,-6.29442 2.002334,-8.45241 1.064196,-1.61104 2.75432,-2.80193 4.527635,-3.19024 0.932218,-0.20414 2.776465,-0.20472 3.849224,-0.001 3.541957,0.6719 7.944218,3.28134 12.421634,7.36292 0.67411,0.61451 1.27504,1.1173 1.33541,1.1173 0.0604,0 0.6613,-0.50279 1.3354,-1.1173 4.47742,-4.08158 8.87968,-6.69102 12.42164,-7.36292 1.07276,-0.2035 2.917,-0.20292 3.84922,0.001 2.83739,0.62131 5.03254,2.97927 5.94425,6.38512 0.45966,1.71713 0.58762,2.86575 0.58572,5.25753 -0.002,2.89547 -0.3381,5.58157 -1.10306,8.82335 -0.21701,0.91963 -0.23583,1.11131 -0.12043,1.22661 0.0752,0.0752 0.65651,0.2943 1.29175,0.48698 5.25612,1.59423 9.63056,3.93425 12.20394,6.52826 1.94523,1.96083 2.86109,3.95 2.86109,6.21404 0,5.02679 -5.21613,9.49595 -14.61308,12.52045 -0.88382,0.28446 -1.66848,0.57808 -1.7437,0.65248 -0.11534,0.11408 -0.0965,0.30608 0.12043,1.22523 0.3898,1.65192 0.6477,3.09038 0.88552,4.93902 0.28239,2.19512 0.30799,5.47305 0.0555,7.0982 -0.6935,4.46276 -2.62538,7.23699 -5.74545,8.25065 -1.08672,0.35305 -2.99714,0.43744 -4.31864,0.19075 -3.66987,-0.68506 -8.15331,-3.32511 -12.60442,-7.42203 -0.63524,-0.5847 -1.22278,-1.06324 -1.30563,-1.06344 -0.0829,-2e-4 -0.6478,0.45698 -1.25542,1.01593 -4.474586,4.11618 -8.743719,6.66852 -12.400403,7.41371 -1.153069,0.23498 -2.933179,0.2592 -3.869838,0.0526 z m 3.063224,-2.8702 c 2.6802,-0.43093 6.458731,-2.57538 10.043357,-5.69996 1.12322,-0.97907 2.20954,-2.05672 2.20954,-2.1919 0,-0.0656 -0.50881,-0.69949 -1.13069,-1.40858 -1.63117,-1.85994 -2.75104,-3.24251 -4.293258,-5.30038 l -1.358924,-1.81329 -0.550583,-0.0707 c -0.30282,-0.0389 -1.341496,-0.16563 -2.308169,-0.28164 -2.098646,-0.25185 -3.52572,-0.48262 -6.056547,-0.97936 -1.628556,-0.31965 -1.901219,-0.35034 -1.980544,-0.22288 -0.248538,0.39932 -0.937765,3.99971 -1.210698,6.32446 -0.185998,1.58426 -0.162481,4.65934 0.04493,5.87537 0.566513,3.32138 1.888533,5.20203 4.030529,5.73365 0.631401,0.1567 1.713004,0.17158 2.561056,0.0352 z m 31.355437,-0.007 c 2.20115,-0.4674 3.58468,-2.38337 4.16102,-5.76235 0.20741,-1.21603 0.23093,-4.2911 0.0449,-5.87536 -0.27294,-2.32475 -0.96216,-5.92514 -1.2107,-6.32447 -0.0793,-0.12745 -0.35199,-0.0968 -1.98054,0.22289 -2.53083,0.49674 -3.95791,0.7275 -6.05655,0.97935 -0.96667,0.11601 -2.00535,0.24275 -2.30817,0.28165 l -0.55058,0.0707 -1.35893,1.81329 c -1.54222,2.05787 -2.66208,3.44044 -4.29326,5.30038 -0.62188,0.70909 -1.13068,1.34295 -1.13068,1.40858 0,0.24157 2.17212,2.2308 3.96712,3.63309 2.87551,2.2464 6.05617,3.89686 8.19304,4.2514 0.78805,0.13075 1.90976,0.13112 2.5233,8e-4 z m -15.52834,-11.5158 c 1.23198,-1.41266 3.19229,-3.83389 3.36437,-4.15542 0.0709,-0.13249 0.0757,-0.24092 0.0135,-0.30316 -0.0594,-0.0594 -1.89233,-0.0969 -4.74252,-0.0969 -2.8502,0 -4.68307,0.0375 -4.74252,0.0969 -0.0623,0.0622 -0.0574,0.17067 0.0135,0.30316 0.17207,0.32153 2.13238,2.74276 3.36437,4.15542 0.87045,0.99811 1.16839,1.27689 1.36466,1.27689 0.19626,0 0.49421,-0.27878 1.36466,-1.27689 z m 3.19966,-7.56429 c 1.32369,-0.0609 2.5114,-0.15054 2.63936,-0.19919 0.37473,-0.14248 2.93692,-4.1395 4.82301,-7.5239 1.27437,-2.28675 2.63661,-4.98509 2.63661,-5.22264 0,-0.35394 -1.99195,-4.17082 -3.74757,-7.1809 -0.92625,-1.58811 -2.99608,-4.82844 -3.3679,-5.27247 -0.2871,-0.34285 -0.3165,-0.35285 -1.23437,-0.41972 -3.87102,-0.28201 -13.09163,-0.16175 -13.619093,0.17762 -0.39368,0.25329 -2.916831,4.22865 -4.64749,7.32237 -1.254123,2.24186 -2.710181,5.12859 -2.710181,5.3731 0,0.23755 1.362235,2.93589 2.636613,5.22264 1.931583,3.46605 4.447391,7.38109 4.838692,7.52986 0.667533,0.2538 7.864229,0.37212 11.752319,0.19323 z m -6.22148,-6.27785 c -1.13089,-0.27205 -2.22616,-0.90305 -3.11344,-1.7937 -1.40175,-1.40708 -1.953969,-2.64994 -2.031752,-4.57278 -0.05689,-1.40632 0.102061,-2.18857 0.6931,-3.41098 0.580441,-1.2005 1.784392,-2.40556 2.995812,-2.9986 1.15829,-0.56703 1.84819,-0.72844 3.11344,-0.72844 1.26525,0 1.95514,0.16141 3.11344,0.72844 1.21142,0.59304 2.41537,1.7981 2.99581,2.9986 0.59472,1.23002 0.75195,2.00612 0.69105,3.41098 -0.0839,1.9351 -0.63184,3.1696 -2.02971,4.57278 -0.90256,0.906 -1.99279,1.52625 -3.16366,1.79987 -0.81457,0.19036 -2.46006,0.18725 -3.26409,-0.006 z m -9.822099,5.51798 c 0.03537,-0.0922 -0.0057,-0.28424 -0.09121,-0.42684 -0.08553,-0.1426 -0.673383,-1.11799 -1.306341,-2.16752 -0.632956,-1.04953 -1.59297,-2.72175 -2.133363,-3.71604 -1.118686,-2.05832 -1.182542,-2.14783 -1.402219,-1.96551 -0.293489,0.24357 -2.569558,6.34785 -2.569558,6.89139 0,0.28449 0.05961,0.3036 2.351775,0.75407 1.441119,0.28321 4.455253,0.76813 4.907702,0.78955 0.0984,0.005 0.207847,-0.0669 0.243212,-0.1591 z m 24.887139,-0.082 c 1.63266,-0.23782 4.40029,-0.75084 5.19744,-0.96342 0.49376,-0.13167 0.48938,-0.24091 -0.0759,-1.89111 -0.95975,-2.80197 -1.93998,-5.24735 -2.15722,-5.38161 -0.1852,-0.11446 -0.30331,0.0596 -1.36207,2.0077 -0.5404,0.99429 -1.50041,2.66651 -2.13337,3.71604 -0.63296,1.04953 -1.22081,2.02492 -1.30634,2.16752 -0.14761,0.2461 -0.11733,0.59488 0.0516,0.594 0.0432,-2e-4 0.8468,-0.11233 1.78585,-0.24912 z m -34.677394,-3.86825 c 0.795825,-2.30826 1.555499,-4.26955 2.503436,-6.46328 0.378418,-0.87574 0.688032,-1.68256 0.688032,-1.79294 0,-0.11037 -0.242872,-0.74971 -0.539716,-1.42075 -0.899422,-2.03322 -1.870489,-4.52555 -2.58845,-6.64349 -0.374507,-1.10477 -0.746606,-2.05125 -0.826889,-2.1033 -0.101058,-0.0655 -0.604323,0.0535 -1.63574,0.38688 -6.73807,2.17785 -11.114396,5.05768 -12.374994,8.14333 -0.330275,0.80844 -0.400887,2.00448 -0.166616,2.82216 0.912519,3.18496 5.24868,6.20554 12.257041,8.53829 0.883816,0.29418 1.697328,0.52513 1.807805,0.51321 0.166404,-0.0179 0.316716,-0.35767 0.876091,-1.98011 z m 44.817764,1.59801 c 3.07073,-0.96332 6.38942,-2.46371 8.39343,-3.7947 3.11239,-2.06713 4.52731,-4.10844 4.39289,-6.33765 -0.21045,-3.49037 -4.92627,-7.02609 -12.67084,-9.50008 -1.00078,-0.3197 -1.54144,-0.44732 -1.63574,-0.38612 -0.0775,0.0503 -0.44728,0.99531 -0.82178,2.10008 -0.71796,2.11794 -1.68903,4.61027 -2.58845,6.64349 -0.29685,0.67104 -0.53972,1.3076 -0.53972,1.41459 0,0.10698 0.36546,1.04627 0.81213,2.08732 0.89959,2.09664 1.97456,4.90791 2.55323,6.67723 0.43483,1.32951 0.51439,1.5065 0.6772,1.5065 0.0652,0 0.70766,-0.1848 1.42765,-0.41066 z m -38.611388,-15.6336 c 0.564422,-1.03572 1.546418,-2.74184 2.182212,-3.79137 0.635795,-1.04953 1.225736,-2.02491 1.31098,-2.16752 0.08604,-0.14393 0.124786,-0.33798 0.08709,-0.4362 -0.0578,-0.15063 -0.146202,-0.16688 -0.594729,-0.1093 -1.942302,0.24933 -5.867265,0.9475 -6.577958,1.17008 -0.236879,0.0742 -0.326409,0.16215 -0.326409,0.32068 0,0.37404 1.920827,5.72766 2.375393,6.62056 0.287433,0.56461 0.455222,0.38992 1.543417,-1.60693 z m 32.146828,0.42684 c 0.77571,-1.93951 1.7827,-4.79134 1.85792,-5.26171 0.0598,-0.37426 0.0488,-0.3942 -0.27507,-0.49581 -0.71911,-0.22561 -4.62943,-0.92217 -6.58896,-1.17371 -0.44853,-0.0576 -0.53693,-0.0413 -0.59473,0.1093 -0.0377,0.0982 0.001,0.29227 0.0871,0.4362 0.0852,0.14261 0.67519,1.11799 1.31098,2.16752 0.63579,1.04953 1.61909,2.75803 2.1851,3.79666 1.29733,2.38061 1.239,2.36842 2.01767,0.42155 z m -34.691884,-8.98554 c 2.136445,-0.42763 4.445624,-0.7802 6.999083,-1.06863 1.569498,-0.17728 1.597162,-0.18463 1.831324,-0.48633 0.130764,-0.16848 0.742563,-0.98425 1.359553,-1.81283 1.302397,-1.74903 2.764544,-3.54509 4.196664,-5.15504 0.55662,-0.62573 1.01203,-1.19671 1.01203,-1.26885 0,-0.27742 -2.58989,-2.60731 -4.469295,-4.02062 -2.71624,-2.04262 -5.421625,-3.42018 -7.485892,-3.81176 -2.209921,-0.41922 -3.927774,0.0119 -5.066182,1.27147 -0.50877,0.56291 -1.158922,1.78094 -1.439169,2.69621 -0.895331,2.92411 -0.708831,7.86087 0.488936,12.94255 0.191306,0.81164 0.326796,1.1123 0.501249,1.1123 0.04451,0 0.976775,-0.17931 2.071699,-0.39847 z m 37.566304,0.0883 c 0.18714,-0.39238 0.79923,-3.54771 1.0406,-5.36435 0.41024,-3.08757 0.28073,-6.39018 -0.32864,-8.38035 -0.28024,-0.91527 -0.9304,-2.1333 -1.43917,-2.69621 -2.33181,-2.57996 -6.99938,-1.63534 -12.55207,2.54029 -1.89987,1.4287 -4.46929,3.74365 -4.46929,4.02665 0,0.0755 0.37762,0.55605 0.83917,1.06798 1.38945,1.54117 3.0258,3.54585 4.31748,5.28932 1.81034,2.44353 1.32593,2.14753 4.03302,2.46441 2.49006,0.29148 5.19229,0.72524 6.8797,1.10431 1.30337,0.29279 1.51791,0.28615 1.6792,-0.052 z m -15.20829,-1.78822 c 0.0537,-0.0537 0.0738,-0.1572 0.0446,-0.22996 -0.15983,-0.39845 -4.31981,-5.34898 -4.65161,-5.53559 -0.0785,-0.0442 -0.20707,-0.0442 -0.28561,0 -0.33632,0.18915 -4.49298,5.13951 -4.65459,5.54336 -0.0308,0.077 0.0123,0.19003 0.0958,0.25109 0.19659,0.14375 9.30665,0.11589 9.45145,-0.0289 z"
         id="path7467" />
    </g>
  </g>
</svg>
