<?xml version="1.0" encoding="UTF-8" standalone="no"?>
<svg
   xmlns:dc="http://purl.org/dc/elements/1.1/"
   xmlns:cc="http://creativecommons.org/ns#"
   xmlns:rdf="http://www.w3.org/1999/02/22-rdf-syntax-ns#"
   xmlns:svg="http://www.w3.org/2000/svg"
   xmlns="http://www.w3.org/2000/svg"
   xmlns:sodipodi="http://sodipodi.sourceforge.net/DTD/sodipodi-0.dtd"
   xmlns:inkscape="http://www.inkscape.org/namespaces/inkscape"
   width="1451"
   height="183.14232"
   viewBox="0 0 1451 183.14232"
   fill="none"
   version="1.1"
   id="svg116"
   sodipodi:docname="Bubbles.svg"
   inkscape:version="1.0.2 (e86c870879, 2021-01-15)">
  <metadata
     id="metadata122">
    <rdf:RDF>
      <cc:Work
         rdf:about="">
        <dc:format>image/svg+xml</dc:format>
        <dc:type
           rdf:resource="http://purl.org/dc/dcmitype/StillImage" />
        <dc:title></dc:title>
      </cc:Work>
    </rdf:RDF>
  </metadata>
  <defs
     id="defs120">
    <inkscape:path-effect
       effect="powermask"
       id="path-effect176"
       is_visible="true"
       lpeversion="1"
       uri="#mask-powermask-path-effect176"
       invert="false"
       hide_mask="false"
       background="false"
       background_color="#ffffffff" />
    <inkscape:path-effect
       effect="powerclip"
       id="path-effect167"
       is_visible="true"
       lpeversion="1"
       inverse="true"
       flatten="false"
       hide_clip="false"
       message="Use fill-rule evenodd on &lt;b&gt;fill and stroke&lt;/b&gt; dialog if no flatten result after convert clip to paths." />
    <clipPath
       clipPathUnits="userSpaceOnUse"
       id="clipPath187">
      <path
         id="path189"
         style="display:block;fill:#c4c4c4;stroke-width:37.7953;stroke-linejoin:round"
         d="m -19.1409,-131.52239 h 1497.2172 c 19.6169,0 35.4096,31.994729 35.4096,71.737069 V 111.40525 c 0,39.74234 -15.7927,71.73707 -35.4096,71.73707 H -19.1409 c -19.616918,0 -35.409599,-31.99473 -35.409599,-71.73707 V -59.785321 c 0,-39.74234 15.792681,-71.737069 35.409599,-71.737069 z" />
    </clipPath>
  </defs>
  <sodipodi:namedview
     pagecolor="#ffffff"
     bordercolor="#666666"
     borderopacity="1"
     objecttolerance="10"
     gridtolerance="10"
     guidetolerance="10"
     inkscape:pageopacity="0"
     inkscape:pageshadow="2"
     inkscape:window-width="1880"
     inkscape:window-height="1021"
     id="namedview118"
     showgrid="false"
     showborder="false"
     fit-margin-top="0"
     fit-margin-left="0"
     fit-margin-right="0"
     fit-margin-bottom="0"
     inkscape:zoom="0.89113141"
     inkscape:cx="445.13563"
     inkscape:cy="178.06496"
     inkscape:window-x="20"
     inkscape:window-y="20"
     inkscape:window-maximized="0"
     inkscape:current-layer="svg116" />
  <g
     id="g140"
     clip-path="url(#clipPath187)"
     mask="none">
    <path
       id="circle92"
       style="fill:#314c92"
       d="M 861,105.5 A 105.5,105.5 0 0 1 755.5,211 105.5,105.5 0 0 1 650,105.5 105.5,105.5 0 0 1 755.5,0 105.5,105.5 0 0 1 861,105.5 Z" />
    <path
       id="circle94"
       style="fill:#314c92"
       d="m 982,131 a 90,90 0 0 1 -90,90 90,90 0 0 1 -90,-90 90,90 0 0 1 90,-90 90,90 0 0 1 90,90 z" />
    <path
       id="circle96"
       style="fill:#314c92"
       d="m 700,131 a 90,90 0 0 1 -90,90 90,90 0 0 1 -90,-90 90,90 0 0 1 90,-90 90,90 0 0 1 90,90 z" />
    <path
       id="circle98"
       style="fill:#314c92"
       d="m 559,146 a 59,59 0 0 1 -59,59 59,59 0 0 1 -59,-59 59,59 0 0 1 59,-59 59,59 0 0 1 59,59 z" />
    <path
       id="circle100"
       style="fill:#314c92"
       d="M 482,118.5 A 86.5,86.5 0 0 1 395.5,205 86.5,86.5 0 0 1 309,118.5 86.5,86.5 0 0 1 395.5,32 86.5,86.5 0 0 1 482,118.5 Z" />
    <path
       id="circle102"
       style="fill:#314c92"
       d="m 358,156 a 75,75 0 0 1 -75,75 75,75 0 0 1 -75,-75 75,75 0 0 1 75,-75 75,75 0 0 1 75,75 z" />
    <path
       id="circle104"
       style="fill:#314c92"
       d="m 239,173 a 75,75 0 0 1 -75,75 75,75 0 0 1 -75,-75 75,75 0 0 1 75,-75 75,75 0 0 1 75,75 z" />
    <path
       id="circle106"
       style="fill:#314c92"
       d="M 117,189.5 A 58.5,58.5 0 0 1 58.5,248 58.5,58.5 0 0 1 0,189.5 58.5,58.5 0 0 1 58.5,131 58.5,58.5 0 0 1 117,189.5 Z" />
    <path
       id="circle108"
       style="fill:#314c92"
       d="m 1074,146 a 69,69 0 0 1 -69,69 69,69 0 0 1 -69,-69 69,69 0 0 1 69,-69 69,69 0 0 1 69,69 z" />
    <path
       id="circle110"
       style="fill:#314c92"
       d="m 1307,156 a 79,79 0 0 1 -79,79 79,79 0 0 1 -79,-79 79,79 0 0 1 79,-79 79,79 0 0 1 79,79 z" />
    <path
       id="circle112"
       style="fill:#314c92"
       d="m 1451,196 a 90,90 0 0 1 -90,90 90,90 0 0 1 -90,-90 90,90 0 0 1 90,-90 90,90 0 0 1 90,90 z" />
    <path
       id="circle114"
       style="fill:#314c92"
       d="m 1180,167 a 69,69 0 0 1 -69,69 69,69 0 0 1 -69,-69 69,69 0 0 1 69,-69 69,69 0 0 1 69,69 z" />
  </g>
</svg>
