<?xml version="1.0" encoding="UTF-8" standalone="no"?>
<svg
   xmlns:dc="http://purl.org/dc/elements/1.1/"
   xmlns:cc="http://creativecommons.org/ns#"
   xmlns:rdf="http://www.w3.org/1999/02/22-rdf-syntax-ns#"
   xmlns:svg="http://www.w3.org/2000/svg"
   xmlns="http://www.w3.org/2000/svg"
   xmlns:sodipodi="http://sodipodi.sourceforge.net/DTD/sodipodi-0.dtd"
   xmlns:inkscape="http://www.inkscape.org/namespaces/inkscape"
   width="331.02521mm"
   height="327.45691mm"
   viewBox="0 0 331.02521 327.45691"
   version="1.1"
   id="svg8"
   inkscape:version="1.0.2 (e86c870879, 2021-01-15)"
   sodipodi:docname="documentation.svg">
  <defs
     id="defs2" />
  <sodipodi:namedview
     id="base"
     pagecolor="#ffffff"
     bordercolor="#666666"
     borderopacity="1.0"
     inkscape:pageopacity="0.0"
     inkscape:pageshadow="2"
     inkscape:zoom="0.24115656"
     inkscape:cx="353.54562"
     inkscape:cy="-57.708782"
     inkscape:document-units="mm"
     inkscape:current-layer="layer1"
     inkscape:document-rotation="0"
     showgrid="false"
     showborder="false"
     inkscape:pagecheckerboard="true"
     fit-margin-top="0"
     fit-margin-left="0"
     fit-margin-right="0"
     fit-margin-bottom="0"
     inkscape:window-width="1880"
     inkscape:window-height="1021"
     inkscape:window-x="20"
     inkscape:window-y="20"
     inkscape:window-maximized="0" />
  <metadata
     id="metadata5">
    <rdf:RDF>
      <cc:Work
         rdf:about="">
        <dc:format>image/svg+xml</dc:format>
        <dc:type
           rdf:resource="http://purl.org/dc/dcmitype/StillImage" />
        <dc:title></dc:title>
      </cc:Work>
    </rdf:RDF>
  </metadata>
  <g
     inkscape:label="Layer 1"
     inkscape:groupmode="layer"
     id="layer1"
     transform="translate(-222.43388,133.93017)">
    <circle
       style="fill:#ffffff;fill-opacity:1;stroke-width:10;stroke-linejoin:round"
       id="path12-7"
       cx="385.47232"
       cy="30.488308"
       r="163.03844" />
    <g
       id="g992"
       transform="matrix(1.5094431,0,0,1.5094431,-277.52391,-109.62367)"
       style="stroke-width:0.662496">
      <path
         id="rect907"
         style="fill:#c4c4c4;fill-opacity:1;stroke:none;stroke-width:6.62496;stroke-linejoin:round"
         d="m 433.89029,131.86599 c 3.33949,1.51743 6.74007,2.07778 10.30902,0 V 59.282579 h -10.30902 z"
         sodipodi:nodetypes="ccccc" />
      <path
         id="rect907-3"
         style="fill:#c4c4c4;fill-opacity:1;stroke:none;stroke-width:6.62491;stroke-linejoin:round"
         d="m 439.8836,133.26031 c 15.99862,-5.02435 30.25759,-9.61564 47.89662,-5.61377 V 53.113914 c -22.45914,-2.44999 -33.81453,1.71422 -48.34925,6.20962 z"
         sodipodi:nodetypes="ccccc" />
      <path
         id="rect907-3-7"
         style="fill:#c4c4c4;fill-opacity:1;stroke:none;stroke-width:6.62491;stroke-linejoin:round"
         d="m 438.58104,133.26031 c -15.99862,-5.02435 -30.25758,-9.61564 -47.89661,-5.61377 V 53.11391 c 22.45914,-2.44999 33.81453,1.71422 48.34924,6.20962 z"
         sodipodi:nodetypes="ccccc" />
    </g>
    <path
       id="path12-6"
       style="fill:#c4c4c4;fill-opacity:1;stroke-width:10;stroke-linejoin:round;stroke-miterlimit:4;stroke-dasharray:none"
       d="m 390.42047,-133.93017 a 163.03844,163.03844 0 0 0 -43.65419,5.95312 163.03844,163.03844 0 0 1 23.63732,-1.72237 A 163.03844,163.03844 0 0 1 533.44171,33.338687 163.03844,163.03844 0 0 1 414.05778,190.42417 163.03844,163.03844 0 0 0 553.4591,29.108452 163.03844,163.03844 0 0 0 390.42047,-133.93017 Z" />
  </g>
</svg>
